<svg version="1.1" id="Layer_1" xmlns="http://www.w3.org/2000/svg" xmlns:xlink="http://www.w3.org/1999/xlink" x="0" y="0" viewBox="0 0 322.8 126.1" xml:space="preserve"><style>.st0{clip-path:url(#SVGID_2_);fill:#b59150}</style><defs><path id="SVGID_1_" d="M0 0h322.8v126.1H0z"/></defs><clipPath id="SVGID_2_"><use xlink:href="#SVGID_1_" overflow="visible"/></clipPath><path class="st0" d="M98.2 51.5c.3.1.4.3.4.5s-.1.3-.2.1c-.1-.2-.6-.2-.6-.6.1.1.3 0 .4 0m-14.5-7c-.2 1.1-.6 1.2-1.5.7-1.2-.6-1.4-1.9-1.7-3 0-.7 0-1.4.1-2.1.3-3 1.2-5.8 2.4-8.5.5-1 1.1-1.1 1.6-.1 1 1.7 1.7 3.3.6 5.4-.8 1.4-.7 3.3-1 4.9-.2 1-.4 1.8-.5 2.7m-42.2 18c0-1.2.2-2.3 1.1-3.6-.2 1.5-.8 2.6-1.1 3.6m1.3 11c-.2.1-.2-.3-.2-.5 0-.1.1-.2.1-.3.2.3.3.7.1.8M40 53.1c.1-.4.5-.3.8-.3.2 0 .3.2.3.4-.1.4-.5.3-.7.4-.4 0-.5-.2-.4-.5m.8 15.1c0 .2-.1.3-.4.3-.4 0-.3-.3-.2-.5.1-.3 0-.6.4-.9.5.4.2.7.2 1.1m-1.1 4.6c0-.9 0-1.7.1-3 1 1.3.2 2.2-.1 3m1.6-21.9c0 .1-.1.2-.2.2-.5.2-.5-.3-.6-.6h.1c.2.2.6 0 .7.4m.8 5.7c.6-.5 1.3-.8 1.5-1.8.3 1.1-.7 1.6-1.1 2.4-.1.2-.4 0-.4-.1-.1-.2-.1-.4 0-.5m2-4.5c.4.1.3.4.2.7-.1.2-.2.4-.4.7-.2-.6-.2-1 .2-1.4m-7.2 24.1c-.3-.7 0-1.2.3-1.7.3.6.3 1.2-.3 1.7M6.8 55.4c-.3 0-.2-.3-.2-.5-.1-.4.1-.7.4-1 .2.6.2 1.1-.2 1.5M6 59.1s-.2 0-.3-.1c-.2-.4.1-.6.2-.9.3.3.2.6.1 1m-1.2-4.5c-.2-1-.2-1 .3-1.8.3.6-.4 1.1-.3 1.8M5 69.4c-.1.2-.5.3-.6.2-.5-.4-.1-.9-.3-1.7.6.7 1.2.9.9 1.5M3.6 58.6c.3 0 .4.2.5.5.1.3 0 .5-.4.5-.2 0-.3-.1-.3-.4 0-.2 0-.5.2-.6m10-19.1c.1.8-.3 1.2-.9 1.8.1-.8-.1-1.5.9-1.8m2.6-4.1c-.7.2 0 1.6-1.3 1.4.5-.5.4-1.3 1.3-1.4M45 49.9s.1-.1.2-.1c.1.2.1.2.1.3 0 .4-.1.7-.5 1-.1.1-.2 0-.3-.1 0-.5.5-.7.5-1.1m-.2-7.5c.3-.2.4-.9.9-.6-.1.4-.2.7-.4 1-.1.3-.1.7-.5.6-.1 0-.2-.2-.2-.3-.2-.3-.2-.6.2-.7m1.2-2c.3.6-.3.9-.3 1.3-.2-.4-.3-.8.3-1.3m1.7 2.8c-.2.9-.3 1.5-1.1 2.2.3-1 .2-1.6 1.1-2.2m2.1 6c.2-1 .6-1.9.9-2.8.9-.6.7-1.7 1-2.5.5-1.2.4-1.7 0-3.1-.1-.4 0-.8.5-.7.9.1 1.1-.2.7-.9-.4-.6-.2-.8.1-1.4.9-1.6 1.7-3.3 2.5-5 .5-1.1 1.4-1.8 2-2.9 1.3-2.4 2.9-4.6 4.4-6.9 1.4-2.1 3.4-3.6 4.7-5.7 1.9-3 4.8-5 7.4-7.3.6-.5 1.2-.9 2.1-.6 1 .3 1.7 1.6 1.4 2.8-.6 2.1-1.1 4.2-2.5 6-.9 1.3-1.4 2.9-2.4 4.2-2.4 3.1-4.5 6.4-7.1 9.3-1.5 1.7-2.8 3.7-4.2 5.5-2.4 3.1-5 6.1-7.4 9.2-1.6 2.1-3 4.3-4.5 6.4-.3.4-.6.7-.9 1.1-.2-.6 0-1.1.2-1.6.3-1-.5-.6-.9-.8.4-1.1 1.7-1.3 2-2.3m-.1-3.4c.4-.2.9 0 .9.6-.4.4-.6.9-1.3.9-.3-.7-.2-1.2.4-1.5m-.4-11.5c-.3.5-.5 1-.8 1.6-.2-.9-.2-.9.8-1.6m1.8 1.7c-.2.5-.6.1-.8-.1-.1-.1-.1-.2-.1-.3.4-.1 1 0 .9.4m5.2-10.3c.1-.2.1-.5.2-.7.3.2.3.5.4.7.1.3 0 .5-.3.6-.1 0-.3 0-.3-.1-.2-.2-.1-.3 0-.5m42.3 34.8c0-.2.3-.6.4-.2.2.5.3.7.5.1.1-.3.6-.8-.1-1.1-.5-.2-.4-.6.1-.7.9-.2 1.4-.6.6-1.5-.2-.2 0-.5.3-.5.4.1.6.1.7-.3.2-.8.8-1.3 1-2 1.1-3.3 2.8-6.2 4.1-9.4.2-.4.8-.6.6-1.1-.2-.4-.6-.8-1-1.1-.6-.4-1.3-.8-2.1-.9-1.4-.3-2.9-1.1-3.8.9-.1.1-.3.1-.5.2-4.1 1.1-8.1 2.2-12.3 2.8-.9.1-1.8.2-2.7-.2.1-.8.3-1.5.4-2.3.2-2.1.5-4.1 1.5-6 .6-1.2.5-2.6 0-3.9-.4-1-.8-2-.9-3.1-.1-.6-.4-1.1-1-1.2-.7-.2-1.2.2-1.6.7-2.7 3.4-3.9 7.3-3.6 11.6.1 2.1 1.1 3.9 3.3 4.6.7.2.9.6.8 1.4l-1.8 8.1c-.7 3.4-1.9 6.7-3.1 10-1.3 3.9-2.8 7.7-4.4 11.5-.6 1.6-1 3.3-1.8 4.7-.7 1.3-1.2 2.6-1.8 3.9-1.3 2.6-2.3 5.4-3.7 8-1.6 2.9-3.4 5.6-4.9 8.5-.4.8-1 1.5-1.5 2.1-.6.7-.9.7-1.3-.3-.3-.7-.4-1.4-.5-2.2-.4-2.5-.3-5-.5-7.6-.3-2.4.9-4.7.1-7v-.2c.9-2.1 1.3-4.4 1.9-6.6.7-2.2.7-4.6 1.5-6.7-.5-.9.6-1.3.6-2.1.2-2.3.5-4.6 1.2-6.8.8-2.3.7-4.6.6-6.9 0-1.1-.6-2.1-1.3-2.9-1.2-1.4-3.3-1.7-4.8-.5-2.5 1.9-4.5 4.3-6.2 6.8-1 1.4-1.9 2.9-2.6 4.5-1.4 2.9-2.8 5.8-4.1 8.8-.4 1.1-.4 2.4-1.4 3.3.2-.9 0-1.9.2-2.8.2-1.5 0-2.9.3-4.3.2-1 0-1.3-1.1-1.2 1.6-.8 1.6-.8 2-2.7.1-.4-.1-.8.3-1 .9-.5-.4-1.1.1-1.7.4-.5.7-1.1 1-1.6.1-.1-.1-.4-.2-.5-.5-.6-.3-1 .3-1.4.1-.1.5-.1.3-.3-.6-.7.2-1.1.4-1.6.2-.6.5-1.3 1-1.8 2.2-2.7 4.4-5.5 6.6-8.3 3.2-4.2 6.4-8.2 9.8-12.3 2.6-3.2 5.1-6.4 7.4-9.8 1.3-1.8 2.2-3.8 3.4-5.7 2.4-3.6 3.9-7.6 4.4-11.9-.1-.9-.7-1.8-1.7-2.2-2.4-.9-4.6-.7-6.8.6-2.6 1.5-5 3.3-7.3 5.3-1.8 1.6-3.3 3.4-5.3 4.7-.5.3-.7.7-.6 1.3.1.6 0 .8-.7.7-.8-.1-1.2.6-1.6 1.1-.7.7-1.2 1.7-1.9 2.4-2.2 1.8-3.1 4.5-4.6 6.7-.5.8-1.1 1.6-1 2.6-1.2.3-.8 2.1-2.1 2.3-.7 1.7-1.7 3.3-2.4 5-1.1 2.8-2.1 5.6-3.3 8.4-.4.9-.8 1.9 0 2.8-.7.6-1.2 1.5-1.4 2.2-.8 2.6-1.8 5.2-2.3 7.9-.5 2.7-1.3 5.2-1.3 8 0 1.5-.4 3-1.1 4.5-.8 1.4-1.5 2.8-2.2 4.3-.5 1.2-.7 2.5-1.5 3.6-2.1 3-4.8 5.3-7.8 7.2-2.8 1.8-5.8 1.3-8.1-.9-3.1-3.1-4.5-6.9-5.5-11-.1-.2-.1-.5-.1-.8 0-.3-.2-.6.2-.8 1.1 1.1 0 3.1 1.7 3.9-.2-1.7-.4-3.2-.6-4.8-.2-1.2.5-2.6-.2-3.5-.6-.7-.4-.9.1-1.4.6-.7.5-1.1-.3-1.7-.6-.4-.4-1-.4-1.5 0-.1.2-.3.4-.3.7-.1-.2.9.5.8.5-1.2.1-2.6.7-3.7.4-.8.5-1.6.3-2.4-.2-1 1.3-1.2 1-2.2-.1-.2.3-.6-.3-.7-.2 0-.3-.2 0-.4.7-.5 1.3-1 .6-1.9 1.1-.6.8-1.8 1.1-2.7.6-1.8 1.3-3.7 1.6-5.6.1-.4.3-.8-.3-1-.2-.2-.2-.6.1-.6 1.4.1 1.3-1.2 1.6-1.9.4-.9.5-1.8 1.1-2.5-.2-.4-.9 0-.9-.8.8 0 1.8-.3 1.9-.9 0-1 .8-1.5.9-2.3.1-.8 1.2-1.3.7-2.4 0-.1.2-.3.4-.4 1.2-1.5 2.5-2.9 3.6-4.5 1.6-2.4 3.8-4.2 5.4-6.5 1.1-1.6 2.8-2.9 4.9-3.3 1.1-.2 1.5.1 1.7 1.1.2 1-.1 2-.3 3-.5 3-2.3 5.6-2.6 8.6 0 .1 0 .3-.1.4-1.4 1.5-2.1 3.4-3 5.1-1.1 2-2.8 3.7-3.5 5.9-1.2.8-1.6 2.1-2.4 3.4 2.1-.2 3.2-1.6 4.4-2.9.4.5-.2.9.1 1.2.5-.1.6-.6.7-1 .4-1.4.9-2.8 2-3.8 1.2-1.1 1.9-2.5 2.7-3.8 2.3-3.7 3.8-7.8 4.7-12.1.7-3 .1-5.6-2.7-7.4-1.1-.7-2.3-1-3.4-.6-.8.3-1.7.5-2.5.9-2.7 1.5-5.4 2.9-7.9 4.8-2.8 2.3-5.4 4.8-7.9 7.5-.9 1-1.6 2.1-2.5 3.2-.2.3.2.9-.4 1.1-1.7.4-2.1 2-3 3.1-.6.8-1.3 1.8-.7 3.1.2.5-.2.9-.4 1.4-.1-.2-.2-.3-.2-.4-.1-.3.2-.7-.2-.8-.4-.1-.5.2-.6.5-.1.5-.5 1-.7 1.5-.9 1.8-2.2 3.6-2.1 5.6 0 1.3-1.1 2.2-.6 3.5 0 .1-.2.4-.3.4-.7.2-1 .6-1.1 1.3 0 .6-.3 1.2.3 1.8.2.3.3.8-.1 1.2-1.2.9-1.2 1.2-.6 2.4.1.4.7 1.3-.7 1.5-.6.1-.7.8-.2 1.3.7.5.8 1.1.2 1.2-.9.2-.9.7-.8 1.4 0 .3.1.6.6 1.2s.5 1.5 0 1.9c-1.2 1.1-.7 2.2-.5 3.4.4-.2.3-.5.4-.7 0 .2.1.4.1.6.1.8.2 1.6.3 2.6-.3-.4 0-1.1-.5-1.2-.1.1-.2.2-.2.3.1 1 .2 2 1 2.9.8.9.8 2.5.9 3.7l-.1-.1v.1c.3.6.8 1.2.2 1.9v-.1.1h.1c.1.3.2.6.4.8 1 .8 1.6 1.8 1.6 3.2 0 .5.5 1.3 1.3 1.4.8.2 1.3.6 1.7 1.3 1 1.6 2.6 2.6 4.3 3.3 4.4 1.8 8.6.9 12.7-1.3 1.5-.8 2.6-2 3.8-3.1 1.6-1.6 3.1-3.4 4.6-5.1.9-1 1.4-2.2 2.3-3.3.7 3.2.8 6.4 3.2 8.9 1.6 1.7 3.3 2.3 5.4 1.5.6-.2.9-.7.7-1.3-.2-1 0-2 .2-3 .9-4.9 2.7-9.5 4.9-13.9 2.2-4.5 4.7-8.9 8.2-12.6.6-.6 1.1-1.2 1.8-1.7.5-.3.9-.2 1.1.5.2 1.5 0 2.9-.5 4.3-.6 1.6-.8 3.3-1.5 4.9-.7 1.7-.6 3.7-1.4 5.4-.4.8-.5 1.8-.5 2.7 0 .7-.1 1.5-.8 2-.2.2-.4.3-.4.6 0 1.1.1 2.2-.8 3.1-.2.2-.1.5.1.7.5.5.2 1 0 1.4-.4.8-.4 1.4-.3 2.3.2 1.1.2 2.6-.4 3.3-1 1.1-.5 2.1-.5 3.1 0 .5 0 .9-.1 1.4-.3 1.2-.1 2.5.4 3.6.2.6.4 1.1.2 1.6-.4 1.3-.3 2.4.4 3.6.1.2.2.5.2.7 0 1.9 1.3 3.1 2.5 4.3 1.2 1.2 3.5 1.5 4.8-.3.7-.9 1.4-1.8 1.9-2.8 1.2-2.3 2.3-4.6 3.5-6.9 2.7-5.6 5.1-11.3 7.3-17.1 2.1-5.3 3.9-10.7 5.8-16 .7-2 1.2-4.1 1.7-6.2.7-2.8 1.4-5.6 2-8.4.2-.8.4-1.1 1.3-1.1 3.2 0 6.3-.2 9.4-1.1 1.4-.4 2.9-1 4.7-.9-1.2 1.5-1.5 3.2-2.3 4.7-.1.2-.2.4-.1.7.4.9 0 1.5-.7 2-.2.1-.5.2-.2.5.4.5.1.8-.3 1-.3.2-.8.2-.6.7.7.3 1.3-.2 2-.4-.4 1.4-1 2.3-1.5 3.3.4.6-.4 1.3.3 1.9.1.1 0 .4-.2.3-.2 0-.4-.1-.4-.3-.2-.7-.1-1.5-.5-2.1-.6 1.1-.1 2.6-1.3 3.5-.1 0-.1.2 0 .4.3 1.7-.1 3.3-1 4.9-.2.3-.3.7-.2 1.1.5 2.6-.6 5-.6 7.5-.1 2.2.5 4.1 1.9 5.8.4.5.9.4 1.2-.2.2-.4.2-.9 0-1.3-.3-.8-.3-1.7 0-2.2.8-1.3.2-2.8.9-4.1-.5-3 1.3-5.7 1.6-8.6 0-1 .8-2 .9-3.1M207 88.1c-.4.4-.8 0-1-.4-.3-.6.2-.7.6-.7v.3c0 .3 1 .3.4.8m-3.4 1.1c-.3 0-.5.4-.8.2-.1-.1-.1-.3 0-.3.2-.2.6-.2.9-.2.1 0 .1 0 .3.1-.1.2-.2.2-.4.2m-14.4-30c-.2-.9-1.4-2 .6-2.6-.2 1-.4 1.8-.6 2.6M143.4 54c-.4-.3-.3-.7-.3-1.6.6.8.4 1.2.3 1.6m.1 7.1c-.3-1.3-.6-2.6-.6-3.9.5 1.3.7 2.6.6 3.9m-1.6-6.4c-.1-.5-.2-1.2-.1-2 .9.6.9 1.6.9 2.2 0 .8.2 1.5.2 2.2-1-.5-.8-1.6-1-2.4m.5 20.9c-.3 1.5-1.1 3-1.8 4.5-.6 1.2-1.4 1.4-2.7 1-.9-.3-1.3-.8-1.1-1.9.3-1.8 1.1-3.3 1.8-5 .9-2.1 2.2-3.9 3.5-5.8.2-.3.4-.7 1-.6-.3 2.7-.2 5.3-.7 7.8m-1.1-25.8c0-.1 0-.2.1-.5.5.4.9.9.5 1.1-.5.3-.5-.3-.6-.6m1.1-3.7c.6.6.5 1.1.5 1.6-.7-.5-.3-.9-.5-1.6m-27.2 25.6c-.3-.3-.2-.7-.1-1 .1.3.2.6.1 1m55-29.4c.2-.1.3 0 .3.2 0 .5-.5.4-.8.6-.1.1-.2 0-.3-.2 0-.5.5-.4.8-.6m84.1 39.5c-1.7-.8-3.4-1.4-5.2-1.9-2.1-.6-4.3-1-6.5-1.2-3.5-.3-7 .3-10.5.9-.2-1.8-.4-3.5-.6-5.3-.2-2.5-.8-5 .2-7.5.1-.2.1-.5 0-.8-.5-3 .4-5.9 1-8.8.5-2.7 1.3-5.3 2.3-7.9.6-1.6 1.1-3.2 1.8-4.8 1.4-3 2.5-6 3.5-9.1.3-1 .4-2 .2-3-.2-1.1-.7-1.4-1.8-1.5-1.2-.1-2.3.1-3.3.6-5.4 2.6-9.8 6.5-13.6 11-2.6 3-5 6.2-7.2 9.5-.6.8-1.1 1.7-2.5 2.3.8-1 1.8-1.7 1.7-2.4-.2-1 .5-1.3.9-1.8.3-.4.7-.7.5-1.2-.3-.8.1-1.3.7-1.7.4-.3.7-.8.8-1.4.2-1 .5-1.9 1.1-2.8 1.6-2.4 1.9-5.1 1.8-7.9 0-1.5-.6-2-2.1-2.1-1.7-.1-3.2.4-4.6 1.4-.6.4-1.2.9-1.8 1.4-1.9 1.5-3.6 3.1-5.2 4.9-2.4 2.9-4.6 5.9-6.7 9-1.3 1.9-2.4 4-3.6 6-1.4 2.3-2.6 4.6-3.7 7.1-.2.4 0 .9-.8 1 .5-.7.2-1.4.5-2.2 1-2.4 1.3-4.9 2.4-7.3.9-1.8 1.7-3.7 2.7-5.5.8-1.6 2-3 2.7-4.7.4-1 .8-2 0-2.9-1.1-1.2-2.5-2-4.1-2-.8 0-1.6.3-1.9 1.2-.4 1-1 1.9-1.4 2.9-2 4.5-4.7 8.6-7.6 12.5-2.2 3-4.2 6.1-6.4 9.1-1.7 2.3-3.2 4.7-5 6.9-1.1 1.3-1.8 1-2.3-.4-.5-1.4-.9-3-.7-4.6.1-1 .1-2-.4-2.9-.1-.2-.3-.5-.2-.7.9-.8.3-1.9.7-2.9.4-.9.7-2 .5-2.9-.3-1.3-.1-2.3.3-3.4.1-.2.3-.6-.1-.6-1.1 0-.7-.8-.6-1.1.3-1 .5-2.1.8-3.1.7-2.6 1.6-5.1 1.8-7.9 0 0 .2-.1.3-.1.6.5-.3 1.4.4 1.9.1-.1.3-.2.3-.4.3-1.2-.1-2.3-.9-3.1-.4-.3 0-.7.1-.7 1 .3.8-.4.7-.9-.1-.5.3-.6.6-.8.3.5-.3 1.1.3 1.6.8-1.5 1.9-2.9 1.5-5-.8 1-.4 2.3-1.4 2.9.1-1.3-.3-2.7 1-3.8.6-.5.1-1.4-.2-2.1-1.4.3-.5 1.7-1 2.3-.6.7-1.3 1.2-1.5 2.1-.1-2 .9-3.8 1.5-5.6-1.3.2-.9 1.8-1.9 2.1.3.8.2 1.6-.5 2.1-.5.3-.6.7-.5 1.1.3 1.1-.5 1.8-1.1 1.9-1 .2-1.5 1.1-2.2 1.5-3 1.8-5.6 4.2-8.1 6.5-4.6 4.1-8.8 8.6-13 13.2-.1-1 .4-2.1-.5-3-.4-.4-.4-1.2.1-1.8.3-.4.2-.6-.3-.8-.4-.2-.5-.5-.1-.9.1-.2.5-.5.2-.6-1.1-.4-.4-1.5-.8-2.1-.2-.3-.5-1.5.6-1.8.4-.1.3-.4 0-.5-1.1-.9-.5-2.1-.2-2.9.6-1.9 1.9-3.5 3.4-4.8 1-.9 1.5-2 2.1-3.1.3-.6.2-1-.3-1.5-1.5-1.4-3.3-1.7-5.3-1.6-.3 0-.5.3-.8.5-.9.8-1.3 2-1.9 2.9-1.2 1.7-2.1 3.6-2.5 5.6-.2.8-.3 1.7-.8 2.5-1.4 2.3-3.2 4.3-4.7 6.5-3.1 4.4-6.3 8.6-9.6 12.9-2 2.7-4.1 5.2-6.3 7.7-1 1.1-2.2 2.2-3.3 3.3-.8-1.3-.6-2.6-.4-3.8.2-1.6 0-3.3 1.4-4.5.1-.1.2-.2.2-.5 0-2.7 0-2.7.6-4.2.3-.8.6-1.6 1.5-1.9-.1-1.5 1-2.4 1.6-3.6 1.6-3.3 3.2-6.5 4.8-9.8.4-.8 1.1-1.5 1-2.6 0-.4.7-.8 0-1.3-.5-.4-.8-.7-1.5-.6-.9.1-1.8-.1-2.6-.3-1.1-.2-2.2.1-2.8 1-.7 1.1-1.7 2.1-1.8 3.4-.1 1-.7 1.7-1.1 2.5-.1.2-.6.3-.5.7.3 1.4-.7 2.4-1.1 3.6-.2.5-.6 1.1-.5 1.6.4 1.2-.4 2.1-1 2.7-.8.8-.8 1.6-.9 2.5 0 .7.2 1.3-.8 1.7-.7.3-1.1 1.7-.8 2.3.6 1.3 0 2.2-.5 3.2s-.7 2.3-.6 3.3c.2 1.3.3 2.6.7 3.9.4 1.3 1.1 2.1 2.1 2.7 1.8 1.2 4.7.5 5.9-1.4.3-.5.4-1 .8-1.5 1.8-2.2 3.7-4.3 5.4-6.6 1.6-2.1 3.1-4.3 4.5-6.5 1.3-2 2.6-4 4-5.9 1.4-1.9 2.9-3.8 4.2-5.8.6-1 1.1-1.7 2.4-1.5.1.3.2.8 0 1.2-.7 1.3.5 2.5.1 3.8.9.5.8 1.4.6 2.2-.1.8 0 1.5.1 2.2.2 1.1.6 2.2.5 3.5-.1 1.1.5 2.2.8 3.2.1.4.1.7-.2 1-2.2 2.2-3.7 4.9-5.3 7.6-1.4 2.4-2.8 4.8-3.1 7.6 0 .4-.2.8.1 1.2 1.1 1.2 2.1 2.3 3.4 3.2 1 .7 2.1.8 3.4.4 2.2-.7 3.3-2.8 4.8-4.2.9-.9 1-2.6 1.5-4 .8-2.4 1.3-4.9.7-7.4-.1-.4.3-.3.4-.4.5-.4.5-1 .4-1.6-.2-.6-.8.3-1.1-.6 1.8 0 .9-1.1.9-1.9 0-.3-.1-.6-.3-.9-.6-1.3-.2-2.3.6-3.4 1.6-2.2 3.5-4.1 5.2-6.2 1.9-2.2 3.9-4.2 5.9-6.3 1.9-2 4.2-3.8 6.4-5.5.6-.5 1.2-1.2 2.1-1.4.2 2.2-1.5 4-.7 6.2.8-.2.9-.9 1.2-1.4.4 1.2-.4 2.2-.5 3.3-.6-.1-.9-1-1.5-.5-.5.4-.3.9 0 1.4.2.3.2.6 0 .9-1 1.7-.1 3.9-1.5 5.5 0 0 0 .1.1.2.4 2 0 3.9-.3 5.9-.1.9-.5 1.7.2 2.6.3.5.3 1.4.2 2-.3 1.8 0 3.5.6 5.1.8 2.1 2.3 3.2 4.6 3.1.8 0 1.5-.2 2.3-.1 1.7 0 2.7-1 3.3-2.3.9-2.1 2.3-4 3.3-6.1 1.6-3.2 3.8-6.1 5.7-9.2.7-1.2 1.7-2.4 2.8-3.9-.2.9.5 1.4.1 1.7-1.4 1-1.3 2.7-1.5 4-.5 3.1-1.1 6.2-1.1 9.3 0 1.2.4 2.1 1 2.9.4.6.9.7 1.6.7 1.4 0 2-.9 2.6-1.9 1.3-2 2.3-4.2 3.3-6.4 2.8-5.7 5.4-11.5 9.4-16.6 3.4-4.4 6.7-8.8 11.2-12.1.4-.3.6-.6 1.2-.3-.1 1.4-.5 2.7-1.2 3.9-1.6 2.7-3.6 5.3-4.4 8.4-.1.2-.2.5-.3.7-2.1 2.2-2.8 5.1-3.5 8-.4 1.4-.6 2.8-1.2 4.2-.3.5-.5 1.1-.1 1.8.3.6.5 1.3 1.3 1.5 1.4.3 2.8.5 4.2.4.1 0 .3-.4.4-.6 1.2-1.7 1.9-3.7 2.8-5.5 1.3-2.7 2.5-5.4 4.4-7.9 2.3-3.1 5-5.8 7.3-8.9 2.1-2.9 4.9-4.8 7.9-6.6.8-.5 1.6-.9 2.6-1-.4 1.2-.5 2.3-1.3 3.1-.8.7.1 1.1.3 1.7-.4 0-.8.1-1 .1-1.3.3-1.6 1-.9 2.2.3.5.2.9-.4.8-1.3-.2-1 .5-.7 1.2 0 1.3-.1 2.5-1.1 3.6-.4.5-.8 1.2-.6 2 .1.3.4.5 0 .8-1.1.7.1 2.7-1.6 3.2.6 1.4-.9 2-1.3 3 .1.2.2.2.3.2.3 0 .6-.5.8 0 .2.3-.1.5-.4.7-.5.3-.2 1-.6 1.5-.3.5.7.8.3 1.5-.3.5-1 .2-1 .9s-.4 1.5-.3 2.1c.2.8-.8 1.7-.1 2.1.8.4.5.8.3 1.3-1.2 2.9-1.4 5.4-.5 8.6 0 .2 0 .4-.1.5-1.3 1 0 2.9-1.3 4-.2.2.2.5.3.8.2.6.5 1.7.2 1.8-1.1.5-.8 1.7-1.4 2.3-.8-.2 0-1.2-.9-1.3-.6-.1-1.1.1-1.7.2-1.2.2-.3 1-.4 1.6-.4-.3-.8-.5-1.1-.8-.5-.4-1.1-.4-1.4-.1-.5.5-1.1.3-1.6.4-1.4.6-2.8.5-4.2.8-1.4.4-2.5 1.4-4 1.5-1.2 0-1.7 1.3-2.7 1.5-.6-.3-1.1-.6-1.2.5 0 .4-.1.6-.7.5-2.1-.4-3.9.9-5.9 1.4-.1 0-.2.3-.4.5.7.3 1.8 0 1.8 1.1-.3.3-.4.2-.5 0-.3-.4-.5-.8-1-.4-.5.3-.4.7-.1 1.1.2.3.2.6.4.8.3-.3 1.2.9 1-.5 0-.1.3-.3.4-.3.5-.1.6.7.8.6.5-.1 0-.7.3-.9.1-.1.3-.1.5.1.8.7.8.8 1.2-.1.2-.5.2-.5.5-.1.4.5.6.3.6-.3 0-.4.1-.6.5-.3.3.3.6.5.7-.2 0-.2.1-.3.2-.5.6.4.9-.2 1.3-.4.3-.2.4-.7.9 0 .4.5 0-.8.6-.7.2 0 .4 0 .4.2 0 .8.4.6.9.4.5-.2.7-.7 1.3-.6.7.1 1.1-.2 1.2-1.1.1-.6.6-.6.7.1 0 .1 0 .2.2.3.7.2 1.8-.4 1.8-1.1 0-.9.3-.6.7-.4.2.1.3.5.5 0 .3-.7 1-.3 1.5-.6.1-.1.2.1.2.2-.2.5-.9 0-1.1.7.7 0 1.4.1 1.7-.7.3-.7.9-1.1 1.4-1 .9 0 1.8-.1 2.6-.1.7 0 .7-1.3 1.4-.5.5-.9.5.5 1.1.2 2-1 2.4-.8 3.5 1 .2.3.5.6.7.9.4.5.7 1 .5 1.6-.4 1.7.4 3.3 1.1 4.6.7 1.3 1.7 2.7 2.8 3.9 1 1.2 1.9 2.5 3.3 3.1.2 1.1 1.5.9 2 1.6.5.7 1.2 1 1.9 1.1 2.3.6 4.6.9 6.9.7 2.1-.2 4.1-.9 5.9-2.3 1.2-1 1.2-2.5 1.8-3.7-.3-.2-.7-.3-.9.2-.4.6-.8 1.3-1.3 1.9-2.5 3.1-6.1 4.5-9.9 2.5-1.5-.8-2.8-1.9-4-3.1-3.6-3.6-5.3-8.1-6.8-12.8-.2-.6-.1-1.2-.2-1.9-.1-.6 0-.9.9-1.1 1.2-.3 2.5-.3 3.8-.8 2.1-.8 4.4-.5 6.7-.2.6.1 1.4.8 2-.2.2-.3 1.7 0 1.9.6.6 1.3 1.6 1.2 2.7 1.2.6 0 1.2-.2 1.7.1 2.1 1.3 4.5 2.4 4.9 5.3 0 .3.3.5.6.7.1-.1.3-.3.3-.4 1-2.8 1.1-5.4-2.9-7.4M257.5 39.6s-.1 0 0 0z"/><path class="st0" d="M245.7 56.1c.1-.7.5-1.5-.3-2.1-.2.7.1 1.4.3 2.1z"/><path class="st0" d="M265.6 43.9c-.5-1.2.4-1 .9-1.6.1.9-.3 1.3-.9 1.6m2.4-.8c.3.5.3 1-.2 1.3-.3-.5-.1-.9.2-1.3m-1.9-5.1c-1.7 2.2-3.4 4.5-5 6.7-3.6 4.9-7.6 9.5-11.4 14.2-.5-.2-.4-.5-.6-.8-.2-.4-.4-.6.3-.9.8-.4.5-.5.2-1.6-.2-.6-.3-1.4-.1-2.1.3-1.4.7-2.7 1.5-3.9.3-.4.5-.8.3-1.4.7-.1.8.5 1.1.9 1.7-1.8 2.4-4.3 4.1-6.1-1.9.6-2.6 2.2-3.2 3.8-.2.5-.3.8-.8.9-.2 0-.4.1-.5-.1-.1-.1-.2-.2-.1-.5 1.3-2.9 3.1-5.5 5.6-7.6 0 0 .1 0 .2-.1.9-1.4 1.5-1.9 2.7-2.4.8-.4 1.7-.6 2.5-1.3 1.1-1 3.3-.1 3.8 1.4-.2.5-.4.6-.6.9m-14.6 1.9c-.1.1-.3 0-.3-.1l.3-.6c.2 0 .3.1.3.2-.1.2-.2.4-.3.5m29 7c.4-1.7.7-3.4 2.1-4.7.3-.2.5-1-.3-1.2-.5.6-.9 1.2-1.2 1.9-2.1 3.8-3.9 7.8-6.3 11.6-1.8 3-3.9 5.7-6.3 8.2-.3.3-.5.7-1.2.5-.1-.3-.1-.6-.2-.9-.5-1.3-.2-2.7-.6-4-.3-1-.4-2.5.5-3.5.5-.6.5-1 .4-1.6-.1-.6-.4-1.2-.1-1.8.7-1.4 1.2-3 1.7-4.5.4-1.4 1.5-2.6 1.8-4.1 0-.2.2-.3.3-.4 1.4-.9 2-2.2 2.5-3.6.2-.6.6-1.2.9-1.9.8-2.1 2-4.1 2.3-6.4.1-1.4-.1-1.7-1.3-2-.4-.1-.9-.2-1.3-.3-1.5-.3-1.8-.1-2.4 1.3-.8 1.8-1.9 3.5-3.2 5.3-.3-.9-.5-1.3-1.1-1.6-1.8-.7-3.6-1.2-5.4-1.7-1.1-.3-2.2-.7-3.2.3-.1.1-.5.1-.7.1-1.1.2-2 .7-2.7 1.5-.9.9-1.8 1.7-2.6 2.7-.8.9-1.3 2.1-2.2 2.8-.9.8-.6 2.5-2.2 2.8-.2 0 0 1.2-.5 1.7-.4.5-.4 1.1-.5 1.7.7-.1.8-.6 1-.9.4-.5 1.4-.4 1.4-1.2-.1-1.5 1.2-.3 1.6-.9.2-.3.4-.5.5-.8.6-1.5 1.1-1.9 2.4-2.2.3-.1.5-.4.7-.6.3-.3.5-.8 1.1-.6l-2.4 3.3c-.5.7-.8 1.6-1.4 2.2-.9.9-1.7 1.7-1.6 3.1 0 .3-.2.4-.4.6-1.2.9-1.3 2.2-1.3 3.5 0 .4.2.9-.1 1.1-1 .5-.5 1.9-1.9 2.2 1.6.5 1.6.5 1.3 1.7-.1.6-.2 1-1.1 1-1 0-1.1 1.4-1.9 1.9-.5-1 .6-1.8.2-2.7-.5-.1-.4.6-.8.6-.3-.4 0-1.2-.9-1.2-.2.5-.3 1.2.1 1.5.9.7.4 1.3 0 1.9-.7 1.1-.4 2.3-.3 3.5.2 1 .8 1.4 1.7 1.4 1.2.1 2.5.1 3.7.4.3.1.5.1.7-.1.6-1 1.9-1.6 2.2-2.8.5-1.7 1.4-3 2.2-4.5.8-1.6 1.7-3 3-4.2.5-.5 1-1.1 1.2-1.9.2-.5.4-1.1.8-1.5 2.4-3.1 4.9-6.2 7.4-9.4.2-.3.5-.6.9-.3s.6.8.2 1.1c-.5.4-.7 1.2-1.4 1.4-.9.1-1.1.9-1.5 1.5-.4.7-.4 1.4-.8 2.1-.3.6.1 1.2.6 1.6.6-.4-.3-2.2 1.5-1.5-1 .8-.2 2.6-1.9 3-.2 0-.3.6-.1.9 1 1.2.2 2.5.1 3.8-.1.8-.6.9-1.3.7-.2-.5.3-.6.5-.9.3-.4.3-.8-.2-.9-.4-.2-.5.2-.6.5-.1.4-.3.8-.2 1.3.6 2-.9 3.9-.4 6 .2.8.1 3 .4 3.7.6 1.3 1.5 2.1 3 2.2.6 0 1.2 0 1.7.2 1.8.5 2.8-.6 3.5-1.7 2.5-3.8 5-7.7 7-11.8.5-1 1.3-2 1.5-3 .2-.9 1.2-1.5 1.4-2.5M292 36.8s0 .1 0 0c0 .1 0 .1 0 0z"/><path class="st0" d="M293.2 58.1c-.2-.7-.5-1.3.6-1.1-.2.4 0 .9-.6 1.1m-4.1 9c-.8 1.6-1.3 3.5-1.8 5.3-.6 2.2-1.2 4.5-2.9 6.2-.2.2-.4.6-.7.5-.4-.1-.6-.4-.6-.8 0-.3-.2-.7-.1-.9.6-1.7.5-3.6 1.2-5.3 1.3-3.3 2.5-6.6 4-9.8.2-.4.3-1 .9-1.1.3.4.3.8.2 1.3-.1.2-.2.5 0 .7 1.3 1.3.5 2.4-.2 3.9m.1 7.4c-.2 0-.4-.1-.4-.3.1-.3.2-.6.5-.7.2-.1.4.1.4.3 0 .4-.1.7-.5.7m-1.1 1.6c-.1 0-.2-.1-.1-.3.1-.2.2-.3.3-.4.1-.1.2 0 .2.1.1.3-.1.5-.4.6m32.2-40.2c-3.1-.1-6.1.6-8.8 1.9-4.3 2-8.2 4.8-11.6 8.1-1.8 1.8-3.6 3.6-5.3 5.4-.4.5-1.1.7-1.4.3-.3-.4-.5-.9-1-1.2-.1-.1.1-.3.1-.5.4-1.4.2-2.1-.7-3.3-.1.2-.1.5-.2.7-.4-.4-.3-.9-.3-1.4 0-.9.1-1.9-.1-2.8-.5-2.1.2-4.1.5-6.1 0-.1.3-.1.4-.2-.1-1.5 1.4-2.3 1.6-3.7 0-.4.4-.8.7-1.1.6-.6 1-1.2 1.4-2 1.2-1.9 2.8-3.5 5-4.3.5-.2 1-.6 1.5-.9.4-.3.5-.6.2-1.1-1-1.7-2.6-2.6-4.4-3.1-.2-.1-.9-.2-1.3.3-.6.8-1.2.9-2.1.4-.3-.2-.4-.1-.5.7 0 .2-.1.3-.2.3-1.1.4-2 1.2-2.9 1.9-1.2.9-2.3 1.9-3.1 3.2-.3.4-.6 1 .1 1.5.8-.9 1.5-1.9 3-1.3-.7 1.1-1.6 2.1-2.5 2.9-.5.5-.4.6-.1 1 .2.2.6.3.3.7-.2.2-.7.4-.8.2-.4-1-.7-.5-1 0-1 1.8-2.3 3.4-3.1 5.3-.3.7-1 1.2-.9 2.1 1.2.1 1.2-1.2 1.8-1.8.2-.2.2-.6.4-.8.4-.5.6-1.1 1.3-1.2 0-.9.4-1.5 1.3-2 .1 1-.2 1.7-1.2 2.1 0 .6-.1 1.3-.1 2 .8-.4 1.3-.9 1.7-1.5-.4 1.8-.2 3.5-.2 5.2 0 .7-.6 1.2-.3 1.8.8 1.7.3 3.5.4 5.2 0 1.6-.1 3.2.1 4.8.1.5.3 1.2-.2 1.4-.7.3-.4.7-.3 1.1.2.6.5 1.2.7 1.7.2.5.2.9 0 1.4-1.2 2.1-2.3 4.2-3.3 6.3-1.9 3.9-3.4 8-4.5 12.2-.4 1.7 0 2.5 1.5 3.2.8.4 1.7.5 2.2 1.3.2.3.7.3 1.1.1.9-.7 1.9-1.3 2.5-2.4 1.2-2.3 2-4.7 3.3-7 .7.5.9-.1 1-.5.1-.4 0-.8-.6-.5.2-.7.8-1.5.7-2.1-.2-2.1 1.1-3.8 1-5.9 0-1 0-2.3 1.5-2.8.3-.1.6-.7.2-1.1-.1 0-.1 0-.2.1-.4.2-.5.8-1 .6-.1-.1-.2-.4-.2-.7-.1-.7.2-.8.8-.5.3.1.3-.2.3-.3-.1-.9.4-1.9-.6-2.5-.1-.6.4-1 .7-1.5.3-.7-.9-.1-.7-.9.2-.8.4-1.6 1-2.2 4.1-4.8 8.6-9.1 14.2-12.1 4-2.2 8.2-4.1 13-3 .4.1.8 0 .9-.5-.8-.6-1.8-.6-2.7-.6M180.3 17.3c-.1.6 0 1.3-.7 1.9-.1-.9.3-1.4.7-1.9m-2.4 10.4c-.1-.6 0-.9.5-1.1.1 0 .2.1.2.2 0 .4-.2.6-.7.9m1-8.6c1.2.6.4 2.2 1.4 3 .1 0 0 .4-.1.5-.8.9-.9 2.1-1.2 3.3-.3-.5-.4-1.2-1.1-.6-.4.3-.5.8-.4 1.2.2 1.3-.2 2.4-1.4 3.2.6.2 1-.3 1.4 0 .5.3.7.4.8 0 .2-.7.2-1.4.5-2l4.2-9.6c.5-1 .9-2.1 1.7-2.9.2-.2.3-.5.4-.8.6-2 1.4-4 2-6 .3-1 1-1.6 2-1.7 1.9-.2 3.7-1.1 5.6-1.2 1.2-.1 2.3-.7 3.6-.7h.1c-.4-.3-.7-1.1-1.1-.9-.9.6-1.8.1-2.7.3-2.1.6-4.3 1-6.4 1.5-.3.1-.5.1-.6-.1-1.2-1.7-2.9-1.4-4.6-1.3-.9 0-1.2.3-1 1 .2 1.1-.6 1.6-1.2 1.9-2.2.9-4.7.9-6.9 1.8-.2.1-.6-.1-.7.3-.1.4.2.6.5.6.4 0 .8.6 1.3-.1.4-.5 1.7.4 1.9-.9 1 1.2 2.1-.4 3.1 0 .2.1.5-.1.7.4-1.1 1.2-1.3 2.8-1.8 4.3-.2.6-.3 1.3-.6 1.9-.4.8-1.7 1.1-.9 2.4 0 .1-.3.3-.5.5-.3.5-.7.9-.4 1.5 1.9-.5 1.9-.5 1.9 1.3.6-.4-.2-1.5.5-2.1M133.9 122.7c-.3 0-.6 0-.6-.2 0-.6.6.2.8-.3.1-.2.2.2.3.2 0 .4-.3.3-.5.3m-2.3-.3c-.1-.1-.3-.2-.5-.3.1-.1.3-.2.4-.3.3-.2.4 0 .4.3.1.2.1.4-.3.3m-28.8-9.8c1.1 1.6 1.6 3.4 2.6 5-1.7-1.2-2.9-2.7-2.6-5m36.5 5.2c-.9-.1-1.5 0-2.2.3-1.2.4-2.4.9-3.5 1.4-1.4.6-2.8 1.2-4.1 1.8-1.2.5-2.6.6-3.8.8-1.1.2-2.2 1.1-3.5.5-.1 0-.2 0-.4.1-1 .4-2 .2-3 0-.6-.1-1.3-.4-1.9-.2-1.5.5-2.7-.3-4-.8-1.4-.5-2.4-1.3-3.3-2.4-.4-.4-.8-.8-1.1-1.3-.3-.4-.8-.7-.2-1.2.2-.2 0-.5-.3-.5-.4 0-.6.2-.9-.2-1.9-2.3-2.3-3.2-2.5-6.1 0-.3-.1-.5-.5-.4-.3.1-.5-.8-.9-.2-.1.6.2 1.2 0 1.8-.3 0-.4-.2-.5-.3-.2-.3-.2-1-.9-.8-.5.2-.4.7-.4 1.1.1 1.9.9 3.5 1.7 5.1.3.7.7 1.3 1.3 1.8 2.5 1.7 5 3.4 7.6 4.9 1.1.7 2.6.8 3.5 1.5 1.2.8 2.2.6 3.3.7.6.1 1.2-.1 1.7.5.2.3.6.4 1 .3.4-.1-.2-.6.3-.7.4 0 .5.4.8.5.2.1.4.2.6-.2.2-.6.5-.7.6-.4.4.7 1 .3 1.5.4.5 0 1.4-.1 1.4-.2.2-.9.8 0 .9-.2.3-.3.4-.8.5-1.2.3.3 0 .9.5.9.8 0 1.4-.9 1.5-1.9.5.1 1.1 0 1.4.3.8.7 1.7.5 2.5.2 1.2-.4 2.3-1.1 3.6-1.1.2 0 .5-.5.8-.8-1.2-.1-1.2-.1-1.9-1 .7 0 1.5.2 2.1-.3v.1h.1c1-.8.2-1.8.6-2.6M114.6 25c1.3.3 2.6.3 4 .2 3.3-.3 6.3-1.6 9.5-2 .6-.1 1.1-.8 1.9-.6.7.1 1-.8 1.9-.6.6.2 1.3-.9 1.6-.7.8.6 1.4-.1 1.9-.2 2.1-.5 4.2-1.3 6.3-1.8 1.3-.3 2.6-.7 3.9-1.3.6-.3.9-.6.8-1.1-.2-.8-.8-.3-1.3-.4-.9-.1-1.4.7-2.2.9-4.1.8-8.1 2.2-12.1 3.1-3.5.8-7 1.6-10.5 2.2-1.4.2-2.9.4-4.3.3-2.5-.2-2.8-.8-1.7-3.1.6-1.1 1.3-2.2 1.7-3.7-1.9.8-3.5 2.4-4 3.8-.9 2.1.4 4.6 2.6 5M151.6 114c-.3 0-.4-.3-.5-.5-.1-.2.1-.3.2-.4.4-.1.4.2.5.4 0 .3-.1.5-.2.5m-1.9 2.1c-.4-.3-.4-.7-.1-1.1.6.4.5.7.1 1.1m13.9-9.5c-.3.2-.4.1-.6 0-.9 0-1.8-.2-2.6.3-.6.3-.9.7-1.4 1.1-.4.4-1.3.1-1.9.6-.7.6-1.6.9-2.4 1.4-.7.4-1.3.8-2.2 1.1-1.4.5-2.8 1.4-4.3 1.9.1.8.6 1.4.4 2.1-.2.6.3.9.7 1.2.1-.2.3-.3.5-.3.2.3.2.7.6.6.3-.1.7-.3.8-.6.5-.9.5-.9 1.4-.7.1-.7-.2-1.5.2-2.2 1.3.6 1.3.6 2.7.4-.5-.5-.6-1.1-.5-1.7l.4-1.4c.5-.1.9.1 1 .5.1.8.2 1.7-.5 2.4.5-.1 1.1.1 1.4-.4.2-.3 0-.8 0-1.2.6.1 0 1 .7.8.3-.1.6-.4.3-.9-.4-.6-.1-1 .5-1 .5 0 .8-.1.8-.7 0-.4.2-.5.6-.5 1 .1 1.7-.7 2.5-1.1.5-.2.7-1 1.6-.5.4.2.6-.4.7-.8h-.5c.2-.8-.3-.7-.9-.4M165 107.2c.1 0 .1 0 0 0 .1-.1 0 0 0 0M243 1.8c.6 0 1.3-.1 1.9-.2.6-.1 1 .9 1.7.3h.2c.5 0 1 0 1.5.3 1.1.7 2.3 1 3.5 1.3 1.8.4 3.4 1.2 5 2.2 1.6 1 2 2.1 1.1 3.8-.2.4-.5.7-.7 1.1-.8 1.1-1.8 2-2.9 2.9 1.4.2 2.7-.2 3.9-.9 3.1-1.8 3.9-4.5.8-7-2.3-1.9-4.7-3.2-7.5-4-2.7-.8-5.6-.8-8.3-1.3-.4-.1-.7.2-.7.7 0 .4 0 .8.5.8M188.8 94.6c-.1-.5-.4-.9-1.1-.6-1.2.6-2.5 1.1-3.8 1.6-.5.2-.8.8-1.5.8-1.3.1-.1.8-.2 1.1-.2.3-.6.5-1.2.4-1.3-.3-2.5.5-3.8.8-.5.1-.9.4-1 1.2-.1.9-.8 1.1-1.9.8h-.1.1c-.3-.2-.7-.5-1-.1-.3.4.1.7.4.8.9.2 1.8 2 2.9.1 0-.1.3 0 .5.1.7.1 1.1-.2 1.3-.9.2-.6.5-1.1.8-1.7.1-.4.4-.5.7-.5.8.2 1.8.2 2.3 1.3.3-.5.6-.8.7-1.1.3-.9.8-.9 1.5-.4.1.1.5-.2.7 0 1 1.2.8-.5 1.3-.6.5-.1.5-.7-.1-1-.6-.3 0-.4.1-.6.2-.2.5-.2.5.1 0 .8 1 .9 1.2 1.6.1-.8 1.4-.9 1.1-1.7-.3-.4-.3-1-.4-1.5M147.1 17.4c.8-.4 1.9.2 2.4-.4.8-.7 1.7-.6 2.5-.8.9-.2 1.6-1.3 2.6-.6 2.4-.8 4.8-1.7 7.3-2.2 2.3-.5 4.6-1.4 7-2 .6-.2 1.1-.1 1.3-.9-.7 0-1.3-.3-1.7-.1-3.1 1.3-6.5 1.7-9.7 2.6-2 .6-4 1.3-6.1 1.7-1.2.2-2.3.5-3.4.7-.9.1-1.4.9-2.3 1.2-.2.1-.2.4-.1.7 0 0 .1.1.2.1M195.1 93.8c.1-.5-.5-1.2.3-1.6.4.6-.2 1.1-.3 1.6m-2.5-.2c1.3 0 1.9.9 2.7.8-1.1 1-1.6-.1-2.7-.8m2 0c-.6-.3-1-.6-1.4-.8.8-.6 1.3-.5 1.4.8m3.3-3.8c-3 1.4-5.9 2.6-8.9 3.7.4 1.1.8 2.1 1.1 3 .8-.8 2.3-.1 2.5-1.5.5.3.1.9.2.8.6-.2 1.2-.4 1.9-.5.5-.1.3-.7.6-1 .3.1.6.4 1.1.1-.5-.3-.9-.5-1.3-.7 1 0 2-.7 3.1 0 .2.1.6-.2.1-.5-.2-.1-.4-.3-.2-.5.2-.1.4-.1.7-.1-1-.6-1.1-1.6-.9-2.8M209 3.3c.5 0 .5-.4.5-.9-.1-.4-.5-.8-.8-.6-1 .8-2.2.4-3.3.6-1.3.2-2.5.9-3.9.7-.5-.1-1.3.2-1.9.3-.7.1-1.4.4-1.1 1.4 3.4 0 6.9-1.4 10.5-1.5M128.4 32.8c-.5-.2-1.1-.2-1.8-.2-.1 0-.3 0-.4.1-.5 1-1.6 1.6-1.4 3.1.1.8.6 1.1 1 1.4.6.3.9-.1 1.3-.5.5-.6 1.1-1.2 1.6-1.8.6-.6.4-1.8-.3-2.1M210.7 3.1c.5 0 1-.1 1.5-.2 1.8-.3 3.6-.6 5.4-.7 1.2-.1 2.7 0 3.6-1.3 0-.1-.1-.1-.1-.1-.5-.1-.9.1-1.2.3-.3.1-.6.3-1 .2-2.9-.4-5.6-.3-8.3.7-.3.1-.9-.3-.8.4.1.4.5.7.9.7M225.2 1.5c2.5-.1 5-.2 7.4-.3.3 0 .7.2.7-.3 0-.4 0-.8-.5-.9-.3-.1-.6 0-.9 0-1.1-.2-2.2.5-3.3.4-1.2-.1-2.3-.1-3.4-.1-.6.1-1.2 0-1.2.8.2.9.8.5 1.2.4"/><path class="st0" d="M147.8 114.6c0-.7-.5-1.1-1.3-.7-.6.3-1.1.5-1.7.8-.2.1-.5.2-.5.5s.2.5.4.5c1 0 1.3.8 1.6 1.5.1.1.3.2.4.2.3 0 .4-.5.4-.5.9.5 1.4-.3 2.1-.6-.9-.1-1.5-.5-1.4-1.7M176.2 24.3h-.3c-.5-.4 0-.7 0-1.2.4.5.5.9.3 1.2m1.4-3c-1.3-.7-2-.6-2.4.7-.4 1.2-.9 2.4-1.5 3.8 1.2-.3 2.1-.7 2.9-1.2.2-.2.5-.6.4-.7-1-1.4.4-1.8 1.1-2.4-.2-.1-.4-.1-.5-.2M170.5 104.7c0-.4-.2-.7-.1-.9.3-.9.1-1.2-.9-1.1-1.5.1-2.6.9-3.8 1.6-.4.2-1.5.2-1.4 1.3.7 0 1.5.4 1.9-.7.4-1.2.7-.2 1.1 0h.8c.6-.7 1.5-.6 2.4-.2M167.2 105zM285.2 44.6c.8.1 1-.6 1.8-.5-.4-1-.1-2-1.1-2.6-.4 1 .3 2.2-.7 3.1M292 36.8s0 .1 0 0c0 .1 0 .1 0 0 0 .1 0 .1 0 0M291.6 41.2c.6-1.3.8-2.6.9-3.9 0-.3-.3-.3-.5-.3.1 1.4-.7 2.7-.4 4.2M240.3 1.4c.6.1 1.1-.3 1-.8-.1-.6-.8-.3-1.3-.4-.2.3-1.1-.2-.9.7.1.8.7.4 1.2.5M236.7.9c-1.3-1.1-2-1-3.2.5 1.2-.5 2.2.1 3.2-.5M223.8 1.6c-.2-.8-.5-1.5-1.5-1.2-.4.1-.6.5-.4.9.4 1 1.2.4 1.9.3M139.8 118.8c-.1.7.3 1.8-1 1.6.8.9.8.9 2.7.3-1-.4-1.3-1.2-1.7-1.9M246.4 53.4c.4-1 .5-2.1 1-3.1-1.4 1.4-1.5 1.8-1 3.1M172.5 101.4c-.4 0-1-.2-1.1.3-.1.5.4.5.8.5.4 1.1.4 1.1 2 .7-.6-.5-.7-1.4-1.7-1.5M247.9 46.1c.2 1.3-1 2.1-.3 3.5.9-2.6.9-2.6.3-3.5M144.8 117.2c-.9 0-1.8-.2-2.8.1.4-.8 1.2-.7 1.8-.9-.4-.5-.8-.9-1.2-.6-.4.4-1.4.2-1.4 1.1 0 .5-.2.5-.6.4-.4-.1-.8-.3-1.2.2 1 1.3 2.7.1 3.8 1.1.2.2 1-.8 1.5-1.1 0 .6.4 1 1 1.8 0-1-.3-1.8.7-1.7 0 .2-.1.5 0 .7 0 .3.3.4.5.3.3-.2.4-.4.1-.7-.1-.1-.3-.2-.4-.3h.1c-.1-.1-.3-.2-.4-.2-.5-.5-.9-.4-1.5-.2M176.8 31.1c-.2-.1-.4 0-.5.2-.3.7.2 1 .6 1.4 0 0 .1 0 .4.1.1-.8.3-1.4-.5-1.7M2.2 78.9c-.5-.1-.2-.8-.7-.9 0 1.4 0 1.4.9 2.7 0-.6.1-1.2-.2-1.8"/><path class="st0" d="M166.9 106.9c.2-.6.9-1.1.3-1.9-.6.6-.6.6-.3 1.9M27.8 46.8c0 .1.2.2.3.2.7 0 .9-.6 1-1.1v-.5c-.1.1-.3.1-.4.2-.3.4-1.1.4-.9 1.2M175.7 99.6c0-.1-.2-.2-.2-.2-.7 0-1.1.4-1.1 1.2v.1h.3c.5-.1.8-.5 1-1.1M165.3 106.1c-.1.1-.1.1-.1.2 0 .3 0 .6-.1.8.4-.1.9.5 1.1 0 .3-.7-.4-.9-.9-1M165.1 107.2c0-.1 0-.1 0 0 0-.1 0-.1 0 0 0-.1 0 0 0 0M168 104.9s-.1 0 0 0c.1.9.1.9.9.7.2 0 .4.4.6 0 0-.1-.2-.3-.3-.5-.3-.4-.8-.3-1.2-.2M236.7 1s0-.1 0 0c0-.1 0-.1 0 0 0-.1 0-.1 0 0 0-.1 0-.1 0 0 0-.1 0-.1 0 0zM238.1 1.2c.1-.1.1-.4 0-.5-.3-.3-.7-.3-1-.1-.1.1-.2.3-.3.4.1 0 .2.1.3.1.3.2.6.6 1 .1M172.3 30.8c-.6 0-.8.7-.7 1.3.5.3.6-1.1 1.2-.1.1-.6 0-1.2-.5-1.2M174.8 27.2c-.1 0-.1.1 0 0-.1.1-.1.1 0 0-.1.1-.1.1 0 0 0 .1 0 0 0 0"/><path class="st0" d="M175 28.3c.4-.2.4-.6.5-.9.1-.2.1-.5-.2-.6-.4-.2-.3.4-.6.4.1.4-.2.9.3 1.1M255.5 97.5c-.1 0-.1.1 0 0-.1 0-.1.1 0 0-.1.1 0 .1 0 0 0 .1 0 0 0 0M256.3 95.7c-.8.5-1 1.1-.8 1.8.7-.4.8-1 .8-1.8M285.8 41c.3-.1.4-.3.4-.6-.1-.1-.2-.3-.3-.3-.5 0-.4.4-.4.6-.1.3.1.3.3.3M287.1 40c0-.1-.3 0-.3 0-.2.3-.2.6-.1.9 0 .1.1.2.2.4.1-.2.2-.2.2-.3 0-.3.3-.7 0-1M285.6 47.7c0 .3.1.5.4.3.2-.1.3-.2.3-.4-.1-.2-.3-.4-.5-.4-.4 0-.2.3-.2.5M171.6 103.3c-.2.1-.4.2-.4.5s.2.3.4.2c.3 0 .4-.2.4-.5-.1-.1-.1-.3-.4-.2M287.3 48.4c0-.8 0-1.2-.3-1.7-.1.6 0 1 .3 1.7M174.4 26.7c-.5.2-.4.7-.3 1.2.2-.3.4-.5.6-.7-.1-.1-.1-.5-.3-.5M249.9 45.2c0-.1-.3-.2-.4-.2-.6 0-.6.4-.4 1.1.4-.2.8-.4.8-.9M286.8 30.1c.3 0 .4-.1.5-.4.1-.2-.1-.3-.3-.3-.2 0-.5.1-.5.3-.1.3.1.4.3.4M232.2 42.2c-.3.1-.8-.3-.8.3 0 .1 0 .3.1.3.6.2.3-.5.6-.6.1 0 .2 0 .3-.1-.1 0-.1 0-.2.1M173.4 28.3c.2 0 .3-.2.2-.4-.1-.2-.3-.4-.6-.3-.2 0-.2.3-.1.4.2.1.3.3.5.3M183.8 99.1c-.2 0-.3.1-.3.3 0 .2.2.2.4.2s.3-.1.5-.1c-.1-.2-.3-.3-.6-.4M170.8 105.5l-.3.3c-.1.3.1.3.3.3.2 0 .5 0 .5-.4-.1-.1-.3-.2-.5-.2M160.9 110.3c.1.1.2.1.3 0 .2-.2.7-.1.5-.4-.2-.2-.7 0-.8.4M153.7 114.7c-.2 0-.3.2-.3.4s.2.2.4.2.3-.1.3-.2c0-.3-.2-.5-.4-.4M141.2 119.2c-.4-.7-.9-.4-1.4-.4.4.2.8.8 1.4.4M247 47.6c0-.3-.1-.5-.3-.6-.2-.1-.3.2-.4.3-.2.3.1.5.3.6.2.1.3-.1.4-.3M257.5 39.6c-.1 0 0 0 0 0M258.5 40.2c.5-.4.9-.9 1.3-1.3.3-.2.2-.5 0-.6-.2-.3-.6-.4-.7 0-.3.7-.9 1.1-1.6 1.3.2 1.1.3 1.1 1 .6M250.5 53.5c.2-.9.9-1.5 1.1-2.4-.8.5-1.6 1.2-1.1 2.4M256.6 41.5c-.2.2-.6.1-.6.6 0 .1.1.2.2.2.4.1.7-.1.9-.4.2-.3.3-.5 0-1-.2.2-.4.4-.5.6"/></svg>