<?xml version="1.0" encoding="utf-8"?>
<!-- Generator: Adobe Illustrator 25.0.0, SVG Export Plug-In . SVG Version: 6.00 Build 0)  -->
<svg version="1.1" id="Layer_1" xmlns="http://www.w3.org/2000/svg" xmlns:xlink="http://www.w3.org/1999/xlink" x="0px" y="0px"
	 viewBox="0 0 320 60" style="enable-background:new 0 0 320 60;" xml:space="preserve">
<g>
	<path style="fill:#FFFFFF;" d="M55.3,22.3c-1.9-6.7-7.4-12.1-14.5-12.1c-9.7,0-15.2,9.5-15.2,19c0,10.2,6,18.2,15.3,18.2
		c7.3,0,13-5.7,14.3-11.8h0.6l-0.2,11.6h-0.6c-0.8-1.2-2-2.4-2.3-2.4c-0.3,0-4.6,3.5-12.4,3.5c-13.1,0-21.3-8.1-21.3-19.4
		c0-2.5,0.5-6.6,3.1-10.6c3-4.8,8.6-9,17.9-9C48.6,9.3,52.6,13,53,13c0.3,0,1.6-1.3,2.4-2.5H56v11.8L55.3,22.3"/>
	<path style="fill:#FFFFFF;" d="M74.8,48v-0.6c1.9-0.1,3.3-0.3,3.3-1.4c0-4.8,0-8.3,0-13.2c0-4.1-1-7.1-4.9-7.1
		c-2.5,0-4.3,1-5.3,2.5c-0.2,0.2-0.5,1.1-0.5,1.6c0,6.3,0,9.4,0,16.2c0,1.3,1.5,1.3,3,1.5V48H59.9v-0.5c1.6-0.2,3.2-0.4,3.2-1.7
		c0-6.6,0-23.4,0-29.9c0-0.5-0.1-0.7-0.5-1.1c-0.6-0.5-1.6-0.9-2.5-1.5V13L67,9.7h0.4L67.3,28l0.1,0.1c1-1.9,4.2-5.5,9-5.5
		c4.6,0,6.1,3.4,6.1,8.1c0,5.9,0,11.1,0,15.6c0,1.1,1.9,1.2,3.1,1.4V48H74.8"/>
	<path style="fill:#FFFFFF;" d="M98,48.2c-7.2,0-11.9-6.1-11.9-13.4c0-6,4.4-12.2,11.2-12.2c5.5,0,9.8,2.8,10.2,8.7H90.6
		c0,0.5-0.1,1.3-0.1,2.1c0,6,3.3,11.2,9.8,11.2c3.5,0,6.4-2.1,7.2-4.6l0.4,0.1C107.4,43.2,103.8,48.2,98,48.2 M97.3,23.5
		c-4,0-6.4,5.3-6.6,7.1c3.2,0,4.9-0.1,8.2-0.1c1.1,0,2-0.1,2.7-0.3c0.5-0.5,0.7-0.9,0.7-1.9C102.3,25.6,100.4,23.5,97.3,23.5z"/>
	<path style="fill:#FFFFFF;" d="M117.6,48.2c-3.1,0-5.9-0.7-8.2-1.7v-7h0.4c1.2,3.4,3.1,8,7.7,8c3.4,0,5.5-1.9,5.5-5.9
		c0-2.2-1.5-3.7-3.8-4.2c-1.9-0.4-3.7-0.8-5.1-1.3c-2.6-0.9-4.5-3.3-4.5-6.4c0-4.3,3.9-7.2,8.5-7.2c3,0,5.1,0.6,7.1,1.4l0.6,6.5
		l-0.4,0.1c-2-4.3-3.8-7.3-7.7-7.3c-2.4,0-4.8,1.7-4.8,4.9c0,2.6,1.7,3.5,3.9,4.1c1.5,0.4,3.6,0.8,4.9,1.1c3.2,0.7,5.7,3.4,5.7,7
		C127.5,45.8,122.8,48.2,117.6,48.2"/>
	<path style="fill:#FFFFFF;" d="M143.4,48v-0.6c1.9-0.1,3.3-0.3,3.3-1.4c0-4.8,0-8.3,0-13.2c0-4.1-1-7.1-4.9-7.1
		c-2.5,0-4.3,1-5.3,2.5c-0.2,0.2-0.5,1.1-0.5,1.6c0,6.3,0,9.4,0,16.2c0,1.3,1.5,1.3,3,1.5V48h-10.5v-0.5c1.6-0.2,3.2-0.4,3.2-1.7
		c0-6.6,0-23.4,0-29.9c0-0.5-0.1-0.7-0.5-1.1c-0.6-0.5-1.6-0.9-2.5-1.5V13l7.1-3.2h0.4L135.9,28l0.1,0.1c1-1.9,4.2-5.5,9-5.5
		c4.6,0,6.1,3.4,6.1,8.1c0,5.9,0,11.1,0,15.6c0,1.1,1.9,1.2,3.1,1.4V48H143.4"/>
	<path style="fill:#FFFFFF;" d="M155.7,48v-0.5c1.6-0.2,3.6-0.4,3.6-1.7c0-6.6,0-11.5,0-18.1c0-0.5-0.1-1-0.5-1.3
		c-0.6-0.4-1.5-0.9-2.5-1.2v-0.3l7.1-2.3h0.3v23.6c0.3,1.4,2,1.2,3.4,1.4V48H155.7 M161.2,17.1c-1.5,0-2.8-1.3-2.8-2.8
		c0-1.6,1.3-2.8,2.8-2.8c1.6,0,2.8,1.2,2.8,2.8C164.1,15.8,162.8,17.1,161.2,17.1z"/>
	<path style="fill:#FFFFFF;" d="M184.2,28c-2.3,0-2.2-1.9-4.2-1.9c-1.7,0-3.3,2.6-4.1,4.8v15.2c0.5,1.3,3.1,1.2,4.5,1.4V48h-11.8
		v-0.5c1.6-0.2,3-0.6,3-1.7c0-6.6,0-11.2,0-17.8c0-0.5-0.1-0.8-0.5-1.1c-0.6-0.4-1.5-0.9-2.4-1.3v-0.3l6.9-2.7h0.3l-0.1,7.3h0.1
		c0.7-1.7,3-7.3,7.4-7.3c1.7,0,3.2,1.2,3.2,2.8C186.4,26.9,185.4,28,184.2,28"/>
	<path style="fill:#FFFFFF;" d="M199.4,48.2c-7.2,0-11.9-6.1-11.9-13.4c0-6,4.4-12.2,11.2-12.2c5.5,0,9.8,2.8,10.2,8.7H192
		c0,0.5-0.1,1.3-0.1,2.1c0,6,3.3,11.2,9.8,11.2c3.5,0,6.4-2.1,7.2-4.6l0.4,0.1C208.8,43.2,205.2,48.2,199.4,48.2 M198.7,23.5
		c-4,0-6.4,5.3-6.6,7.1c3.2,0,4.9-0.1,8.2-0.1c1.1,0,2-0.1,2.7-0.3c0.5-0.5,0.7-0.9,0.7-1.9C203.7,25.6,201.7,23.5,198.7,23.5z"/>
	<path style="fill:#FFFFFF;" d="M247.7,48h-33.8v-0.5c1.7-0.3,3.7-0.9,4.6-2c0.7-0.8,0.9-3.4,1-5.7c0.1-2,0.1-7.1,0.1-10.9
		c0-4.2,0-6,0-10.2c0-2.5,0-5.1-0.8-6.1c-1-1.2-2.7-1.8-4.6-2v-0.5H231v0.5c-1.9,0.3-5.4,0.8-5.5,4.6c-0.2,4.9-0.2,7.7-0.2,13
		c0,4.8,0,7.3,0.1,12.1c0.1,2.3,0.1,4.5,0.7,5.5c0.5,0.7,3.6,1.4,6.4,1.4c1.2,0,5.3-0.1,7.7-0.8c5.6-1.5,7.2-5.2,8.9-9.4l0.5,0.2
		L247.7,48"/>
	<path style="fill:#FFFFFF;" d="M250.3,48v-0.5c1.6-0.2,3.6-0.4,3.6-1.7c0-6.6,0-11.5,0-18.1c0-0.5-0.1-1-0.5-1.3
		c-0.6-0.4-1.5-0.9-2.5-1.2v-0.3l7.1-2.3h0.3v23.6c0.3,1.4,2,1.2,3.4,1.4V48H250.3 M255.9,17.1c-1.5,0-2.8-1.3-2.8-2.8
		c0-1.6,1.3-2.8,2.8-2.8c1.6,0,2.8,1.2,2.8,2.8C258.7,15.8,257.4,17.1,255.9,17.1z"/>
	<path style="fill:#FFFFFF;" d="M281.6,15c-2.5,0-3.4-3.2-5-3.8c-0.8,0-3.5,0.5-3.7,4.9c-0.2,2.8-0.2,4.5-0.2,7h6.2l-0.7,2.3h-5.6
		V46c0.2,1.2,2.4,1.3,4.5,1.5V48h-13.4v-0.5c1.6-0.2,4.5-0.6,4.5-1.7c0-6.6,0-13.8,0-20.4h-3.8l0.6-2.3h3.3c0-3,0.1-6.1,0.8-7.6
		c1.6-3.2,5.7-5.7,10.3-5.7c2.1,0,4.3,0.7,4.3,2.7C283.8,13.7,282.9,15,281.6,15"/>
	<path style="fill:#FFFFFF;" d="M291,48.2c-7.2,0-11.9-6.1-11.9-13.4c0-6,4.4-12.2,11.2-12.2c5.5,0,9.8,2.8,10.2,8.7h-16.9
		c0,0.5-0.1,1.3-0.1,2.1c0,6,3.3,11.2,9.8,11.2c3.5,0,6.4-2.1,7.2-4.6l0.4,0.1C300.4,43.2,296.8,48.2,291,48.2 M290.3,23.5
		c-4,0-6.4,5.3-6.6,7.1c3.2,0,4.9-0.1,8.2-0.1c1.1,0,2-0.1,2.7-0.3c0.5-0.5,0.7-0.9,0.7-1.9C295.2,25.6,293.3,23.5,290.3,23.5z"/>
</g>
</svg>
