<?xml version="1.0" encoding="utf-8"?>
<!-- Generator: Adobe Illustrator 25.0.0, SVG Export Plug-In . SVG Version: 6.00 Build 0)  -->
<svg version="1.1" id="Layer_1" xmlns="http://www.w3.org/2000/svg" xmlns:xlink="http://www.w3.org/1999/xlink" x="0px" y="0px"
	 viewBox="0 0 320 60" style="enable-background:new 0 0 320 60;" xml:space="preserve">
<path style="fill:#b59150;" d="M59.1,17.7c7.9,0,14.5,6,14.5,14.7c0,8.7-6.6,14.8-14.5,14.8c-7.5,0-14.6-6.5-14.6-14.8
	S51.6,17.7,59.1,17.7z M67.1,23.1c-2-2.6-4.8-4.1-7.9-4.1c-3.3,0-6.3,1.5-8.3,4.3c-1.9,2.6-2.6,6-2.6,9.2c0,3.4,0.8,6.8,2.8,9.5
	c2,2.6,4.9,4,8.1,4c3.2,0,6.1-1.7,8.1-4.3c2-2.7,2.6-5.8,2.6-9.1C69.8,28.9,69.2,25.8,67.1,23.1z"/>
<path style="fill:#b59150;" d="M76.6,23.4c0-2.9,0.2-3.8-2.7-3.8c-0.4,0-1,0-1-0.5c0-0.5,0.3-0.7,0.8-0.7c1.3,0,2.8,0.2,4.1,0.2
	c2.4,0,4.8-0.2,7.1-0.2c4,0,7.9,2.1,7.9,6.9c0,4.1-3.1,6.5-6.6,7c1.3,0.2,2,1.8,2.6,3l3.4,7.1c0.8,1.6,1.4,3.3,3.2,3.3
	c0.3,0,1.1,0,1.1,0.6c0,0.5-0.4,0.5-0.8,0.5h-4.4c-0.8,0-1.1-0.9-1.4-1.5l-4.1-8.8c-1.5-3.2-1.5-3.5-4.6-3.5c-0.3,0-0.7,0-0.9,0.2
	c-0.3,0.3-0.2,1.4-0.2,1.8v7c0,2.9-0.2,3.7,2.7,3.8c0.4,0,1.1,0,1.1,0.5c0,0.5-0.3,0.6-0.7,0.6c-1.6,0-3.1-0.2-4.7-0.2
	c-1.6,0-3.2,0.2-4.8,0.2c-0.4,0-0.7-0.1-0.7-0.6c0-0.6,0.7-0.5,1-0.5c2.9,0,2.7-0.9,2.7-3.8V23.4z M79.9,31.1c0,1.1,1.4,0.8,2.1,0.8
	c1.9,0,3.6-0.2,5.2-1.5c1.4-1.1,1.9-2.8,1.9-4.6c0-4.2-2.3-6.4-6-6.4c-3.2,0-3.3,0.5-3.3,3.6V31.1z"/>
<path style="fill:#b59150;" d="M120.5,23.4c0-2.9,0.2-3.8-2.8-3.8c-0.4,0-1,0-1-0.5c0-0.5,0.3-0.7,0.8-0.7c1.3,0,2.4,0.2,3.7,0.2
	s2.4-0.2,3.6-0.2c0.4,0,0.7,0.2,0.7,0.7c0,0.5-0.7,0.5-1.1,0.5c-2.9,0-2.7,1-2.7,3.8v23c0,0.2,0.1,0.9-0.3,0.9c-0.5,0-0.8-0.7-1-1.1
	l-17.6-24.7v20.5c0,2.8-0.2,3.8,2.7,3.8c0.4,0,1-0.1,1,0.5c0,0.5-0.3,0.7-0.7,0.7c-1.3,0-2.4-0.2-3.7-0.2c-1.2,0-2.4,0.2-3.6,0.2
	c-0.4,0-0.8-0.2-0.8-0.7c0-0.6,0.7-0.5,1.1-0.5c2.9,0,2.7-1,2.7-3.8V23.4c0-2.9,0.2-3.8-2.7-3.8c-0.4,0-1,0-1-0.5
	c0-0.7,0.5-0.7,1-0.7h5.2c0.9,0.2,1.2,0.9,1.7,1.6l14.8,20.8V23.4z"/>
<path style="fill:#b59150;" d="M163.1,41.7c-0.2,0.7-0.6,1.6-0.6,2.4c0,1.5,1.8,1.6,2.7,1.6c0.4,0,1.1,0,1.1,0.6
	c0,0.5-0.6,0.5-1,0.5c-1.1,0-2.3-0.2-3.4-0.2c-1.1,0-2.3,0.2-3.4,0.2c-0.4,0-1.5,0.3-1.5-0.5c0-0.6,0.8-0.6,1.1-0.6
	c0.7,0,1.5-0.1,2-0.7c0.5-0.6,1.3-2.7,1.6-3.5l7.9-22.2c0.1-0.4,0.2-1,0.7-1c0.3,0,0.5,0.6,0.6,0.8l8.3,22.2
	c0.7,1.7,1.3,4.3,3.4,4.3c0.4,0,1.2,0,1.2,0.7c0,0.4-0.4,0.4-0.6,0.4c-1.8,0-3.6-0.2-5.4-0.2c-1.5,0-3,0.2-4.5,0.2
	c-0.2,0-0.7,0-0.7-0.4c0-0.7,0.8-0.7,1.2-0.7c1.1,0,2.6,0,2.6-1.3c0-0.6-0.4-1.6-0.6-2.2l-1.3-3.4c-0.9-2.3-0.6-2.3-2.5-2.3h-5.6
	c-1.6,0-1.4,0.2-2,1.8L163.1,41.7z M165.7,34.5c0,0.1-0.1,0.4-0.1,0.5c0,0.4,1.3,0.3,1.5,0.3h4.7c0.2,0,1.2,0.1,1.2-0.4
	c0-0.2-0.3-0.9-0.3-1l-2.8-7.5c-0.1-0.2-0.4-1.3-0.7-1.3c-0.3,0-0.6,1.1-0.7,1.3L165.7,34.5z"/>
<path style="fill:#b59150;" d="M192,40.5c0,3.4,0.1,5.1,3.8,5.1c1.5,0,3.4-0.5,4.6-1.5c1-0.9,1.7-2.5,2.2-3.8
	c0.1-0.2,0.3-0.6,0.5-0.6c0.4,0,0.4,0.3,0.4,0.6c0,1.5-0.4,3.1-0.5,4.7c0,1.2,0,1.7-1.1,1.7c-4,0-8.1-0.2-12.1-0.2
	c-1.4,0-2.8,0.2-4.2,0.2c-0.4,0-0.7-0.2-0.7-0.6c0-0.6,0.7-0.6,1.1-0.6c2.9,0,2.7-0.9,2.7-3.7V23.4c0-2.9,0.2-3.7-2.7-3.7
	c-0.4,0-1,0-1-0.6c0-0.5,0.3-0.6,0.7-0.6c1.6,0,3.1,0.2,4.7,0.2c1.6,0,3.2-0.2,4.8-0.2c0.4,0,0.7,0.1,0.7,0.6c0,0.6-0.7,0.6-1.1,0.6
	c-2.9,0-2.7,0.9-2.7,3.7V40.5z"/>
<path style="fill:#b59150;" d="M211.3,40.5c0,3.4,0.1,5.1,3.8,5.1c1.5,0,3.4-0.5,4.6-1.5c1-0.9,1.7-2.5,2.2-3.8
	c0.1-0.2,0.3-0.6,0.5-0.6c0.4,0,0.4,0.3,0.4,0.6c0,1.5-0.4,3.1-0.5,4.7c0,1.2,0,1.7-1.1,1.7c-4,0-8.1-0.2-12.1-0.2
	c-1.4,0-2.8,0.2-4.2,0.2c-0.4,0-0.7-0.2-0.7-0.6c0-0.6,0.7-0.6,1.1-0.6c2.9,0,2.7-0.9,2.7-3.7V23.4c0-2.9,0.2-3.7-2.7-3.7
	c-0.4,0-1,0-1-0.6c0-0.5,0.3-0.6,0.7-0.6c1.6,0,3.1,0.2,4.7,0.2c1.6,0,3.2-0.2,4.8-0.2c0.4,0,0.7,0.1,0.7,0.6c0,0.6-0.7,0.6-1.1,0.6
	c-2.9,0-2.7,0.9-2.7,3.7V40.5z"/>
<path style="fill:#b59150;" d="M238.1,39.5c0,4.3,0.1,6.3,4.3,6.3c1.7,0,3.8-0.6,5.1-1.9c1.1-1.1,1.9-3.2,2.4-4.7
	c0.1-0.3,0.3-0.7,0.6-0.7c0.4,0,0.4,0.4,0.4,0.8c0,1.9-0.5,3.9-0.5,5.9c0,1.5,0,2.1-1.2,2.1c-4.5,0-9-0.2-13.5-0.2
	c-1.6,0-3.1,0.2-4.7,0.2c-0.4,0-0.8-0.2-0.8-0.8c0-0.7,0.7-0.7,1.2-0.7c3.2,0,3-1.1,3-4.6V18.1c0-3.6,0.2-4.6-3-4.6
	c-0.4,0-1.2,0-1.2-0.7c0-0.6,0.3-0.8,0.8-0.8c1.8,0,3.4,0.2,5.2,0.2s3.5-0.2,5.3-0.2c0.4,0,0.8,0.2,0.8,0.8c0,0.7-0.8,0.7-1.2,0.7
	c-3.3,0-3,1.1-3,4.6V39.5z"/>
<g>
	<path style="fill:#b59150;" d="M254.9,23.4c0-2.9,0.2-3.7-2.4-3.7c-0.3,0-0.9,0-0.9-0.6c0-0.5,0.3-0.6,0.6-0.6
		c1.4,0,2.8,0.2,4.2,0.2c1.4,0,2.9-0.2,4.3-0.2c0.3,0,0.6,0.1,0.6,0.6c0,0.6-0.6,0.6-1,0.6c-2.6,0-2.4,0.9-2.4,3.7v18.7
		c0,2.9-0.2,3.7,2.4,3.8c0.3,0,1,0,1,0.5c0,0.5-0.3,0.6-0.6,0.6c-1.4,0-2.8-0.2-4.2-0.2c-1.4,0-2.9,0.2-4.3,0.2
		c-0.3,0-0.6-0.1-0.6-0.6c0-0.6,0.6-0.5,0.9-0.5c2.6,0,2.4-0.9,2.4-3.8V23.4z"/>
	<path style="fill:#b59150;" d="M266.4,23.3c0-2.8,0.2-3.7-2.4-3.7c-0.4,0-1,0-1-0.6c0-0.5,0.3-0.6,0.6-0.6c1.2,0,2.3,0.2,3.5,0.2
		c4.3,0,8.6-0.2,12.9-0.2c0.8,0,0.6,0.9,0.6,1.6v3.2c0,0.4,0.2,1.8-0.4,1.8c-0.4,0-0.5-0.6-0.6-1c-1-4.3-3.3-4.4-6.6-4.4
		c-0.6,0-2.6,0-3.2,0.3c-0.6,0.3-0.5,1.6-0.5,2.2v6.5c0,2.1,0.3,2.1,1.9,2.1c1.1,0,3.1,0,4.6-0.2c0.9-0.1,1.1-1.8,1.3-3.2
		c0-0.3,0.2-0.8,0.5-0.8c0.2,0,0.4,0.1,0.4,0.5c0,1.3-0.1,2.6-0.2,3.9c0.1,1.5,0.2,2.8,0.2,4.3c0,0.7-0.2,0.8-0.4,0.8
		c-0.3,0-0.5-0.5-0.5-0.8c-0.2-1.3-0.5-2.7-1.3-2.9c-1.5-0.4-3.4-0.4-4.6-0.4c-1.5,0-1.9,0-1.9,1.6v8.5c0,2.9-0.2,3.7,2.4,3.8
		c0.3,0,1,0,1,0.5c0,0.5-0.3,0.6-0.6,0.6c-1.4,0-2.8-0.2-4.2-0.2c-1.4,0-2.9,0.2-4.3,0.2c-0.3,0-0.6-0.1-0.6-0.6
		c0-0.6,0.6-0.5,0.9-0.5c2.6,0,2.4-0.9,2.4-3.8V23.3z"/>
</g>
<path style="fill:#b59150;" d="M288.1,28.6c0,2.1,0.3,2.1,1.9,2.1c1.1,0,3.1,0,4.6-0.2c0.9-0.1,1.1-1.8,1.3-3.2
	c0-0.3,0.2-0.8,0.5-0.8c0.2,0,0.4,0.1,0.4,0.5c0,1.3-0.1,2.6-0.2,3.9c0.1,1.5,0.2,2.8,0.2,4.3c0,0.7-0.2,0.8-0.4,0.8
	c-0.3,0-0.5-0.5-0.5-0.8c-0.2-1.3-0.5-2.7-1.3-2.9c-1.5-0.4-3.4-0.4-4.6-0.4c-1.5,0-1.9,0-1.9,1.6v7.9c0,4.2,1.7,4.2,4.6,4.2
	c3.2,0,5.3-0.1,6.6-4.1c0.1-0.3,0.4-1.6,0.8-1.6c0.3,0,0.4,0.2,0.4,0.5c0,0.4-0.1,0.7-0.2,1.1l-0.6,4.8c0,0.3-0.1,0.3-0.4,0.3h-14.7
	c-0.4,0-0.8,0-1.2,0.1c-0.4,0-0.8,0.1-1.2,0.1c-0.3,0-0.6-0.2-0.6-0.7c0-0.5,0.6-0.5,1-0.5c2.6,0,2.4-0.9,2.4-3.8V23.4
	c0-2.8,0.2-3.7-2.4-3.7c-0.4,0-1,0-1-0.5c0-0.5,0.3-0.7,0.6-0.7c2.3,0,4.7,0.2,7.1,0.2c3.2,0,6.4-0.2,9.6-0.2c0.7,0,0.5,1.1,0.5,1.7
	V24c0,0.3,0,1-0.3,1c-0.3,0-0.5-0.6-0.6-0.9l-0.6-1.3c-0.6-1.4-1.1-2.2-2.3-2.7c-1.2-0.5-2.9-0.5-4.1-0.5c-0.6,0-2.3,0-2.9,0.3
	c-0.7,0.3-0.6,1.3-0.6,2.1V28.6z"/>
<path style="fill:#b59150;" d="M43.3,19c0,0.5-0.1,0.7-0.5,0.7c-1.2,0-1.6-7.3-8.9-7.3c-7.9,0-11.9,8.3-11.9,16.9
	c0,4.1,0.9,7.9,2.9,11.2c2.2,3.6,5.1,6.1,8.9,6.1c7.3,0,7.9-9,9.2-9c0.4,0,0.6,0.3,0.5,0.7L43.3,43c-0.1,1.8,0,1.9-1.5,2.8
	c-2.8,1.6-5.4,2.4-8.5,2.4c-8.6,0-15.4-8.7-15.4-18.8c0-10.6,7.7-18.5,16.4-18.5c2.1,0,5.4,0.7,7.5,1.5c1.4,0.6,1.2,1.3,1.3,2.9
	L43.3,19z"/>
<path style="fill:#b59150;" d="M166.2,18.3c-1.1,0-2.3,0.2-3.4,0.2c-1.1,0-2.3-0.2-3.4-0.2c-0.4,0-1,0-1,0.5c0,0.6,0.7,0.6,1.1,0.6
	c0.9,0,2.7,0.1,2.7,1.6c0,0.8-0.3,1.7-0.6,2.4l-5.4,15.3c-0.1,0.2-0.4,1.3-0.7,1.3c-0.2,0-0.6-1.2-0.7-1.3l-5.9-15.9
	c-0.2-0.6-0.6-1.6-0.6-2.2c0-1.3,1.6-1.3,2.6-1.3c0.4,0,1.2,0,1.2-0.7c0-0.4-0.4-0.4-0.7-0.4c-1.5,0-3.1,0.2-4.6,0.2
	c-1.8,0-3.6-0.2-5.4-0.2c-0.2,0-0.6,0-0.6,0.4c0,0.7,0.8,0.7,1.2,0.7c2,0,2.7,2.6,3.4,4.3l0.9,2.5l-4.5,12.6
	c-0.1,0.2-0.4,1.3-0.7,1.3c-0.2,0-0.6-1.2-0.7-1.3l-5.9-15.9c-0.2-0.6-0.6-1.6-0.6-2.2c0-1.3,1.6-1.3,2.6-1.3c0.4,0,1.2,0,1.2-0.7
	c0-0.4-0.4-0.4-0.7-0.4c-1.5,0-3.1,0.2-4.6,0.2c-1.8,0-3.6-0.2-5.4-0.2c-0.2,0-0.6,0-0.6,0.4c0,0.7,0.8,0.7,1.2,0.7
	c2,0,2.7,2.6,3.4,4.3l8.3,22.3c0.1,0.3,0.2,0.8,0.6,0.8c0.5,0,0.6-0.6,0.7-1l6.3-17.8l6.7,17.9c0.1,0.3,0.2,0.8,0.6,0.8
	c0.5,0,0.6-0.6,0.7-1l7.9-22.3c0.3-0.8,1-2.9,1.6-3.5c0.5-0.6,1.3-0.7,2.1-0.7c0.4,0,1.1,0,1.1-0.6C167.7,18,166.6,18.3,166.2,18.3z
	"/>
</svg>
