<?xml version="1.0" encoding="utf-8"?>
<!-- Generator: Adobe Illustrator 25.0.0, SVG Export Plug-In . SVG Version: 6.00 Build 0)  -->
<svg version="1.1" id="Layer_1" xmlns="http://www.w3.org/2000/svg" xmlns:xlink="http://www.w3.org/1999/xlink" x="0px" y="0px"
	 viewBox="0 0 320 60" style="enable-background:new 0 0 320 60;" xml:space="preserve">
<path style="fill:#b59150;" d="M251.6,48H250v1.3h16.9V34.3h-1.1c-1.2,9.2-1.9,13.6-3.7,13.6h-4.8V29h1.7c1.6,0,2,0.7,2.9,8h0.7
	V19.8H262c-0.9,7.3-1.3,8-2.9,8h-1.7V10.5h4.8c1.8,0,2.2,2,3.7,11.4h1.1V9.3h-16.7v1.3h1.5 M242.1,48h-2.5V29h1.5c1.6,0,2,0.7,2.9,8
	h0.7V19.8h-0.7c-0.9,7.3-1.3,8-2.9,8h-1.5V10.5h4.5c1.8,0,2.2,2,3.7,11.4h1.1V9.3h-16.5v1.2h1.6V48h-1.6v1.3h9.8V48z M230.5,48h-1.6
	V10.5h1.6V9.3h-8.9v1.3h1.6V48h-1.6v1.3h8.9V48z M220,33.2H219c-1.3,11.4-1.9,14.7-3.7,14.7h-4.1V10.5h2.4V9.3h-9.7v1.3h1.6V48h-1.6
	v1.2H220V33.2z M176.3,48h-1.6v1.3h9.2c6.7,0,11-8.3,11-20c0-11.7-3.6-20-10.7-20h-9.5v1.3h1.6V48z M182,10.5h1.2
	c4.5,0,5.3,3.7,5.3,18.7c0,15-1.1,18.7-5.6,18.7H182V10.5z M173.2,33.2h-1.1c-1.3,11.4-1.9,14.7-3.7,14.7h-4.1V10.5h2.4V9.3h-9.7
	v1.3h1.6V48h-1.6v1.2h16.2V33.2z M150.7,29.3c0,15.1-0.7,19.6-3.5,19.6c-2.8,0-3.5-4.6-3.5-19.6c0-15.1,0.7-19.6,3.5-19.6
	C150,9.6,150.7,14.2,150.7,29.3 M147.1,8.4c-6.5,0-9.9,9.8-9.9,20.9c0,11.1,3.5,20.9,9.9,20.9c6.5,0,9.9-9.8,9.9-20.9
	C157.1,18.2,153.6,8.4,147.1,8.4 M111.3,10.5h1.5l5.6,38.7h2.5l4.5-28.5h0.1l4.1,28.5h2.5l6-38.7h1.1V9.3h-4.4v1.3h2.6L133.2,37
	h-0.1l-3.6-26.4h2.3V9.3h-9.4v1.3h1.6l1.1,7.6l-3,18.9h-0.1l-3.8-26.4h2.2V9.3h-9.1V10.5z M111.3,10.6c-1.9-1.4-4.1-2.3-6.2-2.3
	c-4.9,0-7.9,5.4-7.9,12.7c0,14.8,12.4,11.2,12.4,20.8c0,4.5-2.5,7-4.7,7c-4,0-4.3-2.5-6.4-14.7h-1.1v12.1c2.3,2.5,4.4,3.8,6.7,3.8
	c5.4,0,8.5-5.7,8.5-14.6c0-14.3-12.4-10.7-12.4-20c0-3.8,1.8-6,4.8-6c3,0,3.5,3.3,5.1,12h1.1V10.6z M92.3,49.2V48h-1.6V10.5h1
	c2.6,0,3.1,7.6,3.6,11.6h1.1V9.3h-17v12.9h1.1c0.6-4,1.1-11.6,3.6-11.6h1V48h-1.6v1.3H92.3z M72.4,29.3c0,15.1-0.7,19.6-3.5,19.6
	c-2.8,0-3.5-4.6-3.5-19.6c0-15.1,0.7-19.6,3.5-19.6C71.7,9.6,72.4,14.2,72.4,29.3 M68.9,8.4c-6.5,0-9.9,9.8-9.9,20.9
	c0,11.1,3.5,20.9,9.9,20.9c6.5,0,9.9-9.8,9.9-20.9C78.8,18.2,75.3,8.4,68.9,8.4 M57.9,10.3c-2.2-1.1-4.2-2-6.3-2
	c-6.6,0-10.3,9.5-10.3,20.9c0,11.4,3.7,20.9,10.3,20.9c2.3,0,4.5-1,6.7-2.8V34.9h-1.1c-1.7,9.5-1.8,14-5.5,14
	c-3.1,0-4.1-3.9-4.1-19.6c0-15.7,0.9-19.6,4.1-19.6c2.8,0,3.1,3.6,5,12.4h1.1V10.3z"/>
</svg>
