<?xml version="1.0" encoding="utf-8"?>
<!-- Generator: Adobe Illustrator 25.0.0, SVG Export Plug-In . SVG Version: 6.00 Build 0)  -->
<svg version="1.1" id="Layer_1" xmlns="http://www.w3.org/2000/svg" xmlns:xlink="http://www.w3.org/1999/xlink" x="0px" y="0px"
	 viewBox="0 0 320 60" style="enable-background:new 0 0 320 60;" xml:space="preserve">
<g>
	<path style="fill:#b59150;" d="M24.1,16.5c0-3.7-0.3-4.8-2.5-5.1l-1.2-0.2c-0.4-0.3-0.5-1.1,0.1-1.3c4.4-0.3,8.7-0.4,13.1-0.4
		c4.4,0,8.1,0.3,11.5,1.6c7.1,2.6,10.6,8.6,10.6,15.6c0,6.7-3.2,12.5-9.1,15.8C43.3,44.3,39,45,35,45c-3.3,0-6.7-0.4-8.5-0.4
		c-2.2,0-4.1,0.1-6.5,0.2c-0.3-0.2-0.4-1-0.1-1.3l1.2-0.2c3-0.4,3.1-1.1,3.1-6.6V16.5z M28.4,35.4c0,2.8,0.2,4.5,1,5.8
		c1.1,1.6,3.1,2.2,6.4,2.2c10.1,0,14.7-6.7,14.7-16.6c0-5.8-2.8-15.7-16.5-15.7c-3.1,0-4.8,0.4-5.2,0.7c-0.4,0.3-0.5,1.6-0.5,4V35.4
		z"/>
	<path style="fill:#b59150;" d="M61.7,31c-1.4,0-1.4,0.1-1.4,1.4c0,5.4,3.1,9.9,8.7,9.9c1.7,0,3.2-0.5,4.8-2.6
		c0.5-0.2,0.9,0.2,0.9,0.6c-1.7,3.6-5.5,4.9-8.2,4.9c-3.4,0-6.1-1.5-7.6-3.5c-1.6-2.1-2.2-4.6-2.2-6.9c0-6.5,4.2-12,10.5-12
		c4.5,0,7.4,3.1,7.4,6.3c0,0.7-0.1,1.2-0.2,1.4C74.3,31,73.6,31,71.4,31H61.7z M64.9,29.4c3.9,0,5-0.2,5.4-0.5
		c0.2-0.1,0.3-0.3,0.3-1c0-1.5-1-3.3-4-3.3c-3.1,0-5.7,2.9-5.8,4.6c0,0.1,0,0.3,0.4,0.3H64.9z"/>
	<path style="fill:#b59150;" d="M78.8,29.4c0-2.1,0-2.3-1.4-3.3l-0.5-0.3c-0.2-0.2-0.2-0.8,0.1-1c1.2-0.4,4-1.8,5.3-2.6
		c0.3,0.1,0.4,0.2,0.4,0.4v3.1c0,0.3,0.1,0.4,0.2,0.5c1.8-1.5,3.8-3.2,5.7-3.2c1.3,0,2.4,0.8,2.4,2.1c0,1.7-1.4,2.4-2.2,2.4
		c-0.5,0-0.8-0.2-1.1-0.4c-0.8-0.5-1.6-0.8-2.3-0.8c-0.8,0-1.5,0.5-1.9,1.1c-0.5,0.7-0.7,2.3-0.7,4.1v7.2c0,3.8,0.1,4.5,2.1,4.6
		l1.9,0.2c0.4,0.3,0.3,1.2-0.1,1.3c-2.5-0.1-4-0.2-5.8-0.2c-1.9,0-3.4,0.1-4.8,0.2c-0.4-0.2-0.5-1.1-0.1-1.3l1-0.2
		c1.9-0.3,2-0.8,2-4.6V29.4z"/>
	<path style="fill:#b59150;" d="M93.3,14.7c0-3.1-0.1-3.4-1.6-4.4L91.2,10c-0.3-0.2-0.3-0.9,0-1.1c1.2-0.5,3.7-1.2,5.7-2.2
		c0.2,0,0.4,0.1,0.5,0.3c-0.1,1.9-0.2,4.2-0.2,6.6v10c0,0.9,0.2,1.1,0.5,1.1c1.4-0.8,3.4-1.7,6-1.7c6,0,10,4.6,10,10.4
		c0,7.1-5,12-12,12c-1.9,0-3.4-0.4-4.4-0.7c-1.1-0.4-1.8-0.7-2.2-0.7c-0.4,0-0.8,0.4-1.1,0.8c-0.1,0.1-0.1,0.1-0.2,0.1
		c-0.2,0-0.4-0.1-0.5-0.3c0.1-0.7,0.1-1.7,0.1-4.5V14.7z M97.2,37.4c0,1.9,0.4,3.5,1.3,4.6c0.9,1.1,2.3,1.7,4,1.7
		c4.9,0,6.8-4.2,6.8-8.8c0-5.5-2.8-9.7-7.9-9.7c-1.6,0-2.8,0.4-3.6,0.8c-0.5,0.4-0.6,1-0.6,3V37.4z"/>
	<path style="fill:#b59150;" d="M113.8,55.5c0-1.4,0.9-2.1,2.1-2.1h1c0.8,0,1.4-0.4,1.7-1c1.5-2.4,2.6-4.6,3-5.9
		c0.2-0.4,0.5-1.5,0.5-2.3c0-1.1-0.2-1.7-0.9-3.7l-4.1-11.3c-0.9-2.5-1.3-3.8-3.1-4.1l-1.3-0.3c-0.3-0.3-0.3-1.2,0.2-1.3
		c1.7,0.1,3.2,0.2,5,0.2c1.4,0,2.9-0.1,4.5-0.2c0.4,0.2,0.5,1.1,0.1,1.3l-1.3,0.3c-0.7,0.2-1.1,0.3-1.1,0.7c0,0.6,1.2,4.1,1.5,5
		l1.7,4.9c0.3,0.8,1.3,3.7,1.5,3.8c0.2-0.1,1-1.7,1.9-3.9l1.8-4.2c1.2-2.8,1.8-4.7,1.8-5.3c0-0.4-0.3-0.7-1.3-0.9l-1.6-0.3
		c-0.4-0.3-0.3-1.2,0.1-1.3c1.7,0.1,3.2,0.2,4.6,0.2c1.3,0,2.5-0.1,4-0.2c0.4,0.2,0.5,1,0.1,1.3l-0.9,0.2c-1.7,0.3-2.7,1.9-4.4,5.6
		l-2.9,6.1c-1.7,3.6-6,12.8-8.6,18.6c-0.9,2-2.1,2.5-3.3,2.5C114.6,57.8,113.8,56.8,113.8,55.5z"/>
	<path style="fill:#b59150;" d="M148.1,23.9c0.5,1.2,0.8,2.9,0.8,4.3c-0.2,0.4-1,0.5-1.3,0.2c-0.9-2.3-2.5-3.9-4.6-3.9
		c-2,0-3.3,1.3-3.3,3.2c0,2.2,2.2,3.3,4,4.4c2.8,1.6,5.3,3.4,5.3,7.2c0,4-3.7,6-7.5,6c-2.5,0-4.3-0.5-5.6-1.6
		c-0.4-1-0.7-3.6-0.6-5.4c0.3-0.3,0.9-0.4,1.2-0.1c0.9,2.9,2.6,5.5,5.5,5.5c1.9,0,3.5-1.1,3.5-3.4c0-2.4-2.1-3.8-4-4.9
		c-3-1.7-5.2-3.6-5.2-6.5c0-3.9,3.1-6,7.1-6C145.7,22.9,147.6,23.5,148.1,23.9z"/>
	<path style="fill:#b59150;" d="M153.4,14.7c0-3.1-0.1-3.4-1.6-4.4l-0.5-0.3c-0.3-0.2-0.3-0.9,0-1.1c1.3-0.4,3.8-1.2,5.6-2.2
		c0.2,0,0.4,0.1,0.5,0.3c-0.1,1.6-0.2,4.2-0.2,6.6v11.1c0,0.5,0.1,0.9,0.2,1c1.9-1.5,4.4-2.8,7.1-2.8c5,0,6.7,3.1,6.7,6.8v8.9
		c0,3.8,0.1,4.4,2,4.6l1.4,0.2c0.4,0.3,0.3,1.2-0.1,1.3c-1.9-0.1-3.4-0.2-5.2-0.2c-1.9,0-3.5,0.1-4.9,0.2c-0.4-0.2-0.5-1.1-0.1-1.3
		l1-0.2c1.9-0.3,2-0.8,2-4.6v-7.6c0-3.4-1.6-5.7-5-5.7c-1.8,0-3.1,0.6-4.1,1.4c-0.9,0.8-1.1,1.1-1.1,2.9v8.9c0,3.8,0.1,4.3,2,4.6
		l1.1,0.2c0.4,0.2,0.3,1.2-0.1,1.3c-1.6-0.1-3.1-0.2-4.9-0.2c-1.9,0-3.4,0.1-5.1,0.2c-0.4-0.2-0.5-1.1-0.1-1.3l1.3-0.2
		c1.9-0.2,2-0.8,2-4.6V14.7z"/>
	<path style="fill:#b59150;" d="M179.4,29.4c0-2.1,0-2.3-1.4-3.3l-0.5-0.3c-0.2-0.2-0.2-0.8,0.1-1c1.2-0.4,4.2-1.8,5.4-2.6
		c0.3,0,0.5,0.1,0.5,0.3c-0.1,1.9-0.2,4.4-0.2,6.6v9.5c0,3.8,0.1,4.3,2,4.6l1.1,0.2c0.4,0.3,0.3,1.2-0.1,1.3
		c-1.6-0.1-3.1-0.2-4.9-0.2c-1.9,0-3.5,0.1-4.9,0.2c-0.4-0.2-0.5-1.1-0.1-1.3l1.1-0.2c1.9-0.3,2-0.8,2-4.6V29.4z M183.8,14.3
		c0,1.9-1.3,2.8-2.8,2.8c-1.6,0-2.7-1.2-2.7-2.7c0-1.7,1.3-2.9,2.8-2.9C182.7,11.5,183.8,12.8,183.8,14.3z"/>
	<path style="fill:#b59150;" d="M191.1,29.4c0-2.1,0-2.3-1.4-3.3l-0.5-0.3c-0.2-0.2-0.2-0.8,0.1-1c1.2-0.4,4-1.8,5.3-2.6
		c0.3,0.1,0.4,0.2,0.4,0.4v3.1c0,0.3,0.1,0.4,0.2,0.5c1.8-1.5,3.8-3.2,5.8-3.2c1.3,0,2.4,0.8,2.4,2.1c0,1.7-1.4,2.4-2.2,2.4
		c-0.5,0-0.8-0.2-1.1-0.4c-0.8-0.5-1.6-0.8-2.3-0.8c-0.8,0-1.5,0.5-1.9,1.1c-0.5,0.7-0.7,2.3-0.7,4.1v7.2c0,3.8,0.1,4.5,2.1,4.6
		l1.9,0.2c0.4,0.3,0.3,1.2-0.1,1.3c-2.5-0.1-4-0.2-5.8-0.2c-1.9,0-3.4,0.1-4.8,0.2c-0.4-0.2-0.5-1.1-0.1-1.3l1-0.2
		c1.9-0.3,2-0.8,2-4.6V29.4z"/>
	<path style="fill:#b59150;" d="M207.6,31c-1.4,0-1.4,0.1-1.4,1.4c0,5.4,3.1,9.9,8.7,9.9c1.7,0,3.2-0.5,4.8-2.6
		c0.5-0.2,0.9,0.2,0.9,0.6c-1.7,3.6-5.5,4.9-8.2,4.9c-3.4,0-6.1-1.5-7.6-3.5c-1.6-2.1-2.2-4.6-2.2-6.9c0-6.5,4.2-12,10.5-12
		c4.5,0,7.4,3.1,7.4,6.3c0,0.7-0.1,1.2-0.2,1.4c-0.2,0.3-0.9,0.4-3.1,0.4H207.6z M210.9,29.4c3.9,0,5-0.2,5.4-0.5
		c0.2-0.1,0.3-0.3,0.3-1c0-1.5-1-3.3-4-3.3c-3.1,0-5.7,2.9-5.8,4.6c0,0.1,0,0.3,0.4,0.3H210.9z"/>
	<path style="fill:#b59150;" d="M232.9,17.5c0-5.6-0.1-6.4-3.4-6.7l-1.3-0.1c-0.3-0.2-0.2-1.2,0.1-1.3c2.9,0.1,4.7,0.2,6.8,0.2
		c2,0,3.8-0.1,6.4-0.2c0.3,0.2,0.4,1.1,0.1,1.3l-1.3,0.1c-3.1,0.3-3.2,1.1-3.2,6.7V36c0,3.3,0.2,4.7,1.1,5.7
		c0.6,0.6,1.6,1.2,5.7,1.2c4.4,0,5.5-0.2,6.4-0.7c1-0.6,2.4-2.5,3.5-5.2c0.3-0.3,1.3-0.1,1.3,0.3c0,0.6-1.5,6-2.2,7.4
		c-2.7-0.1-7.6-0.2-13-0.2h-4.8c-2.2,0-3.9,0.1-6.8,0.2c-0.3-0.2-0.4-1-0.1-1.3l1.6-0.2c3-0.3,3.1-1.1,3.1-6.6V17.5z"/>
	<path style="fill:#b59150;" d="M258.8,29.4c0-2.1,0-2.3-1.4-3.3l-0.5-0.3c-0.2-0.2-0.2-0.8,0.1-1c1.2-0.4,4.2-1.8,5.4-2.6
		c0.3,0,0.5,0.1,0.5,0.3c-0.1,1.9-0.2,4.4-0.2,6.6v9.5c0,3.8,0.1,4.3,2,4.6l1.1,0.2c0.4,0.3,0.3,1.2-0.1,1.3
		c-1.6-0.1-3.1-0.2-4.9-0.2c-1.9,0-3.5,0.1-4.9,0.2c-0.4-0.2-0.5-1.1-0.1-1.3l1.1-0.2c1.9-0.3,2-0.8,2-4.6V29.4z M263.2,14.3
		c0,1.9-1.3,2.8-2.8,2.8c-1.6,0-2.7-1.2-2.7-2.7c0-1.7,1.3-2.9,2.8-2.9C262.1,11.5,263.2,12.8,263.2,14.3z"/>
	<path style="fill:#b59150;" d="M275.8,25.9c-0.9,0-0.9,0.1-0.9,1.5v11.2c0,3.8,0.1,4.5,2,4.6l1.9,0.2c0.4,0.3,0.3,1.2-0.1,1.3
		c-2.4-0.1-3.9-0.2-5.7-0.2c-1.9,0-3.5,0.1-5,0.2c-0.4-0.2-0.5-1.1-0.1-1.3l1.2-0.2c1.9-0.3,2-0.8,2-4.6V27.5c0-1.4,0-1.5-1-1.5
		h-1.8c-0.3-0.2-0.4-0.7-0.2-1l2.2-1.1c0.4-0.2,0.8-0.5,0.8-1.1c0-3.1,0.4-6.4,1.6-9.3c1.3-3,4.2-6.7,9.4-6.7c2.8,0,5.1,1.3,5.1,3.2
		c0,1.1-1,1.9-2,1.9c-0.6,0-0.9-0.2-1.3-0.6c-1-1.2-2.5-2.3-4.2-2.3c-1.6,0-2.9,1-3.7,2.9c-0.9,2.4-1.1,6.3-1.1,9v1.5
		c0,1.4,0,1.5,0.9,1.5h6c0.6,0.5,0.2,2-0.4,2.2H275.8z"/>
	<path style="fill:#b59150;" d="M285.8,31c-1.4,0-1.4,0.1-1.4,1.4c0,5.4,3.1,9.9,8.7,9.9c1.7,0,3.2-0.5,4.8-2.6
		c0.5-0.2,0.9,0.2,0.9,0.6c-1.7,3.6-5.5,4.9-8.2,4.9c-3.4,0-6.1-1.5-7.6-3.5c-1.6-2.1-2.2-4.6-2.2-6.9c0-6.5,4.2-12,10.5-12
		c4.5,0,7.4,3.1,7.4,6.3c0,0.7-0.1,1.2-0.2,1.4c-0.2,0.3-0.9,0.4-3.1,0.4H285.8z M289.1,29.4c3.9,0,5-0.2,5.4-0.5
		c0.2-0.1,0.3-0.3,0.3-1c0-1.5-1-3.3-4-3.3c-3.1,0-5.7,2.9-5.8,4.6c0,0.1,0,0.3,0.4,0.3H289.1z"/>
</g>
</svg>
