<?xml version="1.0" encoding="utf-8"?>
<!-- Generator: Adobe Illustrator 25.0.0, SVG Export Plug-In . SVG Version: 6.00 Build 0)  -->
<svg version="1.1" id="Layer_1" xmlns="http://www.w3.org/2000/svg" xmlns:xlink="http://www.w3.org/1999/xlink" x="0px" y="0px"
	 viewBox="0 0 320 60" style="enable-background:new 0 0 320 60;" xml:space="preserve">
<g>
	<path style="fill:#FFFFFF;" d="M30.7,16.1c0-1.9,0.4-4.5-2.1-4.5c-1.3,0-2.5,0.7-3.2,0.7c-0.4,0-0.7-0.3-0.7-0.7
		c0-2.3,15.7-3,18.2-3c5.8,0,11.5,1.4,16.3,4.9c4.8,3.6,8,9.3,8,15.4c0,5.8-2.5,11.4-6.8,15.2c-4.8,4.1-10.3,5.2-16.5,5.2
		c-4.7,0-9.4-0.3-14-0.3c-1.4,0-2.7,0.3-4,0.3c-0.6,0-1.1-0.3-1.1-0.9c0-0.8,1-0.7,1.6-0.7c4.4,0,4.1-1.4,4.1-5.5V16.1z M35.7,41.2
		c0,5.6,1.3,7,6.8,7c5.3,0,9.8-1,13.7-5c3.4-3.6,5.3-8.7,5.3-13.6c0-11.8-8.1-19.5-19.6-19.5c-1.3,0-4.5,0.1-5.5,1.1
		c-0.8,0.8-0.7,2.7-0.7,3.7V41.2z"/>
	<path style="fill:#FFFFFF;" d="M76.4,29.4c0,2.3,0.4,2.3,2.5,2.3c1.5,0,4,0,6-0.2c1.2-0.1,1.5-2,1.7-3.4c0-0.3,0.2-0.8,0.6-0.8
		c0.2,0,0.5,0.1,0.5,0.5c0,1.4-0.1,2.9-0.2,4.2c0.1,1.6,0.2,3.1,0.2,4.6c0,0.8-0.3,0.9-0.5,0.9c-0.4,0-0.6-0.5-0.6-0.8
		c-0.2-1.4-0.6-2.9-1.7-3.2c-1.9-0.4-4.5-0.4-6-0.4c-2,0-2.5,0-2.5,1.7v8.6c0,4.5,2.2,4.6,6.1,4.6c4.2,0,7-0.1,8.6-4.4
		c0.1-0.3,0.5-1.7,1.1-1.7c0.3,0,0.5,0.2,0.5,0.5c0,0.4-0.1,0.8-0.2,1.2l-0.7,5.2c0,0.3-0.1,0.3-0.5,0.3H71.9c-0.5,0-1,0-1.5,0.1
		c-0.5,0-1,0.1-1.5,0.1c-0.4,0-0.8-0.2-0.8-0.7c0-0.5,0.8-0.6,1.3-0.6c3.4,0,3.2-1,3.2-4.1V23.7c0-3.1,0.2-4.1-3.2-4.1
		c-0.5,0-1.3,0-1.3-0.6c0-0.5,0.4-0.7,0.8-0.7c3.1,0,6.2,0.2,9.3,0.2c4.2,0,8.4-0.2,12.6-0.2c0.9,0,0.7,1.2,0.7,1.8v4.2
		c0,0.3,0,1-0.4,1c-0.4,0-0.6-0.6-0.8-1l-0.7-1.4c-0.7-1.5-1.4-2.4-3.1-2.9c-1.6-0.5-3.8-0.5-5.4-0.5c-0.8,0-3,0-3.8,0.3
		c-0.9,0.3-0.8,1.4-0.8,2.3V29.4z"/>
	<path style="fill:#FFFFFF;" d="M120,23.6c0.2-0.7,0.7-1.8,0.7-2.5c0-1.1-1.2-1.4-2.1-1.4c-0.4,0-2.2,0.1-2.2-0.6
		c0-0.6,0.6-0.7,1.1-0.7c1.4,0,2.9,0.2,4.2,0.2c1.4,0,2.8-0.2,4.1-0.2c0.4,0,0.7,0.2,0.7,0.6c0,0.6-0.7,0.7-1.2,0.7
		c-0.7,0-1.4,0.1-2,0.6c-0.8,0.7-1.5,2.2-1.9,3.3l-10.1,24.7c-0.1,0.3-0.4,1.4-0.8,1.4c-0.5,0-0.7-1.1-0.9-1.4L99.1,23
		c-0.7-1.8-1.3-3.3-3.6-3.3c-0.5,0-1.3,0-1.3-0.7c0-0.5,0.6-0.6,1-0.6c1.8,0,3.5,0.2,5.2,0.2c1.5,0,3-0.2,4.5-0.2
		c0.4,0,0.9,0,0.9,0.6c0,0.6-0.6,0.6-1,0.7c-0.3,0-2.5,0-2.5,0.8c0,0.7,0.4,1.4,0.6,2l8.8,21L120,23.6z"/>
	<path style="fill:#FFFFFF;" d="M140.8,17.6c9.4,0,17.2,6.5,17.2,16.1c0,9.5-7.8,16.1-17.2,16.1c-8.9,0-17.2-7.1-17.2-16.1
		C123.5,24.6,131.9,17.6,140.8,17.6z M150.2,23.4c-2.4-2.8-5.6-4.5-9.3-4.5c-3.9,0-7.4,1.6-9.8,4.6c-2.3,2.8-3.1,6.5-3.1,10.1
		c0,3.7,0.9,7.5,3.3,10.3c2.4,2.9,5.8,4.4,9.6,4.4c3.8,0,7.2-1.8,9.5-4.7c2.3-3,3.1-6.3,3.1-10C153.4,29.8,152.7,26.4,150.2,23.4z"
		/>
	<path style="fill:#FFFFFF;" d="M186.3,23.8c0-3.1,0.2-4.1-3.3-4.1c-0.4,0-1.2,0-1.2-0.5c0-0.5,0.4-0.8,0.9-0.8
		c1.5,0,2.9,0.2,4.3,0.2c1.5,0,2.9-0.2,4.3-0.2c0.4,0,0.8,0.2,0.8,0.8c0,0.5-0.8,0.5-1.3,0.5c-3.4,0-3.2,1-3.2,4.1v25.1
		c0,0.2,0.1,0.9-0.3,0.9c-0.5,0-1-0.8-1.2-1.2l-20.7-27V44c0,3.1-0.2,4.1,3.2,4.1c0.4,0,1.2-0.1,1.2,0.5c0,0.5-0.3,0.7-0.8,0.7
		c-1.5,0-2.9-0.2-4.3-0.2c-1.4,0-2.9,0.2-4.3,0.2c-0.5,0-0.9-0.2-0.9-0.7c0-0.6,0.8-0.5,1.3-0.5c3.5,0,3.2-1,3.2-4.1V23.8
		c0-3.1,0.2-4.1-3.2-4.1c-0.4,0-1.2,0-1.2-0.5c0-0.7,0.6-0.8,1.2-0.8h6.1c1,0.2,1.4,0.9,2,1.7l17.5,22.7V23.8z"/>
	<path style="fill:#FFFFFF;" d="M208,40.6c0,4.8,0.1,7.1,5.8,7.1c2.3,0,5.2-0.6,7-2.1c1.5-1.2,2.6-3.6,3.3-5.3
		c0.1-0.3,0.4-0.8,0.8-0.8c0.6,0,0.6,0.4,0.6,0.9c0,2.2-0.6,4.4-0.7,6.6c-0.1,1.6,0.1,2.4-1.6,2.4c-6.1,0-12.3-0.3-18.4-0.3
		c-2.2,0-4.2,0.3-6.3,0.3c-0.6,0-1.1-0.3-1.1-0.9c0-0.8,1-0.8,1.6-0.8c4.4,0,4.1-1.2,4.1-5.2V16.5c0-4,0.3-5.2-4.1-5.2
		c-0.6,0-1.6,0-1.6-0.8c0-0.7,0.4-0.9,1.1-0.9c2.4,0,4.7,0.3,7.1,0.3c2.4,0,4.8-0.3,7.2-0.3c0.6,0,1.1,0.2,1.1,0.9
		c0,0.8-1.1,0.8-1.6,0.8c-4.4,0-4.1,1.2-4.1,5.2V40.6z"/>
	<path style="fill:#FFFFFF;" d="M231.9,23.7c0-3.1,0.2-4.1-3.2-4.1c-0.4,0-1.2,0-1.2-0.6c0-0.5,0.3-0.7,0.8-0.7
		c1.9,0,3.7,0.2,5.5,0.2c1.9,0,3.8-0.2,5.6-0.2c0.4,0,0.8,0.1,0.8,0.7c0,0.6-0.8,0.6-1.3,0.6c-3.5,0-3.2,0.9-3.2,4.1V44
		c0,3.2-0.2,4,3.2,4.1c0.4,0,1.3,0,1.3,0.6c0,0.5-0.4,0.6-0.8,0.6c-1.9,0-3.7-0.2-5.5-0.2c-1.9,0-3.8,0.2-5.6,0.2
		c-0.4,0-0.8-0.1-0.8-0.6c0-0.6,0.8-0.6,1.2-0.6c3.5,0,3.2-1,3.2-4.1V23.7z"/>
	<path style="fill:#FFFFFF;" d="M247.7,23.6c0-3.1,0.2-4-3.2-4c-0.5,0-1.3,0-1.3-0.7c0-0.5,0.4-0.6,0.8-0.6c1.6,0,3.1,0.2,4.6,0.2
		c5.6,0,11.3-0.2,16.9-0.2c1,0,0.8,1,0.8,1.7v3.5c0,0.4,0.2,1.9-0.5,1.9c-0.5,0-0.7-0.7-0.8-1c-1.3-4.7-4.3-4.7-8.7-4.7
		c-0.8,0-3.4,0-4.2,0.3c-0.7,0.3-0.6,1.7-0.6,2.4v7c0,2.3,0.4,2.3,2.5,2.3c1.5,0,4,0,6-0.2c1.2-0.1,1.5-2,1.7-3.4
		c0-0.3,0.2-0.8,0.6-0.8c0.2,0,0.5,0.1,0.5,0.5c0,1.4-0.1,2.9-0.2,4.2c0.1,1.6,0.2,3.1,0.2,4.6c0,0.8-0.3,0.9-0.5,0.9
		c-0.4,0-0.6-0.5-0.6-0.8c-0.2-1.4-0.6-2.9-1.7-3.2c-1.9-0.4-4.5-0.4-6-0.4c-2,0-2.5,0-2.5,1.7V44c0,3.2-0.2,4,3.2,4.1
		c0.4,0,1.3,0,1.3,0.6c0,0.5-0.4,0.6-0.8,0.6c-1.9,0-3.7-0.2-5.5-0.2s-3.8,0.2-5.6,0.2c-0.4,0-0.8-0.1-0.8-0.6
		c0-0.6,0.8-0.6,1.2-0.6c3.5,0,3.2-1,3.2-4.1V23.6z"/>
	<path style="fill:#FFFFFF;" d="M277.3,29.4c0,2.3,0.4,2.3,2.5,2.3c1.5,0,4,0,6-0.2c1.2-0.1,1.5-2,1.7-3.4c0-0.3,0.2-0.8,0.6-0.8
		c0.2,0,0.5,0.1,0.5,0.5c0,1.4-0.1,2.9-0.2,4.2c0.1,1.6,0.2,3.1,0.2,4.6c0,0.8-0.3,0.9-0.5,0.9c-0.4,0-0.6-0.5-0.6-0.8
		c-0.2-1.4-0.6-2.9-1.7-3.2c-1.9-0.4-4.5-0.4-6-0.4c-2,0-2.5,0-2.5,1.7v8.6c0,4.5,2.2,4.6,6.1,4.6c4.2,0,7-0.1,8.6-4.4
		c0.1-0.3,0.5-1.7,1.1-1.7c0.3,0,0.5,0.2,0.5,0.5c0,0.4-0.1,0.8-0.2,1.2l-0.7,5.2c0,0.3-0.1,0.3-0.5,0.3h-19.4c-0.5,0-1,0-1.5,0.1
		c-0.5,0-1,0.1-1.5,0.1c-0.4,0-0.8-0.2-0.8-0.7c0-0.5,0.8-0.6,1.3-0.6c3.4,0,3.2-1,3.2-4.1V23.7c0-3.1,0.2-4.1-3.2-4.1
		c-0.5,0-1.3,0-1.3-0.6c0-0.5,0.4-0.7,0.8-0.7c3.1,0,6.2,0.2,9.3,0.2c4.2,0,8.4-0.2,12.6-0.2c0.9,0,0.7,1.2,0.7,1.8v4.2
		c0,0.3,0,1-0.4,1c-0.4,0-0.6-0.6-0.8-1l-0.7-1.4c-0.7-1.5-1.4-2.4-3.1-2.9c-1.6-0.5-3.8-0.5-5.4-0.5c-0.8,0-3,0-3.8,0.3
		c-0.9,0.3-0.8,1.4-0.8,2.3V29.4z"/>
</g>
</svg>
