<?xml version="1.0" encoding="utf-8"?>
<!-- Generator: Adobe Illustrator 25.0.0, SVG Export Plug-In . SVG Version: 6.00 Build 0)  -->
<svg version="1.1" id="Layer_1" xmlns="http://www.w3.org/2000/svg" xmlns:xlink="http://www.w3.org/1999/xlink" x="0px" y="0px"
	 viewBox="0 0 320 60" style="enable-background:new 0 0 320 60;" xml:space="preserve">
<g>
	<path style="fill:#FFFFFF;" d="M62.9,16.9c0-1.8,0.4-4.2-2-4.2c-1.2,0-2.4,0.6-3,0.6c-0.4,0-0.7-0.3-0.7-0.6c0-2.1,14.7-2.8,17-2.8
		c5.5,0,10.8,1.3,15.3,4.6c4.5,3.3,7.5,8.6,7.5,14.3c0,5.4-2.3,10.6-6.4,14.1c-4.5,3.8-9.7,4.8-15.4,4.8c-4.4,0-8.8-0.2-13.1-0.2
		c-1.3,0-2.5,0.2-3.7,0.2c-0.5,0-1-0.2-1-0.8c0-0.8,1-0.6,1.5-0.6c4.2,0,3.9-1.3,3.9-5.1V16.9z M67.6,40.1c0,5.2,1.2,6.5,6.4,6.5
		c5,0,9.2-0.9,12.8-4.6c3.2-3.3,4.9-8,4.9-12.6c0-10.9-7.6-18-18.4-18c-1.2,0-4.2,0.1-5.1,1c-0.7,0.7-0.7,2.5-0.7,3.5V40.1z"/>
	<path style="fill:#FFFFFF;" d="M118.1,17.9c9.8,0,17.9,6.1,17.9,15c0,8.9-8.1,15.1-17.9,15.1c-9.3,0-18-6.7-18-15.1
		C100.1,24.5,108.8,17.9,118.1,17.9z M127.9,23.4c-2.5-2.6-5.9-4.2-9.7-4.2c-4,0-7.7,1.5-10.2,4.3c-2.4,2.6-3.2,6.1-3.2,9.4
		c0,3.5,0.9,7,3.5,9.7c2.5,2.7,6.1,4.1,10,4.1c4,0,7.5-1.7,9.9-4.4c2.4-2.8,3.2-5.9,3.2-9.3C131.3,29.4,130.5,26.2,127.9,23.4z"/>
	<path style="fill:#FFFFFF;" d="M141.6,23.8c0-3,0.3-3.8-3.4-3.8c-0.5,0-1.3,0-1.3-0.6c0-0.5,0.4-0.7,0.9-0.7c1.6,0,3.4,0.2,5.1,0.2
		c3,0,5.9-0.2,8.8-0.2c4.9,0,9.7,2.2,9.7,7c0,4.2-3.9,6.7-8.1,7.2c1.6,0.2,2.4,1.8,3.1,3l4.2,7.2c0.9,1.6,1.7,3.4,4,3.4
		c0.4,0,1.3,0,1.3,0.6c0,0.5-0.5,0.5-0.9,0.5h-5.5c-1,0-1.3-0.9-1.8-1.6l-5.1-9c-1.9-3.2-1.8-3.6-5.7-3.6c-0.4,0-0.9,0-1.1,0.2
		c-0.3,0.3-0.3,1.4-0.3,1.8v7.1c0,3-0.2,3.8,3.4,3.8c0.5,0,1.3,0,1.3,0.6c0,0.5-0.4,0.6-0.9,0.6c-2,0-3.8-0.2-5.8-0.2
		c-2,0-3.9,0.2-5.9,0.2c-0.5,0-0.9-0.1-0.9-0.6c0-0.6,0.8-0.6,1.3-0.6c3.6,0,3.4-0.9,3.4-3.8V23.8z M145.7,31.6
		c0,1.2,1.8,0.8,2.6,0.8c2.4,0,4.5-0.2,6.4-1.5c1.7-1.2,2.4-2.9,2.4-4.7c0-4.2-2.8-6.6-7.4-6.6c-3.9,0-4,0.5-4,3.7V31.6z"/>
	<path style="fill:#FFFFFF;" d="M175.8,33.2c-3.8-1.5-7.5-3.4-7.5-7.5c0-4.8,4.9-7.8,9.9-7.8c2,0,5,0.3,6.9,1c1,0.3,0.9,0.9,0.9,1.7
		c0.1,1.2,0.2,2.4,0.2,3.6c0,0.3-0.2,0.6-0.6,0.6c-0.6,0-0.7-0.7-0.8-1.1c-1.1-3.2-2.7-4.9-6.7-4.9c-3.4,0-6.6,1.6-6.6,4.9
		c0,4,5.7,5.6,9,6.9c1.7,0.7,3.9,1.7,5.1,2.9c1.5,1.5,2.5,3.5,2.5,5.5c0,2.6-1.4,4.9-3.6,6.6c-2.3,1.7-5.3,2.4-8.2,2.4
		c-2.5,0-5.6-0.6-7.8-1.8c-0.9-0.5-0.7-1.8-0.7-2.6c0-1.2,0-2.4,0.2-3.6c0.1-0.4,0.2-0.9,0.8-0.9c0.7,0,0.7,1.2,0.7,1.5
		c0.5,4,2.9,6.5,7.6,6.5c3.9,0,7.7-2.4,7.7-6c0-3.7-2.8-5.5-6.3-6.9L175.8,33.2z"/>
	<path style="fill:#FFFFFF;" d="M200.3,29c0,2.2,0.5,2.2,2.6,2.2c1.5,0,4.2,0,6.2-0.2c1.3-0.1,1.5-1.8,1.8-3.2
		c0.1-0.3,0.2-0.8,0.7-0.8c0.3,0,0.6,0.1,0.6,0.5c-0.1,1.3-0.2,2.7-0.3,4c0.1,1.5,0.2,2.9,0.3,4.3c0,0.7-0.3,0.8-0.6,0.8
		c-0.5,0-0.6-0.5-0.7-0.8c-0.3-1.3-0.7-2.7-1.8-3c-2-0.4-4.7-0.4-6.2-0.4c-2.1,0-2.6,0-2.6,1.6v8c0,4.2,2.3,4.3,6.3,4.3
		c4.4,0,7.3-0.1,9-4.2c0.2-0.3,0.5-1.6,1.1-1.6c0.4,0,0.5,0.2,0.5,0.5c0,0.4-0.1,0.7-0.2,1.1l-0.8,4.9c-0.1,0.3-0.2,0.3-0.6,0.3
		h-20.2c-0.5,0-1,0-1.6,0.1c-0.5,0-1.1,0.1-1.6,0.1c-0.5,0-0.9-0.2-0.9-0.7c0-0.5,0.8-0.6,1.3-0.6c3.6,0,3.4-0.9,3.4-3.9V23.7
		c0-2.9,0.2-3.8-3.4-3.8c-0.5,0-1.3,0-1.3-0.6c0-0.5,0.4-0.7,0.9-0.7c3.2,0,6.5,0.2,9.7,0.2c4.4,0,8.8-0.2,13.1-0.2
		c1,0,0.7,1.1,0.7,1.7v4c0,0.3,0.1,1-0.5,1c-0.5,0-0.7-0.6-0.8-0.9l-0.8-1.3c-0.8-1.4-1.5-2.3-3.2-2.7c-1.7-0.5-3.9-0.5-5.7-0.5
		c-0.8,0-3.1,0-3.9,0.3c-1,0.3-0.8,1.3-0.8,2.1V29z"/>
	<path style="fill:#FFFFFF;" d="M235.7,42.8c0,2.9-0.2,3.7,3.3,3.7c0.5,0,1.3,0,1.3,0.5c0,0.5-0.4,0.6-0.9,0.6
		c-1.9,0-3.7-0.2-5.6-0.2c-1.9,0-3.8,0.2-5.7,0.2c-0.5,0-0.9-0.1-0.9-0.6c0-0.6,0.8-0.5,1.3-0.5c3.5,0,3.3-0.9,3.3-3.7V22
		c0-1.6-0.7-1.3-2.2-1.3c-4.6,0-6.4,0.4-8.8,4c-0.2,0.3-0.6,1.1-1.1,1.1c-0.4,0-0.5-0.2-0.5-0.5c0-0.3,0.2-0.9,0.3-1.1l2-5.8
		c0.1-0.3,0.2-0.6,0.6-0.6c0.3,0,0.5,0.2,0.5,0.5c0,0.4,0,0.7,0.4,0.9c0.7,0.5,1.7,0.4,2.5,0.4h18.2c1.3,0,2.6,0.2,3.1-1
		c0.2-0.4,0.3-0.8,0.8-0.8c0.7,0,0.4,1.3,0.4,1.6l-0.3,5.5c0,0.4,0,0.8-0.6,0.8c-0.4,0-0.5-0.4-0.6-0.6c-0.4-0.9-0.7-2.2-1.5-3
		c-1.1-1.2-2.5-1.2-4.1-1.2h-2.9c-2.3,0-2.3-0.1-2.3,2.2V42.8z"/>
</g>
</svg>
