<?xml version="1.0" encoding="utf-8"?>
<!-- Generator: Adobe Illustrator 25.0.0, SVG Export Plug-In . SVG Version: 6.00 Build 0)  -->
<svg version="1.1" id="Layer_1" xmlns="http://www.w3.org/2000/svg" xmlns:xlink="http://www.w3.org/1999/xlink" x="0px" y="0px"
	 viewBox="0 0 320 60" style="enable-background:new 0 0 320 60;" xml:space="preserve">
<path style="fill:#FFFFFF;" d="M74.3,9.3c0,0.1,0,0.2,0.1,0.3c0.1,0.4,0.1,0.7,0,1.1c0,0.1-0.1,0.2-0.3,0.2c-0.5,0.1-1,0.1-1.5,0.3
	c-0.8,0.2-1.2,0.8-1.4,1.5c-0.1,0.3-0.1,0.7-0.2,1.1c-0.1,0.8-0.1,1.5-0.1,2.3c-0.1,4.4,0,8.7,0,13.1c0,4.4,0,8.7,0,13.1
	c0,0.8,0,1.7,0.1,2.5c0,0.7,0.1,1.4,0.3,2.1c0.1,0.4,0.3,0.8,0.6,1c0.3,0.3,0.6,0.4,0.9,0.5c0.5,0.1,1,0.2,1.5,0.3
	c0.2,0,0.3,0.1,0.3,0.3c0,0.3,0,0.7-0.1,1c-0.1,0.2-0.1,0.2-0.3,0.2c-0.6,0-1.1,0-1.7-0.1c-0.6,0-1.1,0-1.7,0
	c-0.9-0.1-1.8-0.1-2.7,0c-0.6,0-1.1,0-1.7,0.1c-0.4,0-0.7,0-1.1,0.1c-0.3,0-0.6,0-1,0.1c-0.1,0-0.2,0-0.3-0.1c0-0.1,0-0.2-0.1-0.2
	c-0.1-0.3,0-0.6,0-0.9c0-0.2,0.1-0.3,0.3-0.3c0.4-0.1,0.9-0.2,1.3-0.3c0.8-0.2,1.3-0.7,1.5-1.5c0.1-0.4,0.1-0.8,0.2-1.2
	c0.1-1.3,0.1-2.5,0.1-3.8c0.1-3.3,0-6.6,0-9.9c0-0.3,0-0.7-0.1-1c-0.1-0.3-0.2-0.5-0.5-0.6c-0.2,0-0.3-0.1-0.5-0.1
	c-4.2-0.1-8.4,0-12.5,0c-0.5,0-1,0-1.5,0.1c-0.2,0-0.4,0.1-0.6,0.1c-0.2,0.1-0.3,0.2-0.3,0.4c0,0.1-0.1,0.3-0.1,0.5
	c-0.1,1.9,0,3.7,0,5.6c0,1.9,0,3.7,0,5.6c0,0.7,0,1.3,0,2c0.1,0.8,0.1,1.5,0.3,2.3c0.1,0.5,0.3,0.9,0.7,1.3c0.1,0.1,0.3,0.2,0.4,0.2
	c0.4,0.2,0.9,0.3,1.3,0.3c0.3,0,0.6,0.1,0.9,0.1c0.1,0,0.2,0.1,0.3,0.3c0.1,0.4,0,0.7-0.1,1.1c-0.1,0.2-0.1,0.2-0.3,0.2
	c0,0,0,0-0.1,0c-0.5,0-1,0-1.5-0.1c-0.7,0-1.4,0-2.1-0.1c-0.7,0-1.3,0-2,0c-0.6,0-1.2,0-1.8,0.1c-0.3,0-0.7,0-1,0.1
	c-0.5,0.1-1,0-1.4,0.1c-0.1,0-0.1,0-0.1-0.1c-0.1-0.1-0.2-0.3-0.2-0.4c0-0.2,0-0.5,0-0.7c0-0.3,0.1-0.3,0.3-0.4
	c0.4-0.1,0.8-0.2,1.2-0.4c0.7-0.3,1.2-0.8,1.4-1.5c0.1-0.6,0.2-1.1,0.2-1.7c0.1-0.6,0-1.2,0-1.8c0.1-3.3,0-6.6,0.1-9.9
	c0-3.3,0-6.6,0-9.9c0-2,0-4,0-5.9c0-0.8,0-1.6-0.1-2.3c0-0.7-0.1-1.4-0.2-2.1c-0.1-0.4-0.2-0.9-0.4-1.2c-0.3-0.4-0.6-0.7-1.1-0.8
	C45.7,11,45.3,11,44.9,11c-0.2,0-0.3-0.1-0.5-0.1c-0.1,0-0.1-0.1-0.1-0.1c0-0.1,0-0.2-0.1-0.2c0-0.3,0-0.5,0-0.8c0,0,0.1,0,0.1,0
	c0-0.2,0.1-0.3,0.1-0.5c0.3,0,0.6,0,0.9,0c0,0.1,0.1,0.1,0.1,0.1c0.5,0,0.9,0,1.4,0c0.4,0,0.8,0,1.2,0c1.4,0,2.8,0.1,4.3,0
	c0.5,0,1.1-0.1,1.7-0.1c0.1,0,0.2,0,0.3-0.1c0.2,0,0.3,0,0.5,0c0.2,0.4,0.2,0.9,0.2,1.3c0,0.2-0.1,0.2-0.3,0.3
	c-0.4,0.1-0.8,0.1-1.2,0.2c-0.5,0.1-1,0.3-1.3,0.8c-0.1,0.2-0.2,0.4-0.3,0.6c-0.3,0.7-0.3,1.5-0.3,2.3c-0.1,0.7,0,1.4-0.1,2.1
	c0,2.6,0,5.2,0,7.8c0,0.7,0,1.4,0.1,2.1c0,0.3,0.1,0.6,0.4,0.7c0.2,0.1,0.4,0.2,0.7,0.2c4.6,0,9.3,0,13.9,0c0.2,0,0.5-0.1,0.7-0.2
	c0.2-0.1,0.3-0.2,0.3-0.4c0.1-0.4,0.1-0.8,0.1-1.1c0-3.2,0.1-6.5,0-9.7c0-0.9,0-1.7-0.1-2.6c-0.1-0.5-0.1-1-0.3-1.5
	c-0.2-0.6-0.7-1-1.3-1.1c-0.5-0.1-1-0.2-1.5-0.3c-0.1,0-0.1-0.1-0.2-0.1c0-0.1-0.1-0.2-0.1-0.3c0-0.4,0-0.8,0.2-1.2
	c0.2,0,0.3,0,0.5,0c0,0.1,0.1,0.1,0.1,0.1c0.3,0,0.7,0,1,0c0.4,0,0.8,0.1,1.2,0.1c1.6,0,3.1,0.1,4.7,0c0.6,0,1.1-0.1,1.7-0.1
	c0.1,0,0.2,0,0.3-0.1C73.9,9.3,74.1,9.3,74.3,9.3z"/>
<path style="fill:#FFFFFF;" d="M153.7,51.5c-0.2-0.2-0.2-0.3-0.2-0.6c0-0.7,0-1.4,0-2.2c0-0.2-0.1-0.4-0.1-0.5
	c0-0.1-0.1-0.1-0.2-0.1c-0.1,0.1-0.3,0.2-0.4,0.4c-0.6,0.6-1.1,1.3-1.9,1.7c-0.5,0.3-1,0.5-1.6,0.6c-1.2,0.2-2.3-0.1-3.3-0.9
	c-0.8-0.6-1.4-1.4-1.9-2.3c-0.4-0.8-0.8-1.6-1.1-2.5c-0.2-0.6-0.4-1.3-0.5-1.9c-0.1-0.4-0.1-0.8-0.2-1.2c0-0.2,0-0.5-0.1-0.7
	c-0.1-0.4,0-0.8-0.1-1.2c0,0,0-0.1,0-0.1c0-0.7,0-1.4,0-2.1c0-0.5,0-1,0.1-1.5c0.1-0.9,0.2-1.8,0.4-2.7c0.2-1.1,0.6-2.1,1-3.2
	c0.4-1,0.9-1.9,1.6-2.7c0.3-0.4,0.6-0.7,0.9-1c0.6-0.5,1.3-1,2-1.3c0.6-0.2,1.1-0.4,1.7-0.5c0.5-0.1,1,0,1.5,0
	c0.5,0.1,0.9,0.2,1.4,0.4c0.2,0.1,0.3,0,0.3-0.2c0-0.2,0.1-0.5,0.1-0.7c0-0.9,0-1.7,0-2.6c0-0.7-0.1-1.3-0.3-1.9
	c-0.1-0.3-0.3-0.6-0.5-0.9c-0.2-0.2-0.3-0.4-0.5-0.6c-0.1-0.1-0.2-0.2-0.2-0.4c0-0.2,0-0.4,0-0.6c0-0.2,0.1-0.3,0.2-0.3
	c0.6-0.3,1.2-0.7,1.7-1.2c0.4-0.3,0.7-0.7,1-1.1c0.3-0.3,0.5-0.7,0.8-1c0.1-0.1,0.1-0.2,0.3-0.1c0.1,0.1,0.2,0.2,0.2,0.3
	c0,0.1,0,0.1,0,0.2c0,2,0,4,0,6c-0.1,2.2,0,4.3,0,6.5c0,2.2,0,4.4,0,6.5c-0.1,2.9,0,5.9,0,8.8c0,1,0,2,0.1,3c0,0.7,0.1,1.5,0.3,2.2
	c0,0.1,0.1,0.3,0.2,0.4c0.2,0.3,0.5,0.4,0.9,0.3c0.3-0.1,0.6-0.2,0.8-0.4c0.3-0.2,0.5-0.1,0.5,0.2c0,0.4,0.1,0.9,0,1.3
	c0,0.2-0.1,0.3-0.3,0.4c-0.7,0.2-1.4,0.4-2.1,0.7c-0.6,0.2-1.2,0.5-1.8,0.8c-0.2,0.1-0.3,0.2-0.5,0.3
	C153.8,51.5,153.8,51.5,153.7,51.5z M153.4,38.1c0-2.1,0-4.3,0-6.4c0-0.3,0-0.6-0.1-0.9c-0.1-0.4-0.2-0.9-0.4-1.3
	c-0.3-0.8-0.8-1.5-1.5-2c-0.4-0.3-0.8-0.4-1.2-0.5c-0.5,0-1,0.1-1.5,0.3c-0.7,0.3-1.2,0.9-1.6,1.6c-0.4,0.6-0.7,1.2-0.9,1.9
	c-0.2,0.6-0.4,1.2-0.5,1.8c-0.1,0.6-0.2,1.1-0.3,1.7c0,0.2,0,0.4-0.1,0.6c-0.1,0.4-0.1,0.7-0.1,1.1c0,0.9-0.1,1.8,0,2.7
	c0.1,0.6,0.1,1.1,0.2,1.7c0.1,0.6,0.2,1.2,0.3,1.9c0.3,1.2,0.7,2.4,1.3,3.5c0.4,0.7,1,1.3,1.7,1.8c0.4,0.2,0.8,0.4,1.2,0.4
	c0.5,0.1,1,0,1.5-0.3c0.4-0.2,0.8-0.5,1.1-0.8c0.3-0.3,0.5-0.6,0.6-1c0.1-0.4,0.1-0.9,0.1-1.3C153.4,42.3,153.4,40.2,153.4,38.1z"/>
<path style="fill:#FFFFFF;" d="M271.5,45.4c-0.1,0.3-0.2,0.6-0.3,1c-0.3,0.8-0.7,1.5-1.2,2.2c-0.3,0.3-0.5,0.7-0.8,1
	c-0.7,0.6-1.5,1.1-2.4,1.3c-0.6,0.1-1.2,0.1-1.7,0c-0.7-0.2-1.4-0.5-1.9-1c-0.8-0.6-1.4-1.5-1.8-2.3c-0.5-1-0.9-2.1-1.2-3.3
	c-0.1-0.5-0.2-1.1-0.3-1.6c-0.1-0.5-0.1-0.9-0.2-1.4c0-0.3,0-0.5,0-0.8c-0.1-0.8-0.1-1.7,0-2.5c0-0.4,0-0.8,0.1-1.3
	c0-0.2,0-0.4,0.1-0.7c0.1-0.6,0.2-1.3,0.3-1.9c0.1-0.8,0.3-1.5,0.5-2.3c0.2-0.6,0.4-1.3,0.7-1.9c0.2-0.5,0.5-1,0.7-1.5
	c0.3-0.5,0.6-0.9,0.9-1.4c0.2-0.2,0.3-0.4,0.5-0.5c0.7-0.6,1.4-1.1,2.3-1.3c1.2-0.3,2.4,0,3.4,0.8c0.9,0.8,1.5,1.8,2,2.9
	c0.2,0.5,0.3,0.9,0.4,1.4c0.1,0.3,0.1,0.7,0.1,1.1c0,0.7,0,1.4,0,2.1c0,0.1,0,0.2,0,0.2c-0.1,0.3,0,0.5-0.5,0.6
	c-0.3,0.1-0.5,0.1-0.8,0.1c-2.5,0-4.9,0-7.4,0c-0.1,0-0.2,0-0.2,0c-0.2,0-0.4,0.1-0.5,0.3c-0.1,0.2-0.1,0.3-0.1,0.5
	c0,1.1,0,2.1,0.1,3.2c0.1,0.5,0.1,1,0.2,1.4c0.1,0.5,0.2,0.9,0.3,1.4c0.2,0.8,0.4,1.5,0.7,2.3c0.4,1.1,1,2,1.8,2.9
	c0.6,0.5,1.2,0.9,1.9,1.1c0.4,0.1,0.9,0.1,1.3,0.1c0.7-0.1,1.2-0.6,1.7-1.1c0.4-0.5,0.7-1.1,1-1.7c0.1-0.1,0.1-0.2,0.3-0.2
	c0.1,0,0.3,0.1,0.3,0.3c0,0.1,0,0.2,0.1,0.2C271.5,45.1,271.5,45.2,271.5,45.4z M264.4,32.5c1,0,1.9,0,2.9-0.1
	c0.3,0,0.6-0.1,0.9-0.2c0.5-0.1,0.7-0.4,0.7-0.9c0-1,0-1.9-0.4-2.8c-0.3-0.7-0.8-1.3-1.6-1.5c-0.5-0.2-1-0.1-1.5,0.1
	c-0.7,0.3-1.1,0.7-1.6,1.3c-0.6,0.7-1,1.5-1.2,2.3c-0.2,0.5-0.3,1-0.3,1.6c0,0.3,0.1,0.3,0.3,0.3C263.2,32.5,263.8,32.5,264.4,32.5z
	"/>
<path style="fill:#FFFFFF;" d="M173.7,38.2c0,2.8,0,5.1,0,7.4c0,0.6,0,1.3,0.2,1.9c0.2,0.5,0.5,0.9,1,1c0.2,0,0.3,0.1,0.5,0.1
	c0.4,0.1,0.4,0.1,0.4,0.5c0,0.3,0,0.7-0.1,1c0,0.1-0.1,0.2-0.3,0.1c-0.4-0.1-0.8-0.1-1.2-0.1c-1.1-0.1-2.2,0-3.3,0
	c-0.4,0-0.9,0-1.3,0.1c-0.2,0-0.4,0-0.7,0.1c-0.1,0-0.2,0-0.2-0.2c0-0.1-0.1-0.3-0.1-0.4c0-0.2,0-0.3,0-0.5c0-0.3,0.1-0.5,0.4-0.5
	c0.4-0.1,0.8-0.1,1.1-0.3c0.5-0.2,0.8-0.6,0.8-1.1c0-8.9,0-17.8,0-26.7c0-0.4-0.2-0.7-0.5-1c-0.2-0.3-0.6-0.5-0.8-0.8
	c-0.2-0.2-0.3-0.4-0.3-0.6c0-0.2,0-0.4,0-0.6c0-0.1,0.1-0.2,0.2-0.2c0.8-0.4,1.5-1.1,2.2-1.8c0.4-0.5,0.8-0.9,1.3-1.4
	c0.1-0.1,0.2-0.2,0.3-0.2c0.1,0.1,0.3,0.2,0.3,0.4c0,0.3,0,0.5,0,0.8c0,0.2,0,0.3,0,0.5c0,1,0,2.1,0,3.1c-0.1,3,0,5.9-0.1,8.9
	c0,0.2,0,0.4,0.1,0.5c0,0.1,0.1,0.1,0.2,0c0,0,0.1-0.1,0.1-0.1c0.4-0.6,0.9-1.1,1.5-1.5c0.4-0.3,0.8-0.6,1.2-0.9
	c0.4-0.2,0.8-0.4,1.2-0.4c0.4-0.1,0.7-0.1,1.1,0c0.5,0,1,0.2,1.5,0.5c0.9,0.5,1.4,1.3,1.8,2.2c0.2,0.6,0.4,1.2,0.5,1.8
	c0.1,0.3,0.1,0.6,0.1,0.9c0,0.4,0.1,0.9,0.1,1.3c0,0.4,0,0.8,0,1.2c0,4.1,0,8.3,0,12.4c0,0.5,0,0.9,0.1,1.4c0,0.2,0.1,0.5,0.1,0.7
	c0.1,0.6,0.5,0.9,1.1,1c0.3,0,0.5,0.1,0.8,0.2c0.1,0,0.2,0.1,0.2,0.2c0.1,0.4,0.1,0.8,0,1.1c-0.1,0.2-0.2,0.3-0.4,0.2
	c-0.1,0-0.3,0-0.4,0c-0.4-0.1-0.8,0-1.2-0.1c-0.1,0-0.1,0-0.2,0c-1,0-2,0-3,0c-0.4,0-0.7,0-1.1,0.1c-0.2,0-0.4,0-0.6,0.1
	c-0.1,0-0.1,0-0.2-0.1c-0.1-0.1-0.1-0.2-0.1-0.3c0-0.3-0.1-0.6,0-1c0-0.1,0.1-0.1,0.2-0.2c0.2,0,0.4-0.1,0.6-0.2
	c0.6-0.2,1-0.5,1.1-1.1c0.1-0.3,0.1-0.6,0.1-1c0.1-2.1,0-4.2,0-6.3c0-2.1,0-4.2,0-6.3c0-0.5-0.1-1-0.1-1.4c-0.1-0.5-0.2-1-0.3-1.6
	c-0.2-0.8-0.5-1.5-1-2.1c-0.4-0.5-0.9-0.8-1.6-0.9c-0.6-0.1-1.1,0-1.6,0.3c-0.2,0.1-0.4,0.2-0.6,0.4c-0.7,0.6-1.2,1.3-1.5,2.1
	c-0.1,0.2-0.1,0.4-0.1,0.5C173.6,33.7,173.8,36.2,173.7,38.2z"/>
<path style="fill:#FFFFFF;" d="M231.9,48.1c0.5,0,0.9,0,1.4,0c0.6,0,1.3-0.1,1.9-0.3c0.5-0.2,0.8-0.5,1.1-0.9c0.6-1.1,1-2.2,1.4-3.4
	c0.2-0.6,0.4-1.2,0.5-1.9c0-0.1,0-0.1,0-0.2c0.1-0.3,0.2-0.4,0.5-0.3c0.4,0.1,0.5,0.3,0.4,0.7c0,0.2,0,0.5-0.1,0.7
	c-0.1,0.3-0.1,0.7-0.2,1c-0.1,0.3-0.1,0.6-0.1,0.8c-0.1,0.4-0.1,0.8-0.2,1.2c-0.1,0.5-0.2,1-0.3,1.5c-0.2,1-0.3,1.9-0.6,2.9
	c0,0.1-0.1,0.2-0.2,0.2c-0.5-0.1-0.9,0-1.4-0.1c0,0-0.1,0-0.1,0c-1.6,0-3.1-0.1-4.7-0.1c-2.4,0-4.7,0-7.1,0c-0.6,0-1.2,0-1.8,0.1
	c-0.1,0-0.3,0-0.4,0c-0.2,0-0.3,0-0.5,0c-0.3,0.1-0.4,0-0.4-0.3c-0.1-0.4-0.1-0.7,0-1.1c0-0.1,0.1-0.1,0.2-0.2
	c0.4-0.1,0.8-0.1,1.2-0.2c0.7-0.2,1.2-0.5,1.4-1.2c0.1-0.4,0.2-0.7,0.2-1.1c0.1-0.7,0.1-1.5,0.1-2.2c0.1-3,0-6,0-9c0-3,0-6,0-8.9
	c0-3,0-6,0-9c0-0.7,0-1.5-0.1-2.2c0-0.7-0.1-1.4-0.3-2c-0.3-0.9-0.7-1.3-1.6-1.5c-0.3-0.1-0.7-0.1-1.1-0.2c-0.2,0-0.3-0.1-0.3-0.3
	c0-0.3,0-0.7,0-1c0.1-0.2,0.2-0.3,0.4-0.2c0.1,0,0.2,0,0.4,0c0.5,0,1,0,1.5,0.1c0.4,0,0.9,0,1.3,0c0.8,0,1.7,0,2.5,0
	c0.5,0,1.1,0,1.6-0.1c0.4,0,0.7,0,1.1-0.1c0.1,0,0.2,0,0.3,0.1c0,0.1,0.1,0.2,0.1,0.4c0,0.2,0,0.5,0,0.7c0,0.2-0.1,0.3-0.3,0.3
	c-0.3,0.1-0.6,0.1-0.9,0.2c-0.4,0.1-0.7,0.2-1,0.4c-0.2,0.2-0.4,0.4-0.5,0.7c-0.2,0.5-0.2,0.9-0.3,1.4c-0.1,1.3-0.1,2.5-0.1,3.8
	c-0.1,2.5,0,5.1,0,7.6c0,2.6,0,5.1,0,7.7c0,2.5,0,5.1,0,7.6c0,0.9,0,1.8,0,2.8c0,0.8,0.1,1.6,0.3,2.4c0.2,0.6,0.4,1.3,0.9,1.7
	c0.1,0.1,0.2,0.2,0.3,0.2c0.5,0.3,1.1,0.4,1.7,0.5C230.9,48.1,231.4,48.1,231.9,48.1z"/>
<path style="fill:#FFFFFF;" d="M118.2,38.3c0-0.4,0-0.7,0-1c0-0.4,0-0.8,0.1-1.2c0.1-0.9,0.2-1.8,0.4-2.7c0.3-1.2,0.6-2.3,1.1-3.4
	c0.4-0.9,0.8-1.7,1.4-2.4c0.6-0.7,1.2-1.3,2-1.8c0.5-0.3,0.9-0.5,1.5-0.6c0.2-0.1,0.5-0.1,0.7-0.1c0.5,0,1,0,1.5,0.1
	c0.5,0.2,1,0.4,1.5,0.7c0.3,0.2,0.6,0.5,0.9,0.7c0.3,0.3,0.6,0.6,0.9,1c0.5,0.6,0.8,1.3,1.2,2c0.3,0.7,0.6,1.5,0.8,2.2
	c0.1,0.5,0.3,1.1,0.4,1.6c0.1,0.3,0.1,0.6,0.1,0.9c0.1,0.4,0.1,0.9,0.2,1.3c0,0,0,0.1,0,0.1c0.1,0.8,0,1.6,0.1,2.4
	c0,0.5,0,1-0.1,1.5c0,0.6-0.1,1.1-0.2,1.7c-0.1,0.7-0.2,1.4-0.4,2.1c-0.2,0.8-0.5,1.6-0.8,2.4c-0.4,1-0.9,1.9-1.6,2.7
	c-0.4,0.4-0.8,0.8-1.2,1.2c-0.4,0.3-0.8,0.6-1.3,0.7c-0.3,0.1-0.7,0.2-1.1,0.3c-0.3,0-0.6,0.1-0.9,0c-0.8,0-1.6-0.3-2.3-0.7
	c-0.7-0.4-1.2-0.9-1.7-1.4c-0.4-0.4-0.7-0.9-1-1.5c-0.4-0.8-0.8-1.7-1.1-2.6c-0.2-0.7-0.4-1.5-0.5-2.2c-0.1-0.5-0.1-0.9-0.2-1.4
	c0-0.3-0.1-0.6-0.1-0.9C118.2,39.6,118.2,38.9,118.2,38.3z M121.2,37.6c0,0.4,0,1,0,1.6c0.1,0.5,0.1,1.1,0.1,1.6
	c0,0.4,0.1,0.8,0.1,1.1c0.1,0.6,0.2,1.2,0.3,1.8c0.3,1.2,0.6,2.3,1.2,3.4c0.4,0.6,0.8,1.2,1.4,1.6c0.7,0.5,1.5,0.5,2.3,0.2
	c0.7-0.3,1.1-0.9,1.5-1.5c0.3-0.6,0.6-1.2,0.8-1.9c0.3-1,0.5-2.1,0.6-3.1c0-0.2,0-0.4,0.1-0.6c0.1-0.3,0-0.7,0.1-1
	c0.1-0.4,0-0.8,0.1-1.1c0-0.7,0.1-1.3,0-2c-0.1-0.4,0-0.9-0.1-1.4c0-0.3,0-0.6-0.1-0.9c-0.1-0.5-0.1-1-0.2-1.5
	c-0.1-0.6-0.2-1.3-0.4-1.9c-0.2-0.7-0.4-1.4-0.7-2.1c-0.3-0.8-0.7-1.5-1.3-2.1c-0.3-0.3-0.7-0.5-1.1-0.7c-0.6-0.2-1.2-0.1-1.7,0.2
	c-0.6,0.4-1.1,0.9-1.4,1.6c-0.5,0.9-0.8,1.8-1,2.8c-0.1,0.6-0.3,1.3-0.4,1.9c-0.1,0.5-0.1,1.1-0.2,1.6c0,0.4-0.1,0.9-0.1,1.3
	C121.2,36.7,121.2,37.1,121.2,37.6z"/>
<path style="fill:#FFFFFF;" d="M254.5,38.2c0,2.6,0,5.3,0,7.9c0,0.6,0,1.2,0.2,1.9c0.1,0.4,0.4,0.7,0.8,0.7c0.3,0.1,0.6,0.1,0.9,0.1
	c0.2,0,0.4,0.1,0.5,0.1c0.1,0,0.1,0,0.1,0.1c0.1,0.4,0.1,0.7,0,1.1c0,0.1-0.1,0.2-0.3,0.2c-0.4-0.1-0.8,0-1.2-0.1c0,0-0.1,0-0.1,0
	c-1.2-0.1-2.3-0.1-3.5,0c-0.4,0-0.8,0-1.2,0.1c-0.3,0.1-0.6,0-0.9,0.1c-0.1,0-0.2,0-0.3-0.2c-0.1-0.3-0.1-0.6,0-1
	c0-0.1,0.1-0.2,0.2-0.2c0.3,0,0.6-0.1,0.9-0.2c0.3-0.1,0.6-0.2,0.8-0.5c0.1-0.1,0.1-0.2,0.1-0.4c0.1-0.3,0.1-0.6,0.1-0.9
	c0.1-0.7,0-1.4,0-2.1c0-5,0-10,0-15c0-0.6-0.1-1.2-0.3-1.8c-0.1-0.3-0.2-0.4-0.5-0.4c-0.4,0-0.8,0-1.1,0c-0.2,0-0.2,0-0.3-0.3
	c-0.1-0.3,0-0.6,0-0.8c0-0.4,0.3-0.5,0.6-0.7c0.3-0.2,0.6-0.4,1-0.6c0.4-0.2,0.5-0.5,0.5-0.9c0.1-0.3,0.1-0.7,0.1-1
	c0-0.4,0.1-0.7,0.2-1.1c0.3-1,0.5-1.9,0.8-2.9c0.2-0.7,0.5-1.4,0.8-2.1c0.3-0.7,0.7-1.4,1.1-2c0.7-0.9,1.4-1.7,2.5-2.2
	c0.4-0.2,0.8-0.3,1.3-0.4c0.3,0,0.7,0,1,0c0.3,0,0.7,0.1,1,0.2c0.7,0.3,1.3,0.7,1.7,1.4c0.2,0.4,0.3,0.8,0.3,1.3
	c0,0.4,0,0.8-0.2,1.1c-0.1,0.3-0.4,0.6-0.7,0.8c-0.5,0.3-1,0.1-1.2-0.3c-0.4-0.6-0.8-1.2-1.3-1.7c-0.4-0.4-0.8-0.6-1.4-0.7
	c-0.5-0.1-0.9,0.1-1.3,0.4c-0.6,0.5-0.9,1.1-1.2,1.8c-0.3,0.8-0.5,1.6-0.6,2.4c-0.1,0.5-0.2,1.1-0.2,1.7c0,0.5-0.1,1.1-0.1,1.6
	c0,0.4,0,0.7,0,1.1c0,0.3,0.1,0.6,0.1,1c0,0.1,0,0.1,0.1,0.2c0.1,0.3,0.2,0.3,0.5,0.3c0.4,0,0.8,0,1.3,0c0.8,0,1.5,0,2.3,0
	c0.3,0,0.4,0.1,0.4,0.3c0,0.2,0.1,0.3,0.1,0.5c0,0.2,0,0.5,0,0.8c0,0.3-0.1,0.5-0.2,0.8c-0.1,0.2-0.2,0.2-0.3,0.2
	c-0.9,0-1.8,0-2.7,0c-0.3,0-0.6,0-0.8,0c-0.2,0-0.3,0.1-0.4,0.3c-0.1,0.3-0.2,0.7-0.2,1c0,0.4-0.1,0.7-0.1,1.1
	C254.5,32.9,254.5,35.5,254.5,38.2z"/>
<path style="fill:#FFFFFF;" d="M115.8,28.5c-0.6,0-1.1,0-1.7,0c-0.2,0-0.4,0.1-0.5,0.3c-0.1,0.3-0.1,0.6-0.2,0.9
	c-0.1,0.8,0,1.7-0.1,2.5c-0.1,2.5,0,5,0,7.5c0,1.7,0,3.4,0,5.1c0,0.8,0,1.7,0.1,2.5c0,0.5,0.1,0.9,0.3,1.4c0.1,0.3,0.3,0.5,0.6,0.5
	c0.2,0.1,0.4,0.1,0.6,0.1c0.3,0,0.7,0.1,1,0.1c0.1,0,0.2,0.1,0.2,0.2c0.1,0.4,0.1,0.7-0.1,1c0,0.1-0.1,0.1-0.2,0.1
	c-0.4-0.1-0.9,0-1.3-0.1c0,0-0.1,0-0.1,0c-1,0-2-0.1-2.9-0.1c-0.5,0-1,0-1.5,0.1c-0.3,0-0.6,0-1,0.1c-0.2,0.1-0.3,0-0.4-0.2
	c-0.1-0.3-0.1-0.6,0-0.9c0-0.1,0.1-0.2,0.2-0.2c0.3,0,0.6-0.1,1-0.2c0.5-0.1,0.8-0.5,0.9-1c0.1-0.3,0.1-0.6,0.1-1
	c0.1-5.4,0-10.8,0-16.1c0-0.5,0-1-0.1-1.5c0-0.3-0.1-0.5-0.1-0.8c0,0,0-0.1,0-0.1c-0.1-0.4-0.4-0.4-0.7-0.4c-0.3,0-0.6,0-1,0
	c-0.2,0-0.2,0-0.3-0.3c0-0.3,0-0.5,0-0.8c0-0.2,0.1-0.4,0.3-0.5c0.5-0.3,0.9-0.6,1.4-0.9c0.2-0.1,0.3-0.3,0.3-0.4
	c0.1-0.3,0.1-0.6,0.2-0.9c0-0.5,0.2-1.1,0.3-1.6c0.3-1,0.6-2.1,0.9-3.1c0.2-0.7,0.5-1.3,0.8-1.9c0.3-0.6,0.6-1.2,1-1.7
	c0.3-0.4,0.6-0.9,1-1.2c0.7-0.6,1.4-1.1,2.3-1.3c0.5-0.1,1-0.2,1.5-0.1c0.7,0.1,1.4,0.3,1.9,0.8c0.6,0.5,1,1.1,1.1,1.9
	c0.1,0.7,0,1.4-0.5,1.9c-0.2,0.3-0.5,0.4-0.9,0.4c-0.2,0-0.5-0.1-0.6-0.3c-0.3-0.4-0.5-0.8-0.8-1.2c-0.4-0.5-0.8-0.9-1.3-1.2
	c-0.9-0.5-1.8-0.2-2.4,0.5c-0.6,0.7-0.8,1.5-1.1,2.4c-0.1,0.4-0.2,0.9-0.3,1.3c-0.1,0.3-0.1,0.6-0.1,0.9c-0.1,0.5-0.1,1-0.2,1.5
	c-0.1,0.7-0.1,1.5-0.1,2.2c0,0.3,0.1,0.6,0.2,0.9c0.1,0.2,0.2,0.3,0.5,0.3c1.2,0,2.4,0,3.5,0c0.3,0,0.3,0,0.4,0.3
	c0.1,0.5,0.2,0.9,0.1,1.4c0,0.2-0.1,0.4-0.1,0.6c-0.1,0.3-0.1,0.3-0.4,0.3C116.9,28.5,116.4,28.5,115.8,28.5z"/>
<path style="fill:#FFFFFF;" d="M211.4,34.4c-1.2,0-2.5,0-3.7,0c-0.1,0-0.2,0-0.3,0c-0.4,0.1-0.5,0.3-0.5,0.7c0,0.7,0,1.5,0,2.2
	c0,0.4,0,0.9,0.1,1.3c0.1,0.8,0.2,1.5,0.4,2.3c0.2,0.8,0.4,1.5,0.6,2.2c0.3,0.9,0.7,1.7,1.3,2.5c0.5,0.6,1.1,1.2,1.8,1.5
	c0.4,0.2,0.9,0.3,1.4,0.3c0.3,0,0.5,0,0.8,0c0.6-0.1,1.1-0.5,1.5-1c0.4-0.5,0.8-1.1,1.1-1.8c0.1-0.1,0.1-0.2,0.3-0.2
	c0.2,0,0.2,0.1,0.3,0.2c0.1,0.3,0.2,0.5,0.1,0.8c-0.2,0.6-0.4,1.3-0.8,1.9c-0.3,0.6-0.7,1.1-1.1,1.6c-0.4,0.5-0.9,0.9-1.4,1.2
	c-0.5,0.3-1,0.5-1.6,0.6c-1.2,0.2-2.3-0.1-3.3-0.8c-0.7-0.5-1.2-1.1-1.7-1.8c-0.4-0.7-0.8-1.4-1-2.1c-0.3-0.7-0.5-1.4-0.6-2.1
	c-0.1-0.5-0.2-0.9-0.3-1.4c-0.1-0.5-0.1-1-0.2-1.4c-0.1-1.2-0.1-2.3-0.1-3.5c0-0.5,0.1-1,0.1-1.6c0.2-1.4,0.4-2.8,0.8-4.2
	c0.2-0.7,0.5-1.4,0.8-2.1c0.3-0.7,0.7-1.4,1.1-2c0.3-0.5,0.7-1,1.2-1.4c0.6-0.6,1.3-1,2.2-1.2c1-0.2,2-0.1,3,0.5
	c0.7,0.5,1.3,1.1,1.7,1.8c0.5,0.8,0.8,1.6,1,2.5c0.1,0.4,0.2,0.8,0.2,1.2c0.1,0.7,0,1.3,0,2c0,0.2,0,0.4-0.1,0.5
	c-0.1,0.4-0.3,0.5-0.7,0.5c-0.6,0.1-1.2,0-1.8,0.1C213.1,34.4,212.2,34.4,211.4,34.4z M209.3,32.5c1,0,1.9,0,2.9-0.1
	c0.3,0,0.6-0.1,0.9-0.2c0.5-0.2,0.7-0.5,0.7-0.9c0-0.5,0-1,0-1.5c-0.1-0.6-0.3-1.3-0.6-1.8c-0.2-0.4-0.6-0.7-1-0.9
	c-0.8-0.4-1.6-0.3-2.3,0.2c-0.5,0.3-0.9,0.8-1.2,1.3c-0.4,0.6-0.7,1.2-1,1.8c-0.2,0.6-0.4,1.1-0.4,1.7c0,0.3,0,0.4,0.3,0.4
	C208.1,32.5,208.7,32.5,209.3,32.5z"/>
<path style="fill:#FFFFFF;" d="M81,34.4c-1.2,0-2.5,0-3.7,0c-0.1,0-0.1,0-0.2,0c-0.3,0-0.6,0.2-0.6,0.6c0,0.4-0.1,0.8-0.1,1.2
	c0,0.5,0,1.1,0.1,1.6c0,0.5,0.1,1.1,0.2,1.6c0.2,1,0.3,2,0.6,2.9c0.2,0.8,0.5,1.6,0.9,2.3c0.3,0.5,0.6,1,1,1.4
	c0.4,0.4,0.8,0.8,1.3,1c0.3,0.2,0.7,0.3,1,0.4c0.4,0.1,0.7,0.1,1.1,0c0.5,0,0.9-0.2,1.2-0.5c0.6-0.5,1-1.2,1.4-1.9
	c0.1-0.1,0.1-0.2,0.2-0.4c0.1-0.2,0.4-0.2,0.5,0c0.2,0.3,0.2,0.6,0.1,0.9c-0.2,0.7-0.5,1.5-0.9,2.1c-0.4,0.8-1,1.5-1.6,2.1
	c-0.6,0.5-1.3,0.9-2.1,1.1c-0.5,0.1-0.9,0.1-1.4,0c-0.5-0.1-0.9-0.2-1.3-0.4c-0.4-0.2-0.8-0.4-1.1-0.7c-0.5-0.5-1-1-1.4-1.6
	c-0.4-0.6-0.7-1.2-0.9-1.9c-0.3-0.7-0.5-1.4-0.7-2.2c-0.1-0.6-0.2-1.1-0.3-1.7c-0.1-0.4-0.1-0.8-0.1-1.2c0-0.5-0.1-1-0.1-1.4
	c0-0.3-0.1-0.7-0.1-1c0.1-0.5,0-1,0.1-1.5c0.1-0.5,0.1-1,0.1-1.5c0.1-1.2,0.4-2.5,0.7-3.7c0.2-0.8,0.5-1.5,0.8-2.2
	c0.3-0.7,0.7-1.4,1.1-2.1c0.4-0.6,0.9-1.1,1.5-1.6c0.7-0.5,1.4-0.9,2.2-1c0.8-0.1,1.6,0,2.4,0.5c0.8,0.5,1.4,1.1,1.9,1.9
	c0.6,0.9,0.9,1.9,1.1,3c0.1,0.4,0.1,0.7,0.1,1.1c0,0.4,0,0.7,0,1c0,0.4-0.1,0.8-0.1,1.2c0,0.3-0.3,0.4-0.7,0.5
	c-0.6,0.1-1.2,0-1.9,0.1C82.7,34.4,81.9,34.4,81,34.4z M79,32.5c0.9,0,1.9,0,2.8-0.1c0.3,0,0.7-0.1,1-0.2c0.3-0.1,0.5-0.3,0.6-0.7
	c0-0.2,0.1-0.4,0.1-0.6c0-0.6-0.1-1.2-0.2-1.8c-0.2-0.7-0.5-1.3-1.1-1.7c-0.5-0.4-1.1-0.5-1.7-0.4c-0.6,0.1-1.1,0.4-1.5,0.8
	c-0.4,0.4-0.7,0.8-1,1.3c-0.4,0.6-0.6,1.3-0.8,1.9c-0.1,0.4-0.1,0.7-0.2,1.1c0,0.2,0,0.4,0.4,0.4C77.8,32.5,78.4,32.5,79,32.5z"/>
<path style="fill:#FFFFFF;" d="M168.4,30.4c0,0.3,0,0.5,0,0.7c0,0.3-0.4,0.5-0.6,0.4c-0.1,0-0.2-0.1-0.2-0.3
	c-0.1-0.6-0.3-1.2-0.6-1.8c-0.3-0.7-0.6-1.4-1.1-1.9c-0.4-0.4-0.9-0.7-1.6-0.6c-0.5,0.1-0.9,0.3-1.2,0.6c-0.4,0.5-0.7,1.2-0.8,1.8
	c0,0.2-0.1,0.5-0.1,0.7c0,0.2-0.1,0.3-0.1,0.5c0,0.8,0.2,1.5,0.4,2.2c0.2,0.6,0.6,1.1,1,1.5c0.5,0.6,1.1,1.1,1.6,1.7
	c0.5,0.6,1.1,1.2,1.5,1.8c0.7,1,1.2,2.1,1.4,3.3c0.1,0.5,0.2,1,0.2,1.5c0.1,0.7,0.1,1.5,0,2.2c0,0.6-0.1,1.2-0.3,1.8
	c-0.2,0.6-0.4,1.2-0.7,1.7c-0.2,0.4-0.5,0.8-0.8,1.1c-0.4,0.4-0.9,0.8-1.4,1.1c-0.4,0.2-0.8,0.3-1.3,0.4c-0.8,0.1-1.6,0-2.4-0.2
	c-0.5-0.2-1-0.4-1.4-0.8c-0.1-0.1-0.2-0.2-0.3-0.3c-0.2-0.2-0.4-0.5-0.4-0.8c0-0.4-0.1-0.7-0.1-1.1c0-0.5-0.1-0.9-0.1-1.4
	c0-0.4,0-0.7,0-1.1c-0.1-0.7,0-1.4-0.1-2c0-0.2,0.1-0.3,0.2-0.4c0.2-0.2,0.6-0.1,0.6,0.2c0.1,0.4,0.2,0.8,0.3,1.3
	c0.2,0.9,0.5,1.7,0.8,2.6c0.3,0.7,0.6,1.3,1.1,1.8c0.4,0.4,0.9,0.7,1.5,0.6c0.6,0,1.1-0.3,1.4-0.7c0.4-0.6,0.6-1.2,0.8-1.9
	c0.1-0.6,0.1-1.2,0.1-1.8c-0.1-0.9-0.2-1.7-0.6-2.5c-0.3-0.6-0.7-1.2-1.1-1.7c-0.3-0.4-0.7-0.7-1.1-1.1c-0.7-0.7-1.4-1.5-1.9-2.4
	c-0.6-0.9-1-1.9-1.2-2.9c-0.1-0.4-0.1-0.8-0.2-1.2c-0.1-0.6-0.1-1.1,0-1.7c0.1-1.1,0.2-2.2,0.7-3.2c0.3-0.8,0.8-1.5,1.4-2
	c0.6-0.5,1.2-0.8,2-0.9c0.9-0.1,1.7,0,2.5,0.2c0.4,0.1,0.7,0.3,1,0.5c0.2,0.1,0.3,0.3,0.3,0.5c0.1,0.5,0.2,1.1,0.3,1.6
	c0,0.4,0.1,0.8,0.2,1.1c0,0,0,0,0,0.1C168.3,29.6,168.5,30.1,168.4,30.4z"/>
<path style="fill:#FFFFFF;" d="M100.4,38.2c0-3.2,0-5.8,0-8.4c0-0.3-0.1-0.5-0.1-0.8c0-0.4-0.2-0.5-0.7-0.5c-0.3,0-0.6,0-0.8,0
	c-0.2,0-0.2,0-0.3-0.2c-0.1-0.3-0.1-0.6,0-0.9c0-0.1,0.1-0.2,0.2-0.2c0.4-0.2,0.7-0.4,1-0.7c0.5-0.4,1-0.9,1.3-1.5
	c0.5-0.9,0.8-1.9,1.2-2.9c0,0,0-0.1,0-0.1c0.1-0.3,0.2-0.3,0.4-0.3c0.2,0,0.4,0.2,0.4,0.4c0,0.1,0,0.1,0,0.2c0,1,0,2,0,3
	c0,0.1,0,0.1,0,0.2c0.1,0.4,0.1,0.5,0.6,0.5c1.2,0,2.5,0,3.7,0c0.2,0,0.3,0.1,0.4,0.2c0.1,0.2,0.1,0.4,0.1,0.6
	c0,0.2,0.1,0.3,0.1,0.5c0,0.3-0.1,0.6-0.1,0.9c-0.1,0.3-0.1,0.3-0.4,0.3c-1.2,0-2.4,0-3.6,0c-0.1,0-0.2,0-0.3,0
	c-0.3,0.1-0.4,0.2-0.4,0.5c-0.1,0.5-0.1,1-0.1,1.5c0,3.7,0,7.5,0,11.2c0,0.6,0,1.2,0.1,1.8c0,0.8,0.1,1.6,0.3,2.3
	c0.1,0.5,0.3,1,0.6,1.4c0.3,0.5,0.8,0.7,1.3,0.8c0.6,0.1,1-0.1,1.5-0.5c0.2-0.2,0.3-0.4,0.5-0.5c0.2-0.2,0.3-0.2,0.4,0.1
	c0.2,0.4,0.2,0.8-0.1,1.2c-0.2,0.2-0.3,0.5-0.5,0.8c-0.6,0.8-1.3,1.4-2.3,1.6c-0.4,0.1-0.9,0.1-1.3,0c-0.3,0-0.6-0.1-0.9-0.2
	c-0.2-0.1-0.3-0.2-0.4-0.3c-0.4-0.3-0.7-0.6-0.9-1c-0.4-0.7-0.6-1.4-0.7-2.1c-0.1-0.4-0.1-0.8-0.1-1.2
	C100.3,43.2,100.4,40.4,100.4,38.2z"/>
<path style="fill:#FFFFFF;" d="M91.9,28.7c0.1-0.1,0.2-0.2,0.3-0.4c0.4-0.6,0.8-1.2,1.3-1.7c0.4-0.4,0.8-0.9,1.3-1.2
	c0.3-0.2,0.6-0.3,1-0.3c0.4,0,0.8,0.2,1,0.5c0.3,0.5,0.5,1,0.5,1.6c0,0.3,0,0.5,0,0.8c0,0.7-0.2,1.3-0.6,1.8c-0.2,0.3-0.6,0.6-1,0.6
	c-0.2,0-0.4-0.1-0.5-0.2c-0.2-0.2-0.4-0.4-0.6-0.6c-0.3-0.3-0.6-0.4-0.9-0.5c-0.3-0.1-0.5,0.1-0.7,0.2c-0.3,0.3-0.5,0.6-0.7,1
	c-0.2,0.4-0.2,0.8-0.3,1.3c-0.1,0.4-0.1,0.9-0.1,1.3c-0.1,0.7,0,1.5,0,2.2c0,3.6,0,7.2,0,10.7c0,0.6,0,1.3,0.2,1.9
	c0.2,0.5,0.5,0.8,1.1,0.9c0.4,0.1,0.8,0.1,1.2,0.2c0.1,0,0.2,0,0.2,0.1c0,0,0,0.1,0,0.1c0,0.3,0.1,0.7,0,1c-0.1,0.3-0.2,0.3-0.4,0.2
	c-0.1,0-0.1,0-0.2,0c-0.5,0-0.9,0-1.4-0.1c-1.1-0.1-2.3,0-3.4,0c-0.4,0-0.8,0-1.2,0.1c-0.2,0-0.3,0-0.5,0.1c-0.1,0-0.1,0-0.2-0.1
	C87.1,50,87,49.9,87,49.8c0-0.3-0.1-0.5,0-0.8c0.1-0.3,0.1-0.3,0.4-0.4c0.3-0.1,0.6-0.1,0.9-0.3c0.3-0.2,0.5-0.5,0.6-0.8
	c0.1-0.4,0.2-0.9,0.2-1.3c0.1-2.5,0-5.1,0-7.6c0-2.5,0-5,0-7.6c0-0.5-0.1-1.1-0.3-1.5c-0.2-0.3-0.4-0.6-0.7-0.9
	c-0.2-0.2-0.3-0.4-0.3-0.7c0-0.5,0.1-0.7,0.5-1c0.4-0.2,0.7-0.5,1.1-0.8c0.4-0.3,0.7-0.6,1.1-0.9c0.3-0.2,0.5-0.5,0.8-0.8
	c0.2-0.2,0.3-0.2,0.4,0.1c0.1,0.1,0.1,0.2,0.1,0.3c0,1.2,0,2.4,0,3.6C91.8,28.4,91.7,28.6,91.9,28.7z"/>
<path style="fill:#FFFFFF;" d="M137.6,26.4c0,0.5,0,1,0,1.5c0,0.2,0.1,0.5,0.1,0.7c0,0,0,0.1,0.1,0.1c0,0,0.1,0,0.1-0.1
	c0.2-0.3,0.4-0.5,0.6-0.8c0.4-0.5,0.8-1.1,1.2-1.6c0.3-0.4,0.7-0.7,1.1-1c0.3-0.2,0.7-0.3,1.1-0.2c0.3,0.1,0.5,0.2,0.7,0.4
	c0.3,0.3,0.5,0.8,0.5,1.2c0.1,0.8,0.1,1.6-0.2,2.3c-0.1,0.3-0.3,0.6-0.5,0.9c-0.4,0.4-1,0.6-1.5,0.1c-0.3-0.3-0.6-0.6-1-0.9
	c-0.5-0.3-1-0.4-1.5,0.3c-0.4,0.4-0.5,1-0.6,1.5c-0.1,0.5-0.1,1-0.2,1.5c0,0.5,0,1.1,0,1.6c-0.1,3.3,0,6.6,0,9.9
	c0,0.7,0,1.5,0.1,2.2c0,0.5,0.1,1.1,0.3,1.6c0.1,0.3,0.3,0.5,0.7,0.6c0.3,0.1,0.6,0.1,0.8,0.2c0.3,0,0.5,0.1,0.8,0.1
	c0.1,0,0.1,0,0.1,0.1c0,0.1,0.1,0.2,0.1,0.3c0,0.3,0,0.6-0.1,0.9c-0.1,0.3-0.2,0.4-0.5,0.3c-0.1,0-0.3,0-0.4,0c-0.5-0.1-1,0-1.5-0.1
	c-0.1,0-0.1,0-0.2,0c-0.8,0-1.6,0-2.5,0c-0.5,0-0.9,0-1.4,0.1c-0.2,0-0.5,0-0.7,0.1c-0.2,0.1-0.2,0-0.3-0.2c-0.1-0.4-0.1-0.8,0-1.2
	c0-0.1,0.1-0.1,0.2-0.2c0.3-0.1,0.5-0.2,0.8-0.3c0.5-0.1,0.8-0.5,0.9-0.9c0.1-0.2,0.1-0.5,0.1-0.8c0.1-0.4,0-0.7,0-1.1
	c0.1-1.8,0-3.7,0.1-5.5c0-1.8,0-3.7,0-5.5c0-1.1,0-2.1,0-3.2c0-0.5,0-1.1-0.2-1.6c-0.1-0.4-0.4-0.7-0.6-1c-0.1-0.2-0.3-0.3-0.4-0.5
	c-0.2-0.2-0.2-0.5-0.2-0.8c0-0.3,0.3-0.5,0.5-0.6c0.4-0.3,0.8-0.6,1.3-1c0.6-0.5,1.2-1,1.8-1.6c0.1-0.1,0.1-0.1,0.2-0.1
	c0.1,0.1,0.2,0.1,0.2,0.3c0,0.2,0,0.5,0,0.7C137.6,25.6,137.6,26,137.6,26.4z"/>
<path style="fill:#FFFFFF;" d="M199.2,26.4c0,0.6,0,1.1,0,1.7c0,0.1,0,0.3,0.1,0.4c0,0,0,0.1,0.1,0.1c0.1,0,0.1,0,0.1-0.1
	c0.2-0.3,0.4-0.7,0.7-1c0.3-0.4,0.6-0.8,1-1.2c0.3-0.3,0.6-0.6,0.9-0.9c0.4-0.3,0.8-0.5,1.4-0.4c0.2,0,0.4,0.1,0.5,0.2
	c0.4,0.3,0.6,0.7,0.7,1.2c0.1,0.5,0.1,0.9,0.1,1.4c0,0.6-0.2,1.2-0.5,1.7c-0.1,0.2-0.2,0.3-0.4,0.4c-0.4,0.3-0.8,0.3-1.2-0.1
	c-0.3-0.3-0.6-0.7-1-0.9c-0.6-0.3-1.1-0.3-1.6,0.3c-0.4,0.5-0.6,1.1-0.7,1.8c-0.1,0.8-0.1,1.6-0.2,2.4c-0.1,0.9,0,1.8,0,2.7
	c0,2.7,0,5.4,0,8.2c0,0.6,0,1.2,0.1,1.8c0,0.5,0.1,1,0.3,1.4c0.1,0.3,0.3,0.6,0.7,0.7c0.3,0.1,0.5,0.1,0.8,0.2
	c0.3,0,0.5,0.1,0.8,0.1c0.1,0,0.2,0.1,0.2,0.2c0.1,0.4,0.1,0.8,0,1.2c0,0.1-0.1,0.2-0.3,0.1c-0.3-0.1-0.7,0-1-0.1c0,0-0.1,0-0.1,0
	c-0.6,0-1.2-0.1-1.8-0.1c-0.5,0-1.1,0-1.6,0c-0.5,0-1,0-1.5,0.1c-0.2,0-0.5,0-0.7,0.1c-0.1,0-0.2,0-0.3-0.1
	c-0.1-0.1-0.1-0.2-0.1-0.3c0-0.3-0.1-0.6,0-0.9c0-0.2,0.1-0.2,0.3-0.3c0.2,0,0.4-0.1,0.7-0.2c0.6-0.2,0.9-0.7,1-1.3
	c0.1-0.6,0.1-1.3,0.1-2c0.1-2.3,0-4.6,0-6.9c0-2.3,0-4.6,0-6.8c0-0.5,0-1-0.2-1.5c-0.1-0.4-0.3-0.7-0.5-1c-0.2-0.2-0.4-0.4-0.6-0.7
	c-0.2-0.3-0.2-0.8,0-1.1c0,0,0.1-0.1,0.1-0.1c0.5-0.4,0.9-0.7,1.4-1.1c0.3-0.2,0.6-0.5,0.9-0.8c0.4-0.3,0.7-0.6,1.1-1
	c0.2-0.2,0.3-0.1,0.4,0.1c0,0.1,0,0.2,0,0.2C199.2,25.3,199.2,25.9,199.2,26.4z"/>
<path style="fill:#FFFFFF;" d="M188.3,38.4c0-2.5,0-5,0-7.4c0-0.4-0.1-0.9-0.2-1.3c-0.1-0.3-0.3-0.5-0.5-0.7
	c-0.2-0.2-0.4-0.4-0.5-0.6c-0.1-0.1-0.1-0.2-0.1-0.3c0-0.2,0-0.3,0-0.5c0-0.2,0.1-0.3,0.2-0.4c0.6-0.3,1.1-0.8,1.6-1.2
	c0.3-0.3,0.6-0.5,0.9-0.8c0.3-0.3,0.6-0.6,0.9-0.9c0.1-0.1,0.2-0.1,0.3,0c0.1,0.1,0.1,0.2,0.1,0.3c-0.1,0.5,0,1,0,1.4
	c-0.1,1,0,1.9-0.1,2.9c-0.1,0.8,0,1.6,0,2.5c0,4.6,0,9.2,0,13.9c0,0.5,0,1,0.1,1.5c0,0.2,0.1,0.5,0.1,0.7c0.1,0.6,0.5,0.9,1.1,1
	c0.2,0,0.4,0.1,0.6,0.2c0.1,0,0.2,0.1,0.2,0.2c0.1,0.4,0.1,0.7,0,1.1c-0.1,0.2-0.1,0.3-0.4,0.2c-0.2-0.1-0.5-0.1-0.7-0.1
	c-0.6,0-1.1-0.1-1.7-0.1c-0.5,0-1,0-1.4,0c-0.5,0-1.1,0-1.6,0.1c-0.2,0-0.5,0-0.7,0.1c-0.2,0.1-0.2,0-0.3-0.2
	c-0.1-0.4-0.2-0.8,0-1.2c0-0.1,0.1-0.2,0.2-0.2c0.3-0.1,0.6-0.2,0.9-0.2c0.5-0.1,0.8-0.5,0.9-1c0.1-0.3,0.1-0.7,0.1-1
	c0.1-0.5,0-1,0-1.5C188.3,42.7,188.3,40.5,188.3,38.4z"/>
<path style="fill:#FFFFFF;" d="M240.8,49.3c0-0.1,0-0.3,0-0.5c0-0.1,0.1-0.2,0.2-0.2c0.3-0.1,0.5-0.1,0.8-0.2
	c0.5-0.1,0.8-0.4,0.9-0.8c0.1-0.3,0.1-0.7,0.2-1c0.1-0.9,0-1.7,0.1-2.6c0.1-2,0-3.9,0-5.9c0-1.9,0-3.9,0-5.8c0-0.6,0-1.1,0-1.7
	c0-0.6-0.2-1.1-0.6-1.6c-0.2-0.2-0.4-0.4-0.5-0.7c-0.1-0.1-0.1-0.1-0.1-0.2c-0.1-0.3-0.1-0.5,0-0.8c0-0.1,0.1-0.2,0.2-0.3
	c0.6-0.4,1.1-0.8,1.7-1.3c0.6-0.5,1.1-1,1.6-1.5c0.1-0.1,0.1-0.2,0.3-0.2c0.2,0.1,0.3,0.2,0.3,0.4c0,0.1,0,0.2,0,0.2
	c-0.1,0.4,0,0.8-0.1,1.2c-0.1,1.2,0,2.4-0.1,3.6c-0.1,2.3,0,4.6,0,7c0,2.8,0,5.6,0,8.4c0,0.5,0,1,0.1,1.4c0,0.4,0.1,0.9,0.2,1.3
	c0.2,0.4,0.5,0.6,0.8,0.7c0.3,0.1,0.5,0.2,0.8,0.2c0.1,0,0.2,0.1,0.2,0.2c0.1,0.4,0.1,0.9-0.1,1.3c0,0.1-0.1,0.1-0.2,0.1
	c-0.4-0.1-0.8-0.1-1.2-0.1c-1.1-0.1-2.3,0-3.4,0c-0.4,0-0.8,0-1.2,0.1c-0.2,0-0.4,0-0.6,0.1c-0.1,0-0.2-0.1-0.2-0.2
	C240.8,49.8,240.8,49.6,240.8,49.3z"/>
<path style="fill:#FFFFFF;" d="M191.7,20.4c0,0.6-0.2,1.1-0.6,1.5c-0.4,0.4-1,0.7-1.6,0.7c-0.2,0-0.4-0.1-0.6-0.2
	c-0.7-0.4-1.2-0.9-1.3-1.6c-0.1-0.6,0.1-1.2,0.4-1.7c0.3-0.4,0.7-0.7,1.1-0.9c0.4-0.1,0.7-0.1,1.1,0c0.8,0.4,1.2,1,1.4,1.8
	c0,0,0,0.1,0,0.1C191.7,20.2,191.7,20.3,191.7,20.4z"/>
<path style="fill:#FFFFFF;" d="M246.4,20.3c0,0.6-0.2,1.1-0.6,1.6c-0.4,0.4-0.9,0.7-1.5,0.6c-0.3,0-0.6-0.2-0.9-0.4
	c-0.4-0.3-0.8-0.7-0.9-1.2c-0.2-0.8,0-1.4,0.5-2c0.2-0.3,0.5-0.4,0.8-0.6c0.6-0.3,1.1-0.3,1.6,0.1c0.5,0.4,1,0.8,1.1,1.5
	C246.3,20,246.3,20.2,246.4,20.3z"/>
</svg>
