<?xml version="1.0" encoding="utf-8"?>
<!-- Generator: Adobe Illustrator 25.0.0, SVG Export Plug-In . SVG Version: 6.00 Build 0)  -->
<svg version="1.1" id="Layer_1" xmlns="http://www.w3.org/2000/svg" xmlns:xlink="http://www.w3.org/1999/xlink" x="0px" y="0px"
	 viewBox="0 0 320 60" style="enable-background:new 0 0 320 60;" xml:space="preserve">
<g>
	<path style="fill:#FFFFFF;" d="M53.1,39.4c0,5.8-0.1,6.4-3,6.9L49,46.5c-0.3,0.4-0.2,1.2,0.1,1.4c2.3-0.1,3.6-0.2,5.9-0.2
		c2.2,0,4,0.1,6.7,0.2c0.3-0.2,0.4-1.2,0.1-1.4l-1.5-0.2c-3.1-0.3-3.2-1.1-3.2-6.9v-7.1c0-1.9,0.1-2.6,0.9-2.6
		c1.3,0,2.2,1.1,5.3,4.6l4.4,5c2.1,2.4,3.5,3.9,4.6,5.2c0.4,0.5,0.8,0.9,0.8,1.3c0,0.3-0.5,0.4-1.3,0.6l-1.3,0.2
		c-0.3,0.3-0.2,1.3,0.2,1.4c2.5-0.1,4.5-0.2,6.7-0.2c2.6,0,4.7,0.1,6.2,0.2c0.4-0.2,0.5-1.1,0.1-1.4l-1.5-0.2
		c-1.9-0.2-3.1-0.9-4.4-2.3c-4.3-4.5-8.5-9.5-13.8-15.5c-0.7-0.9-1-1.3-1-1.7c0-0.4,0.5-0.9,1.3-1.7l5-4.7c3.1-2.9,6.2-5.5,7.7-6.4
		c1.5-0.9,3.7-1.4,5.1-1.5c0.3-0.3,0.3-1.1-0.1-1.4c-1.7,0.1-3.6,0.2-5.5,0.2c-1.9,0-4.1-0.1-6-0.2c-0.4,0.3-0.5,1-0.1,1.4l1.5,0.3
		c0.7,0.2,0.9,0.3,0.9,0.6c0,0.2-0.1,0.5-0.4,0.9c-0.6,0.8-3.3,3.6-4.3,4.6l-6,5.9c-0.6,0.6-2,2-2.8,2.6c-0.4,0.3-1,0.6-1.5,0.6
		c-0.6,0-0.7-1-0.7-2.1v-6.3c0-5.8,0.1-6.6,3.3-6.9l1-0.1c0.3-0.2,0.2-1.2-0.1-1.4c-2.4,0.1-4.2,0.3-6.4,0.3c-2.5,0-3.7-0.1-6.4-0.3
		c-0.3,0.2-0.4,1.2-0.1,1.4l1.4,0.1c3.2,0.3,3.3,1.2,3.3,6.9V39.4z"/>
</g>
<path style="fill:#FFFFFF;" d="M89.5,41c0,4.7-0.2,5.3-2.8,5.6l-1.5,0.1c-0.3,0.3-0.2,1,0.1,1.1c2.6-0.1,4.1-0.1,6.1-0.1h4
	c4,0,7.9,0,11.9,0.1c0.6-1.2,1.7-4.6,2-6.2c-0.2-0.4-0.8-0.5-1.1-0.3c-1.2,2.3-2.4,3.9-3.2,4.3c-1,0.5-2.3,0.7-5.7,0.7
	c-3.9,0-4.9-0.5-5.4-1c-0.7-0.8-0.8-2.3-0.8-4.6v-7.3c0-1.2,0.1-1.2,1.5-1.2h1c1.7,0,2.8,0,3.4,0.2c0.9,0.2,1.2,0.9,1.4,1.7l0.4,1.7
	c0.2,0.3,1,0.3,1.2,0c0-1-0.2-2.7-0.2-4.3c0-1.7,0.2-3.4,0.2-4.5c-0.2-0.3-0.9-0.3-1.2,0l-0.4,1.8c-0.2,1.1-0.5,1.4-1.1,1.6
	c-0.5,0.2-1.9,0.3-3.8,0.3h-1c-1.3,0-1.5,0-1.5-1.2v-7.8c0-1.7,0-1.8,1.3-1.8h3.2c2,0,3.4,0,4.3,0.3c2.3,0.6,2.7,2.1,3.4,4.2
	c0.2,0.3,0.9,0.2,1.1-0.1c-0.2-2-0.4-5.2-0.7-5.9c-0.5,0.1-3.2,0.1-6,0.1h-8.4c-1.8,0-3.3,0-5.3-0.1c-0.3,0.1-0.4,0.9-0.1,1.1
	l0.7,0.1c2.6,0.3,2.7,1,2.7,5.6V41z"/>
<path style="fill:#FFFFFF;" d="M137.4,40.1c0,1.3,0,6.6,0.1,7.8c-0.1,0.3-0.4,0.5-0.8,0.5c-0.5-0.8-1.8-2.3-5.7-6.7l-10.3-11.8
	c-1.2-1.4-4.2-5-5.2-6h-0.1c-0.2,0.5-0.2,1.6-0.2,2.9v9.7c0,2.1,0,7.9,0.8,9.2c0.3,0.5,1.2,0.8,2.3,0.8l1.4,0.1
	c0.3,0.4,0.2,0.9-0.1,1.1c-2-0.1-3.6-0.1-5.2-0.1c-1.9,0-3.1,0-4.6,0.1c-0.3-0.2-0.4-0.8-0.1-1.1l1.2-0.1c1-0.1,1.7-0.4,2-0.9
	c0.6-1.6,0.6-7,0.6-9.2V23.6c0-1.2,0-2.2-1-3.2c-0.6-0.6-1.7-0.9-2.8-1.1l-0.8-0.1c-0.3-0.3-0.3-0.9,0.1-1.1c1.9,0.1,4.2,0.1,5,0.1
	c0.7,0,1.5,0,2-0.1c0.9,2.3,6.1,8.1,7.6,9.8l4.3,4.9c3.1,3.4,5.3,5.9,7.3,8.1h0.1c0.2-0.2,0.2-0.9,0.2-1.9v-9.5c0-2.1,0-7.9-0.9-9.2
	c-0.3-0.4-1-0.7-2.8-0.9l-0.8-0.1c-0.3-0.3-0.3-1,0.1-1.1c2.1,0.1,3.6,0.1,5.3,0.1c1.9,0,3.1,0,4.6-0.1c0.4,0.2,0.4,0.8,0.1,1.1
	l-0.6,0.1c-1.4,0.2-2.3,0.6-2.5,0.9c-0.8,1.6-0.7,7.1-0.7,9.2V40.1z"/>
<path style="fill:#FFFFFF;" d="M157.9,41c0,4.7,0.1,5.3,2.7,5.6l1.4,0.1c0.3,0.2,0.2,1-0.1,1.1c-2.5-0.1-4.1-0.1-5.8-0.1
	c-1.8,0-3.3,0-6.2,0.1c-0.3-0.1-0.4-0.9,0-1.1l1.6-0.1c2.5-0.2,2.8-0.9,2.8-5.6V21.1c0-1.4,0-1.4-1.3-1.4h-2.4
	c-1.9,0-4.4,0.1-5.5,1.1c-1.1,1-1.5,2-2,3.1c-0.4,0.3-1,0-1.2-0.3c0.7-2,1.4-4.9,1.7-6.6c0.1-0.1,0.7-0.1,0.8,0
	c0.3,1.4,1.7,1.4,3.8,1.4h18c2.4,0,2.8-0.1,3.5-1.2c0.2-0.1,0.7,0,0.8,0.1c-0.5,1.8-0.8,5.4-0.7,6.8c-0.2,0.4-0.9,0.4-1.2,0.1
	c-0.1-1.1-0.4-2.8-1.1-3.3c-1-0.8-2.7-1.1-5.2-1.1h-3.2c-1.3,0-1.3,0-1.3,1.5V41z"/>
<path style="fill:#FFFFFF;" d="M183.2,39.4c0,5.8-0.1,6.6-3.3,6.9l-1.7,0.2c-0.3,0.3-0.2,1.2,0.1,1.4c3.1-0.1,4.3-0.2,6.6-0.2h5.1
	c5.7,0,10.9,0.1,13.7,0.2c0.8-1.5,2.3-7.1,2.3-7.7c0-0.4-1-0.6-1.4-0.3c-1.1,2.8-2.5,4.8-3.6,5.5c-0.9,0.5-2,0.7-6.7,0.7
	c-4.4,0-5.4-0.7-6-1.3c-1-1-1.2-2.5-1.2-6V19.6c0-5.8,0.1-6.7,3.4-6.9l1.3-0.1c0.3-0.2,0.2-1.2-0.1-1.4c-2.8,0.1-4.6,0.2-6.8,0.2
	c-2.2,0-3.5-0.1-6.6-0.2c-0.3,0.2-0.4,1.2-0.1,1.4l1.4,0.1c3.5,0.3,3.6,1.2,3.6,6.9V39.4z"/>
<path style="fill:#FFFFFF;" d="M210.3,40.9c0,4.7-0.1,5.3-2.7,5.7l-1.1,0.1c-0.3,0.3-0.2,1,0.1,1.1c2.2-0.1,3.7-0.1,5.6-0.1
	c1.8,0,3.3,0,5.5,0.1c0.3-0.1,0.4-0.9,0.1-1.1l-1.1-0.1c-2.6-0.3-2.7-0.9-2.7-5.7V25.1c0-4.7,0.1-5.5,2.7-5.7l1.1-0.1
	c0.3-0.2,0.2-1-0.1-1.1c-2.2,0.1-3.7,0.1-5.5,0.1c-1.9,0-3.4,0-5.6-0.1c-0.3,0.1-0.4,0.9-0.1,1.1l1.1,0.1c2.6,0.2,2.7,1,2.7,5.7
	V40.9z"/>
<path style="fill:#FFFFFF;" d="M227.4,29.8c0,1.2,0.1,1.2,1.5,1.2h1.4c1.8,0,3.3-0.1,3.8-0.3c0.5-0.2,0.8-0.4,1.1-1.6l0.4-1.8
	c0.2-0.3,1-0.3,1.2,0c0,1.1-0.2,2.9-0.2,4.5c0,1.6,0.2,3.3,0.2,4.3c-0.2,0.3-0.8,0.3-1.2,0l-0.4-1.7c-0.2-0.8-0.6-1.4-1.4-1.7
	c-0.6-0.2-1.7-0.2-3.4-0.2h-1.4c-1.3,0-1.5,0-1.5,1.2V41c0,4.7,0.1,5.3,2.7,5.6l1.5,0.1c0.3,0.2,0.2,1-0.1,1.1
	c-2.6-0.1-4.1-0.1-5.9-0.1c-2,0-3.5,0-5.6,0.1c-0.3-0.1-0.4-0.8-0.1-1.1l1.1-0.1c2.6-0.3,2.7-0.9,2.7-5.6V25c0-4.7-0.1-5.3-2.7-5.6
	l-0.7-0.1c-0.3-0.2-0.2-1,0.1-1.1c1.9,0.1,3.4,0.1,5.2,0.1h8.2c2.8,0,5.4,0,6-0.1c0,2,0,4.2,0.1,5.9c-0.1,0.3-0.8,0.4-1.1,0.1
	c-0.4-2-0.9-3.7-3.1-4.2c-1-0.3-2.4-0.3-4.3-0.3h-2.7c-1.3,0-1.3,0.1-1.3,1.8V29.8z"/>
<path style="fill:#FFFFFF;" d="M245,41c0,4.7-0.2,5.3-2.8,5.6l-1.5,0.1c-0.3,0.3-0.2,1,0.1,1.1c2.6-0.1,4.1-0.1,6.1-0.1h4
	c4,0,7.9,0,11.9,0.1c0.6-1.2,1.7-4.6,2-6.2c-0.2-0.4-0.8-0.5-1.1-0.3c-1.2,2.3-2.4,3.9-3.2,4.3c-1,0.5-2.3,0.7-5.7,0.7
	c-3.9,0-4.9-0.5-5.4-1c-0.7-0.8-0.8-2.3-0.8-4.6v-7.3c0-1.2,0.1-1.2,1.5-1.2h1c1.7,0,2.8,0,3.4,0.2c0.9,0.2,1.2,0.9,1.4,1.7l0.4,1.7
	c0.2,0.3,1,0.3,1.2,0c0-1-0.2-2.7-0.2-4.3c0-1.7,0.2-3.4,0.2-4.5c-0.2-0.3-0.9-0.3-1.2,0l-0.4,1.8c-0.2,1.1-0.5,1.4-1.1,1.6
	c-0.5,0.2-1.9,0.3-3.8,0.3h-1c-1.3,0-1.5,0-1.5-1.2v-7.8c0-1.7,0-1.8,1.3-1.8h3.2c2,0,3.4,0,4.3,0.3c2.3,0.6,2.7,2.1,3.4,4.2
	c0.2,0.3,0.9,0.2,1.1-0.1c-0.2-2-0.4-5.2-0.7-5.9c-0.5,0.1-3.2,0.1-6,0.1h-8.4c-1.8,0-3.3,0-5.3-0.1c-0.3,0.1-0.4,0.9-0.1,1.1
	l0.7,0.1c2.6,0.3,2.7,1,2.7,5.6V41z"/>
</svg>
