<?xml version="1.0" encoding="utf-8"?>
<!-- Generator: Adobe Illustrator 25.0.0, SVG Export Plug-In . SVG Version: 6.00 Build 0)  -->
<svg version="1.1" id="Layer_1" xmlns="http://www.w3.org/2000/svg" xmlns:xlink="http://www.w3.org/1999/xlink" x="0px" y="0px"
	 viewBox="0 0 320 60" style="enable-background:new 0 0 320 60;" xml:space="preserve">
<g>
	<path style="fill:#FFFFFF;" d="M109.1,21.5c0.3,0,0.3-0.1,0.3-0.3v-2.7c0-0.2-0.1-0.3-0.3-0.3v-0.5h2.8v1.5h-0.4c0-0.7-0.2-1-0.8-1
		h-0.3v1.4h0c0.3,0,0.4-0.2,0.4-0.6h0.4v1.7h-0.4c0-0.5-0.1-0.6-0.4-0.6h0v1.5h0.3c0.7,0,0.8-0.3,0.8-1.2h0.4V22h-2.8V21.5z"/>
	<path style="fill:#FFFFFF;" d="M113.1,22.1c-0.5,0-0.8-0.3-0.8-0.8c0-0.5,0.3-0.8,0.9-1.1c0.4-0.2,0.7-0.4,0.7-0.7
		c0-0.3-0.2-0.5-0.5-0.5c-0.2,0-0.4,0.1-0.5,0.2c0,0,0.1,0,0.1,0c0.2,0,0.4,0.2,0.4,0.4c0,0.2-0.2,0.4-0.5,0.4
		c-0.3,0-0.5-0.2-0.5-0.5c0-0.5,0.4-0.9,1.1-0.9c0.5,0,0.8,0.1,1,0.5c0.1,0.1,0.1,0.4,0.1,0.8v1.6c0,0.1,0,0.2,0.1,0.2
		c0.1,0,0.1-0.1,0.1-0.4V21h0.3v0.2c0,0.6-0.2,0.8-0.7,0.8c-0.3,0-0.5-0.2-0.6-0.5C113.7,21.9,113.4,22.1,113.1,22.1z M113.1,21.1
		c0,0.2,0.1,0.4,0.3,0.4c0.3,0,0.4-0.3,0.4-0.8v-0.4C113.3,20.6,113.1,20.8,113.1,21.1z"/>
	<path style="fill:#FFFFFF;" d="M115.4,20.6h0.4c0,0.6,0.4,1,0.7,1c0.2,0,0.3-0.1,0.3-0.3c0-0.3-0.2-0.4-0.4-0.5
		c-0.3-0.2-0.6-0.3-0.7-0.4c-0.3-0.2-0.4-0.5-0.4-0.8c0-0.6,0.4-1,0.9-1c0.3,0,0.5,0.1,0.7,0.3l0.2-0.2h0.3v1.2h-0.4
		c-0.1-0.6-0.3-0.8-0.7-0.8c-0.2,0-0.3,0.1-0.3,0.3c0,0.2,0.2,0.4,0.5,0.6c0.3,0.2,0.5,0.3,0.6,0.4c0.3,0.2,0.4,0.5,0.4,0.9
		c0,0.6-0.4,0.9-0.9,0.9c-0.3,0-0.6-0.1-0.8-0.3l-0.2,0.2h-0.4V20.6z"/>
	<path style="fill:#FFFFFF;" d="M117.9,19.1v-0.4c0.5,0,0.6-0.3,0.7-0.9h0.5v0.9h0.6v0.4H119v2.3c0,0.2,0,0.3,0.1,0.3
		c0.1,0,0.2-0.1,0.2-0.3c0-0.1,0-0.2,0-0.2v-0.2h0.4v0.4c0,0.5-0.2,0.8-0.7,0.8c-0.6,0-0.8-0.2-0.8-0.9v-2.1H117.9z"/>
	<path style="fill:#FFFFFF;" d="M120.7,20.6c0,0.6,0.1,1,0.5,1c0.2,0,0.4-0.2,0.4-0.6v-0.3h0.6v0.2c0,0.8-0.3,1.2-1,1.2
		c-0.9,0-1.3-0.6-1.3-1.8c0-1.1,0.4-1.7,1.2-1.7c0.7,0,1.1,0.5,1.1,1.4v0.5h-1.5V20.6z M121.4,19.9L121.4,19.9
		c0-0.7-0.1-0.9-0.3-0.9c-0.3,0-0.4,0.3-0.4,0.9H121.4z"/>
	<path style="fill:#FFFFFF;" d="M124,18.6c0.4,0,0.6,0.3,0.6,0.7c0,0.4-0.2,0.6-0.4,0.6c-0.2,0-0.4-0.2-0.4-0.4
		c0-0.3,0.1-0.4,0.4-0.4c-0.1-0.1-0.1-0.1-0.2-0.1c-0.3,0-0.4,0.3-0.4,0.8v1.5c0,0.2,0,0.3,0.3,0.3h0.1V22h-1.5v-0.4
		c0.3,0,0.3,0,0.3-0.3v-1.9c0-0.2,0-0.3-0.3-0.3v-0.4h1v0.3C123.6,18.7,123.8,18.6,124,18.6z"/>
	<path style="fill:#FFFFFF;" d="M124.7,19.1v-0.4h1.1v0.4c0.2-0.4,0.5-0.5,0.8-0.5c0.5,0,0.7,0.3,0.7,1v1.7c0,0.2,0,0.3,0.3,0.3V22
		h-1.3v-0.4c0.2,0,0.2-0.1,0.2-0.3v-1.8c0-0.2-0.1-0.3-0.2-0.3c-0.2,0-0.4,0.3-0.4,0.7v1.4c0,0.2,0,0.3,0.2,0.3V22h-1.3v-0.4
		c0.3,0,0.3,0,0.3-0.3v-1.9C125,19.1,125,19.1,124.7,19.1z"/>
	<path style="fill:#FFFFFF;" d="M129.3,22v-0.5c0.2,0,0.3-0.1,0.3-0.3v-2.7c0-0.2-0.1-0.3-0.3-0.3v-0.5h1c0.5,0,0.9,0,1.2,0.2
		c0.5,0.3,0.6,0.9,0.6,1.9c0,1-0.1,1.6-0.6,1.9c-0.3,0.2-0.7,0.3-1.2,0.3H129.3z M130.4,21.5h0.1c0.2,0,0.4,0,0.5-0.2
		c0.2-0.2,0.2-0.7,0.2-1.5c0-0.8,0-1.3-0.2-1.5c-0.1-0.1-0.2-0.2-0.5-0.2h-0.1V21.5z"/>
	<path style="fill:#FFFFFF;" d="M133.2,22.1c-0.5,0-0.8-0.3-0.8-0.8c0-0.5,0.3-0.8,0.9-1.1c0.4-0.2,0.7-0.4,0.7-0.7
		c0-0.3-0.2-0.5-0.5-0.5c-0.2,0-0.4,0.1-0.5,0.2c0,0,0.1,0,0.1,0c0.2,0,0.4,0.2,0.4,0.4c0,0.2-0.2,0.4-0.5,0.4
		c-0.3,0-0.5-0.2-0.5-0.5c0-0.5,0.4-0.9,1.1-0.9c0.5,0,0.8,0.1,1,0.5c0.1,0.1,0.1,0.4,0.1,0.8v1.6c0,0.1,0,0.2,0.1,0.2
		c0.1,0,0.1-0.1,0.1-0.4V21h0.3v0.2c0,0.6-0.2,0.8-0.7,0.8c-0.3,0-0.5-0.2-0.6-0.5C133.9,21.9,133.6,22.1,133.2,22.1z M133.2,21.1
		c0,0.2,0.1,0.4,0.3,0.4c0.3,0,0.4-0.3,0.4-0.8v-0.4C133.5,20.6,133.2,20.8,133.2,21.1z"/>
	<path style="fill:#FFFFFF;" d="M136.9,21.5V22h-1.4v-0.4h0c0.2,0,0.3,0,0.3-0.3v-1.9c0-0.2,0-0.3-0.3-0.3v-0.4h1.1v2.6
		C136.6,21.5,136.6,21.5,136.9,21.5z M136.1,17.5c0.3,0,0.5,0.2,0.5,0.5c0,0.3-0.2,0.5-0.5,0.5c-0.3,0-0.5-0.2-0.5-0.5
		C135.7,17.7,135.9,17.5,136.1,17.5z"/>
	<path style="fill:#FFFFFF;" d="M137,18v-0.4h1.1v3.7c0,0.2,0,0.3,0.3,0.3V22H137v-0.4c0.3,0,0.3,0,0.3-0.3v-3
		C137.3,18.1,137.2,18,137,18z"/>
	<path style="fill:#FFFFFF;" d="M140.2,19.2c0-0.1-0.1-0.2-0.3-0.2v-0.4h1v0.4c-0.2,0-0.2,0.1-0.3,0.2l-0.8,2.7
		c-0.2,0.8-0.5,1.1-0.9,1.1c-0.4,0-0.7-0.3-0.7-0.7c0-0.3,0.2-0.5,0.4-0.5c0.2,0,0.4,0.1,0.4,0.4c0,0.2-0.1,0.3-0.3,0.3
		c0,0.1,0.1,0.1,0.2,0.1c0.2,0,0.3-0.2,0.5-0.7l-0.8-2.8c0-0.1-0.1-0.2-0.2-0.2h0v-0.4h1.3v0.4c-0.2,0-0.3,0-0.3,0.2
		c0,0,0,0.1,0,0.1l0.3,1.5l0.4-1.5C140.2,19.3,140.2,19.3,140.2,19.2z"/>
	<path style="fill:#FFFFFF;" d="M144,21.5L144,21.5l0.1,0.5h-1.6v-0.5c0.3,0,0.3-0.1,0.3-0.3v-2.7c0-0.2-0.1-0.3-0.3-0.3v-0.5h1.3
		c1.1,0,1.5,0.3,1.5,1.3c0,0.8-0.4,1.2-1.3,1.2c-0.1,0-0.2,0-0.4,0v1.1C143.7,21.4,143.8,21.5,144,21.5z M143.7,19.5h0.2
		c0.4,0,0.6-0.2,0.6-0.7c0-0.5-0.2-0.7-0.6-0.7h-0.2V19.5z"/>
	<path style="fill:#FFFFFF;" d="M147.1,18.6c0.4,0,0.6,0.3,0.6,0.7c0,0.4-0.2,0.6-0.4,0.6c-0.2,0-0.4-0.2-0.4-0.4
		c0-0.3,0.1-0.4,0.4-0.4c-0.1-0.1-0.1-0.1-0.2-0.1c-0.3,0-0.4,0.3-0.4,0.8v1.5c0,0.2,0,0.3,0.3,0.3h0.1V22h-1.5v-0.4
		c0.3,0,0.3,0,0.3-0.3v-1.9c0-0.2,0-0.3-0.3-0.3v-0.4h1v0.3C146.7,18.7,146.9,18.6,147.1,18.6z"/>
	<path style="fill:#FFFFFF;" d="M148.7,20.6c0,0.6,0.1,1,0.5,1c0.2,0,0.4-0.2,0.4-0.6v-0.3h0.6v0.2c0,0.8-0.3,1.2-1,1.2
		c-0.9,0-1.3-0.6-1.3-1.8c0-1.1,0.4-1.7,1.2-1.7c0.7,0,1.1,0.5,1.1,1.4v0.5h-1.5V20.6z M149.4,19.9L149.4,19.9
		c0-0.7-0.1-0.9-0.3-0.9c-0.3,0-0.4,0.3-0.4,0.9H149.4z"/>
	<path style="fill:#FFFFFF;" d="M150.6,20.6h0.4c0,0.6,0.4,1,0.7,1c0.2,0,0.3-0.1,0.3-0.3c0-0.3-0.2-0.4-0.4-0.5
		c-0.3-0.2-0.6-0.3-0.7-0.4c-0.3-0.2-0.4-0.5-0.4-0.8c0-0.6,0.4-1,0.9-1c0.3,0,0.5,0.1,0.7,0.3l0.2-0.2h0.3v1.2h-0.4
		c-0.1-0.6-0.3-0.8-0.7-0.8c-0.2,0-0.3,0.1-0.3,0.3c0,0.2,0.2,0.4,0.5,0.6c0.3,0.2,0.5,0.3,0.6,0.4c0.3,0.2,0.4,0.5,0.4,0.9
		c0,0.6-0.4,0.9-0.9,0.9c-0.3,0-0.6-0.1-0.8-0.3L151,22h-0.4V20.6z"/>
	<path style="fill:#FFFFFF;" d="M153.2,20.6h0.4c0,0.6,0.4,1,0.7,1c0.2,0,0.3-0.1,0.3-0.3c0-0.3-0.2-0.4-0.4-0.5
		c-0.3-0.2-0.6-0.3-0.7-0.4c-0.3-0.2-0.4-0.5-0.4-0.8c0-0.6,0.4-1,0.9-1c0.3,0,0.5,0.1,0.7,0.3l0.2-0.2h0.3v1.2h-0.4
		c-0.1-0.6-0.3-0.8-0.7-0.8c-0.2,0-0.3,0.1-0.3,0.3c0,0.2,0.2,0.4,0.5,0.6c0.3,0.2,0.5,0.3,0.6,0.4c0.3,0.2,0.4,0.5,0.4,0.9
		c0,0.6-0.4,0.9-0.9,0.9c-0.3,0-0.6-0.1-0.8-0.3l-0.2,0.2h-0.4V20.6z"/>
</g>
<g>
	<path style="fill:#FFFFFF;" d="M101,21.9c0-7.5-1.1-10.7-6.1-10.9v-0.8h13.4v0.8c-4.9,0.1-6,3.3-6,10.9v29.5h-0.8L72.6,15.4v23.9
		c0,7.5,1,10.7,6,10.9V51H65.3v-0.8c4.9-0.1,6-3.3,6-10.9V21.6c0-7.1-0.7-10.4-5.9-10.5v-0.8h11.2L101,40.6V21.9z"/>
	<path style="fill:#FFFFFF;" d="M132.4,38.3c0,7.8-6.3,13.6-13.5,13.6s-13.5-5.7-13.5-13.6c0-7.8,6.3-13.5,13.5-13.5
		S132.4,30.5,132.4,38.3z M111,38.3c0,8,2.9,12.4,7.9,12.4s7.9-4.4,7.9-12.4c0-8-2.9-12.4-7.9-12.4S111,30.3,111,38.3z"/>
	<path style="fill:#FFFFFF;" d="M143.1,42.2c0,6.8,0.2,8,4.7,8h0.4V51h-14.1v-0.8h0.2c4.1,0,4.1-1.4,4.1-8.2v-9.5
		c0-3.9-0.9-5.1-4.2-5.4v-0.7c2.8-0.4,5.5-1,8.1-1.9l0.4,0.1c0.2,1.7,0.2,3.6,0.2,5.5c1.8-3.6,4.2-5.3,7.2-5.3
		c2.8,0,4.4,1.3,4.4,3.2c0,1.3-0.9,2.1-2.2,2.1c-2.5,0-2.4-3.4-4.6-3.4c-2.2,0-4.6,4-4.6,10.3v5V42.2z"/>
	<path style="fill:#FFFFFF;" d="M154.8,26.7v-1.1h4.2v-6.7c0-6.4,2.5-9.4,8.9-9.4c4.2,0,6.7,1.7,6.7,3.7c0,1.3-0.8,2.1-2.2,2.1
		c-1.6,0-1.9-0.8-2.3-2.2c-0.4-1.7-1.3-2.5-2.8-2.5c-3.3,0-3.6,2.7-3.6,7.8v7.1h6.2v1.1h-6.2V42c0,6.9,0.1,8.2,4.7,8.2h0.3V51h-14
		v-0.8h0.2c4.1,0,4.1-1.4,4.1-8.2V26.7H154.8z"/>
	<path style="fill:#FFFFFF;" d="M197.2,38.3c0,7.8-6.3,13.6-13.5,13.6c-7.1,0-13.5-5.7-13.5-13.6c0-7.8,6.3-13.5,13.5-13.5
		C190.8,24.8,197.2,30.5,197.2,38.3z M175.8,38.3c0,8,2.9,12.4,7.9,12.4c5,0,7.9-4.4,7.9-12.4c0-8-2.9-12.4-7.9-12.4
		C178.7,25.9,175.8,30.3,175.8,38.3z"/>
	<path style="fill:#FFFFFF;" d="M211.7,50.2h0.2V51h-13.4v-0.8h0.2c4.1,0,4.1-1.4,4.1-8.2V16.3c0-3.9-0.9-5.1-4.2-5.3v-0.7
		c3.1-0.3,6.1-0.7,8.9-1.1V42C207.5,48.8,207.6,50.2,211.7,50.2z"/>
	<path style="fill:#FFFFFF;" d="M230.4,28.3c0-1.3-1-1.7-3.1-1.9v-0.8h10.2v0.8c-2.5,0.1-5.8,3.3-11.2,8.9l6.5,6.9
		c4.6,4.9,7.6,7.9,10.1,7.9h0.2V51h-14.5v-0.8c2.1-0.1,3.1-0.7,3.1-1.7c0-0.8-0.6-1.7-1.7-2.9l-6.7-7.3l-1.6,1.4V42
		c0,6.8,0.1,8.2,4.2,8.2h0.2V51h-13.4v-0.8h0.2c4.1,0,4.1-1.4,4.1-8.2V16.3c0-3.9-0.9-5.1-4.2-5.3v-0.7c3.1-0.3,6.1-0.7,8.9-1.1v29
		C227.4,33.2,230.4,30,230.4,28.3z"/>
</g>
</svg>
