<?xml version="1.0" encoding="utf-8"?>
<!-- Generator: Adobe Illustrator 25.0.0, SVG Export Plug-In . SVG Version: 6.00 Build 0)  -->
<svg version="1.1" id="Layer_1" xmlns="http://www.w3.org/2000/svg" xmlns:xlink="http://www.w3.org/1999/xlink" x="0px" y="0px"
	 viewBox="0 0 320 60" style="enable-background:new 0 0 320 60;" xml:space="preserve">
<g>
	<path style="fill:#FFFFFF;" d="M27.4,30.1c-3.7-2-7.3-4.6-7.3-10.2c0-6.6,4.8-10.6,9.7-10.6c2,0,4.9,0.4,6.7,1.4
		c1,0.4,0.9,1.2,0.9,2.3c0.1,1.6,0.2,3.3,0.2,4.9c0,0.4-0.2,0.8-0.6,0.8c-0.6,0-0.7-1-0.8-1.4c-1.1-4.3-2.6-6.6-6.5-6.6
		c-3.3,0-6.5,2.1-6.5,6.7c0,5.4,5.5,7.6,8.8,9.3c1.7,0.9,3.8,2.3,5,3.9c1.5,2,2.4,4.8,2.4,7.5c0,3.5-1.4,6.6-3.5,8.9
		c-2.3,2.3-5.1,3.3-8,3.3c-2.5,0-5.5-0.9-7.6-2.4c-0.9-0.7-0.7-2.4-0.7-3.5c0-1.6,0-3.2,0.2-4.8c0.1-0.5,0.2-1.3,0.8-1.3
		c0.7,0,0.7,1.6,0.7,2.1c0.5,5.4,2.8,8.8,7.4,8.8c3.8,0,7.5-3.2,7.5-8.1c0-5-2.7-7.5-6.1-9.3L27.4,30.1z"/>
	<path style="fill:#FFFFFF;" d="M56.5,17.1c8.6,0,15.7,6.6,15.7,16.3c0,9.7-7.1,16.4-15.7,16.4c-8.1,0-15.8-7.2-15.8-16.4
		C40.8,24.3,48.4,17.1,56.5,17.1z M65.2,23c-2.2-2.9-5.1-4.6-8.5-4.6c-3.5,0-6.8,1.7-8.9,4.7c-2.1,2.9-2.8,6.6-2.8,10.2
		c0,3.8,0.8,7.6,3,10.5c2.2,2.9,5.3,4.5,8.8,4.5c3.5,0,6.5-1.9,8.7-4.8c2.1-3,2.8-6.4,2.8-10.1C68.1,29.5,67.4,26.1,65.2,23z"/>
	<path style="fill:#FFFFFF;" d="M88,42.2l9.3-23.7c0.3-0.7,0.7-0.7,1.2-0.7h5c0.5,0,1.3-0.3,1.3,0.6c0,0.7-0.6,0.8-1.1,0.8
		c-0.6,0-1.6-0.2-2,0.4c-0.5,0.7-0.4,2.7-0.4,3.6v20.8c0,0.8,0,2.8,0.5,3.5c0.5,0.6,1.1,0.7,1.8,0.7c0.5,0,1.4-0.1,1.4,0.7
		c0,0.6-0.5,0.6-0.9,0.6c-1.4,0-2.9-0.2-4.3-0.2c-1.8,0-3.6,0.2-5.4,0.2c-0.4,0-0.9-0.1-0.9-0.6c0-0.8,0.9-0.7,1.4-0.7
		c0.7,0,1.6-0.3,2.1-0.7c0.8-0.7,0.7-2.6,0.7-3.5V21.2h-0.3l-10,26.1c-0.1,0.4-0.3,0.9-0.7,0.9c-0.5,0-0.6-0.6-0.7-1l-8.9-25.5h-0.3
		l-1.3,20.7c-0.2,3.1-0.2,5.6,3,5.6c0.5,0,1.4-0.1,1.4,0.7c0,0.6-0.6,0.6-1,0.6c-1.4,0-2.7-0.2-4.1-0.2c-1.4,0-2.7,0.2-4,0.2
		c-0.4,0-0.7-0.1-0.7-0.6c0-0.6,0.8-0.7,1.2-0.7c2.5,0,2.7-1.3,2.8-3.8l1.4-22.3c0.2-2.6,0-2.9-2.4-2.9c-0.5,0-1.1-0.1-1.1-0.8
		c0-0.8,0.8-0.6,1.3-0.6h5.2c0.9,0,0.9,0.7,1.2,1.5L88,42.2z"/>
	<path style="fill:#FFFFFF;" d="M114.1,29.1c0,2.4,0.4,2.4,2.3,2.4c1.4,0,3.7,0.1,5.5-0.2c1.1-0.2,1.4-2,1.6-3.5
		c0-0.3,0.2-0.9,0.6-0.9c0.2,0,0.5,0.1,0.5,0.5c0,1.4-0.1,2.9-0.2,4.3c0.1,1.6,0.2,3.1,0.2,4.7c0,0.8-0.3,0.9-0.5,0.9
		c-0.4,0-0.5-0.6-0.6-0.9c-0.2-1.5-0.6-3-1.6-3.2c-1.8-0.5-4.1-0.5-5.5-0.5c-1.8,0-2.3,0-2.3,1.7v8.7c0,4.6,2,4.7,5.6,4.7
		c3.9,0,6.4-0.1,7.9-4.5c0.1-0.4,0.5-1.7,1-1.7c0.3,0,0.5,0.2,0.5,0.6c0,0.4-0.1,0.8-0.2,1.2l-0.7,5.3c0,0.4-0.1,0.3-0.5,0.3h-17.7
		c-0.5,0-0.9,0.1-1.4,0.1c-0.5,0.1-0.9,0.1-1.4,0.1c-0.4,0-0.8-0.2-0.8-0.8s0.7-0.6,1.2-0.6c3.1,0,2.9-1,2.9-4.2V23.3
		c0-3.1,0.2-4.1-2.9-4.1c-0.5,0-1.2,0-1.2-0.6c0-0.5,0.4-0.8,0.8-0.8c2.8,0,5.7,0.2,8.5,0.2c3.9,0,7.7-0.2,11.5-0.2
		c0.9,0,0.6,1.2,0.6,1.9v4.3c0,0.3,0,1.1-0.4,1.1c-0.4,0-0.6-0.7-0.7-1l-0.7-1.4c-0.7-1.6-1.3-2.5-2.8-3c-1.5-0.5-3.4-0.5-5-0.5
		c-0.7,0-2.7,0-3.4,0.3c-0.9,0.4-0.7,1.5-0.7,2.3V29.1z"/>
	<path style="fill:#FFFFFF;" d="M133.7,23.4c0-3.2,0.2-4.2-2.9-4.2c-0.4,0-1.1,0-1.1-0.6c0-0.6,0.3-0.8,0.8-0.8c1.4,0,3,0.2,4.4,0.2
		c2.6,0,5.1-0.2,7.7-0.2c4.3,0,8.5,2.4,8.5,7.6c0,4.6-3.4,7.2-7.1,7.8c1.4,0.3,2.1,2,2.8,3.3l3.7,7.8c0.8,1.8,1.5,3.7,3.5,3.7
		c0.4,0,1.2,0,1.2,0.7c0,0.5-0.5,0.6-0.8,0.6h-4.8c-0.9,0-1.2-1-1.5-1.7l-4.4-9.8c-1.6-3.5-1.6-3.9-5-3.9c-0.4,0-0.8-0.1-1,0.3
		c-0.3,0.4-0.2,1.6-0.2,2v7.7c0,3.2-0.2,4.1,2.9,4.2c0.4,0,1.2-0.1,1.2,0.6c0,0.6-0.4,0.7-0.8,0.7c-1.7,0-3.3-0.2-5.1-0.2
		c-1.7,0-3.4,0.2-5.1,0.2c-0.4,0-0.8-0.1-0.8-0.7c0-0.7,0.7-0.6,1.1-0.6c3.2,0,2.9-1,2.9-4.2V23.4z M137.2,31.9
		c0,1.3,1.5,0.9,2.3,0.9c2.1,0,3.9-0.2,5.6-1.7c1.5-1.3,2.1-3.1,2.1-5.1c0-4.6-2.5-7.1-6.5-7.1c-3.4,0-3.5,0.5-3.5,4V31.9z"/>
	<path style="fill:#FFFFFF;" d="M161.9,33.7c-3.3-1.6-6.5-3.7-6.5-8.1c0-5.3,4.3-8.5,8.7-8.5c1.8,0,4.4,0.4,6.1,1.1
		c0.9,0.4,0.8,1,0.8,1.9c0,1.3,0.1,2.6,0.2,3.9c0,0.4-0.2,0.6-0.5,0.6c-0.5,0-0.6-0.8-0.7-1.2c-1-3.5-2.3-5.3-5.9-5.3
		c-3,0-5.8,1.7-5.8,5.4c0,4.3,5,6.1,7.9,7.5c1.5,0.8,3.4,1.8,4.5,3.1c1.3,1.6,2.2,3.8,2.2,6c0,2.8-1.2,5.3-3.2,7.1
		c-2,1.9-4.6,2.6-7.2,2.6c-2.2,0-4.9-0.7-6.8-2c-0.8-0.6-0.6-1.9-0.6-2.8c0-1.3,0-2.6,0.1-3.9c0-0.4,0.2-1,0.7-1
		c0.6,0,0.6,1.3,0.6,1.7c0.5,4.3,2.5,7,6.6,7c3.4,0,6.7-2.6,6.7-6.5c0-4-2.4-6-5.5-7.5L161.9,33.7z"/>
	<path style="fill:#FFFFFF;" d="M180.4,29.1c0,2.4,0.4,2.4,2.3,2.4c1.4,0,3.7,0.1,5.5-0.2c1.1-0.2,1.4-2,1.6-3.5
		c0-0.3,0.2-0.9,0.6-0.9c0.2,0,0.5,0.1,0.5,0.5c0,1.4-0.1,2.9-0.2,4.3c0.1,1.6,0.2,3.1,0.2,4.7c0,0.8-0.3,0.9-0.5,0.9
		c-0.4,0-0.5-0.6-0.6-0.9c-0.2-1.5-0.6-3-1.6-3.2c-1.8-0.5-4.1-0.5-5.5-0.5c-1.8,0-2.3,0-2.3,1.7v8.7c0,4.6,2,4.7,5.6,4.7
		c3.9,0,6.4-0.1,7.9-4.5c0.1-0.4,0.5-1.7,1-1.7c0.3,0,0.5,0.2,0.5,0.6c0,0.4-0.1,0.8-0.2,1.2l-0.7,5.3c0,0.4-0.1,0.3-0.5,0.3h-17.7
		c-0.5,0-0.9,0.1-1.4,0.1c-0.5,0.1-0.9,0.1-1.4,0.1c-0.4,0-0.8-0.2-0.8-0.8s0.7-0.6,1.2-0.6c3.1,0,2.9-1,2.9-4.2V23.3
		c0-3.1,0.2-4.1-2.9-4.1c-0.5,0-1.2,0-1.2-0.6c0-0.5,0.4-0.8,0.8-0.8c2.8,0,5.7,0.2,8.5,0.2c3.9,0,7.7-0.2,11.5-0.2
		c0.9,0,0.6,1.2,0.6,1.9v4.3c0,0.3,0,1.1-0.4,1.1c-0.4,0-0.6-0.7-0.7-1l-0.7-1.4c-0.7-1.6-1.3-2.5-2.8-3c-1.5-0.5-3.4-0.5-5-0.5
		c-0.7,0-2.7,0-3.4,0.3c-0.9,0.4-0.7,1.5-0.7,2.3V29.1z"/>
	<path style="fill:#FFFFFF;" d="M285.2,28.6c0,2.5,0.4,2.5,2.3,2.5c1.4,0,3.9,0.1,5.7-0.2c1.2-0.2,1.4-2.1,1.6-3.6
		c0-0.3,0.2-0.9,0.6-0.9c0.2,0,0.5,0.1,0.5,0.5c0,1.5-0.1,3-0.2,4.5c0.1,1.7,0.2,3.2,0.2,4.9c0,0.8-0.3,0.9-0.5,0.9
		c-0.4,0-0.6-0.6-0.6-0.9c-0.2-1.5-0.6-3.1-1.6-3.3c-1.8-0.5-4.3-0.5-5.7-0.5c-1.9,0-2.3,0-2.3,1.8v9.1c0,4.8,2.1,4.9,5.8,4.9
		c4,0,6.6-0.1,8.2-4.7c0.1-0.4,0.5-1.8,1-1.8c0.3,0,0.5,0.2,0.5,0.6c0,0.4-0.1,0.8-0.2,1.3l-0.7,5.5c0,0.4-0.1,0.3-0.5,0.3h-18.4
		c-0.5,0-0.9,0.1-1.5,0.1c-0.5,0.1-1,0.1-1.5,0.1c-0.4,0-0.8-0.2-0.8-0.8c0-0.6,0.8-0.6,1.2-0.6c3.2,0,3.1-1,3.1-4.4V22.6
		c0-3.2,0.2-4.3-3.1-4.3c-0.5,0-1.2,0-1.2-0.6c0-0.5,0.4-0.8,0.8-0.8c2.9,0,5.9,0.2,8.8,0.2c4,0,8-0.2,12-0.2c0.9,0,0.7,1.3,0.7,1.9
		v4.5c0,0.3,0,1.1-0.4,1.1c-0.4,0-0.6-0.7-0.8-1l-0.7-1.5c-0.7-1.6-1.4-2.6-2.9-3.1c-1.5-0.5-3.6-0.5-5.2-0.5c-0.8,0-2.8,0-3.6,0.3
		c-0.9,0.4-0.8,1.5-0.8,2.4V28.6z"/>
	<path style="fill:#FFFFFF;" d="M210.6,43.9c0,3.2-0.2,4.2,2.9,4.2c0.4,0,1.2-0.1,1.2,0.6c0,0.6-0.4,0.7-0.8,0.7
		c-1.7,0-3.3-0.2-5.1-0.2c-1.7,0-3.4,0.2-5.1,0.2c-0.4,0-0.8-0.1-0.8-0.7c0-0.7,0.7-0.6,1.1-0.6c3.2,0,2.9-1,2.9-4.2V20.7
		c0-1.8-0.6-1.5-2-1.5c-4.1,0-5.8,0.5-7.9,4.5c-0.2,0.4-0.5,1.2-1,1.2c-0.3,0-0.5-0.3-0.5-0.6c0-0.4,0.2-1,0.3-1.2l1.8-6.5
		c0.1-0.4,0.2-0.7,0.6-0.7c0.3,0,0.4,0.3,0.4,0.6c0,0.5,0,0.8,0.4,1.1c0.6,0.6,1.5,0.4,2.3,0.4h16.4c1.2,0,2.3,0.3,2.8-1.2
		c0.1-0.4,0.2-0.9,0.7-0.9c0.6,0,0.4,1.5,0.4,1.8l-0.3,6.1c0,0.4,0,0.9-0.5,0.9c-0.3,0-0.4-0.4-0.5-0.7c-0.3-1.1-0.6-2.5-1.3-3.4
		c-1-1.3-2.3-1.3-3.7-1.3h-2.6c-2,0-2-0.1-2,2.5V43.9z"/>
	<path style="fill:#FFFFFF;" d="M248.1,22.6c0-3.3,0.2-4.3-2.7-4.3c-0.4,0-1,0-1-0.7c0-0.6,0.3-0.7,0.7-0.7c1.6,0,3.1,0.2,4.7,0.2
		c1.6,0,3.2-0.2,4.8-0.2c0.4,0,0.7,0.2,0.7,0.7c0,0.7-0.7,0.7-1.1,0.7c-2.9,0-2.7,1-2.7,4.3V44c0,3.3-0.2,4.3,2.7,4.3
		c0.4,0,1.1-0.1,1.1,0.6c0,0.6-0.3,0.7-0.7,0.7c-1.6,0-3.1-0.2-4.7-0.2c-1.6,0-3.2,0.2-4.8,0.2c-0.4,0-0.7-0.1-0.7-0.7
		c0-0.7,0.7-0.6,1-0.6c2.9,0,2.7-1,2.7-4.3V22.6z"/>
	<g>
		<path style="fill:#FFFFFF;" d="M260.1,22.5c0-3.2,0.2-4.2-2.7-4.2c-0.4,0-1.1-0.1-1.1-0.7c0-0.5,0.3-0.7,0.7-0.7
			c1.3,0,2.6,0.2,3.9,0.2c4.8,0,9.5-0.2,14.3-0.2c0.8,0,0.7,1,0.7,1.8v3.6c0,0.4,0.2,2-0.4,2c-0.4,0-0.6-0.7-0.7-1.1
			c-1.1-4.9-3.6-5-7.4-5c-0.7,0-2.9,0-3.6,0.4c-0.6,0.4-0.5,1.8-0.5,2.5v7.4c0,2.4,0.4,2.4,2.1,2.4c1.3,0,3.4,0.1,5.1-0.2
			c1-0.2,1.3-2.1,1.5-3.6c0-0.3,0.2-0.9,0.5-0.9c0.2,0,0.5,0.1,0.5,0.5c0,1.5-0.1,3-0.2,4.5c0.1,1.7,0.2,3.2,0.2,4.9
			c0,0.8-0.3,0.9-0.5,0.9c-0.4,0-0.5-0.6-0.5-0.9c-0.2-1.5-0.5-3.1-1.5-3.3c-1.6-0.5-3.8-0.5-5.1-0.5c-1.7,0-2.1,0-2.1,1.8V44
			c0,3.3-0.2,4.3,2.7,4.3c0.4,0,1.1-0.1,1.1,0.6c0,0.6-0.3,0.7-0.7,0.7c-1.6,0-3.1-0.2-4.7-0.2c-1.6,0-3.2,0.2-4.8,0.2
			c-0.4,0-0.7-0.1-0.7-0.7c0-0.7,0.7-0.6,1-0.6c2.9,0,2.7-1,2.7-4.3V22.5z"/>
	</g>
	<path style="fill:#FFFFFF;" d="M229.6,41.2c0,4.8,0.1,7,4.6,7c1.8,0,4.1-0.6,5.5-2.1c1.2-1.2,2.1-3.5,2.6-5.2
		c0.1-0.3,0.3-0.8,0.6-0.8c0.5,0,0.5,0.4,0.5,0.9c0,2.1-0.5,4.3-0.6,6.5c-0.1,1.6,0.1,2.4-1.3,2.4c-4.8,0-9.8-0.3-14.6-0.3
		c-1.7,0-3.3,0.3-5,0.3c-0.5,0-0.9-0.3-0.9-0.9c0-0.8,0.8-0.8,1.3-0.8c3.5,0,3.2-1.2,3.2-5.1V17.5c0-3.9,0.3-5.1-3.3-5.1
		c-0.5,0-1.3,0-1.3-0.8c0-0.7,0.4-0.9,0.9-0.9c1.9,0,3.7,0.3,5.6,0.3c1.9,0,3.8-0.3,5.7-0.3c0.5,0,0.9,0.2,0.9,0.9
		c0,0.8-0.9,0.8-1.3,0.8c-3.5,0-3.3,1.2-3.3,5.1V41.2z"/>
</g>
</svg>
