<?xml version="1.0" encoding="utf-8"?>
<!-- Generator: Adobe Illustrator 25.0.0, SVG Export Plug-In . SVG Version: 6.00 Build 0)  -->
<svg version="1.1" id="Layer_1" xmlns="http://www.w3.org/2000/svg" xmlns:xlink="http://www.w3.org/1999/xlink" x="0px" y="0px"
	 viewBox="0 0 320 60" style="enable-background:new 0 0 320 60;" xml:space="preserve">
<path style="fill:#FFFFFF;" d="M210.6,35.3c0,3.8-0.1,4.3-2,4.6l-0.7,0.1c-0.2,0.3-0.1,0.8,0.1,0.9c1.5-0.1,2.7-0.1,4.2-0.1
	c1.4,0,2.7,0,4.4,0.1c0.2-0.1,0.3-0.8,0.1-0.9l-1-0.1c-2-0.2-2.1-0.7-2.1-4.6v-4.7c0-1.3,0.1-1.7,0.6-1.7c0.9,0,1.5,0.7,3.5,3.1
	l2.9,3.3c1.4,1.6,2.3,2.6,3,3.4c0.3,0.3,0.5,0.6,0.5,0.8c0,0.2-0.4,0.3-0.9,0.4l-0.8,0.1c-0.2,0.2-0.1,0.8,0.1,0.9
	c1.7-0.1,3-0.1,4.4-0.1c1.7,0,3.1,0,4.1,0.1c0.3-0.1,0.3-0.7,0.1-0.9l-1-0.1c-1.2-0.1-2-0.6-2.9-1.5c-2.8-3-5.6-6.3-9.1-10.2
	c-0.5-0.6-0.7-0.9-0.7-1.1c0-0.3,0.3-0.6,0.8-1.1l3.3-3.1c2-1.9,4.1-3.6,5.1-4.2c1-0.6,2.4-0.9,3.4-1c0.2-0.2,0.2-0.7-0.1-0.9
	c-1.1,0.1-2.3,0.1-3.6,0.1c-1.3,0-2.7,0-4-0.1c-0.3,0.2-0.3,0.7-0.1,0.9l1,0.2c0.5,0.1,0.6,0.2,0.6,0.4c0,0.1-0.1,0.3-0.3,0.6
	c-0.4,0.5-2.2,2.4-2.8,3l-3.9,3.9c-0.4,0.4-1.3,1.3-1.9,1.7c-0.3,0.2-0.7,0.4-1,0.4c-0.4,0-0.5-0.7-0.5-1.4v-4.2
	c0-3.8,0.1-4.4,2.2-4.6l0.7-0.1c0.2-0.1,0.1-0.8-0.1-0.9c-1.6,0.1-2.8,0.1-4.2,0.1c-1.6,0-2.8,0-4.6-0.1c-0.2,0.1-0.3,0.8-0.1,0.9
	l0.9,0.1c2.1,0.2,2.2,0.8,2.2,4.6V35.3z M191.8,35.3c0,3.8-0.1,4.3-2.2,4.6l-1.1,0.1c-0.2,0.2-0.1,0.8,0.1,0.9
	c2-0.1,3.2-0.1,4.7-0.1h3.4c1.9,0,3.7,0,5.2,0c1.6,0,2.9,0,3.8,0.1c0.5-1,1.5-4.7,1.5-5.1c0-0.3-0.7-0.4-0.9-0.2
	c-0.7,1.9-1.7,3.2-2.4,3.6c-0.6,0.3-1.3,0.5-4.4,0.5c-2.9,0-3.6-0.4-4-0.8c-0.7-0.7-0.8-1.6-0.8-3.9V22.1c0-3.8,0.1-4.4,2.2-4.6
	l0.9-0.1c0.2-0.1,0.1-0.8-0.1-0.9c-1.8,0.1-3.1,0.1-4.5,0.1c-1.5,0-2.7,0-4.7-0.1c-0.2,0.1-0.3,0.8-0.1,0.9l0.9,0.1
	c2.3,0.2,2.4,0.8,2.4,4.6V35.3z M176.5,40.2c-7.2,0-9.8-7-9.8-12.4c0-8,4.9-10.6,8.7-10.6c7,0,9.6,6.5,9.6,12.5
	C185,36.9,180.8,40.2,176.5,40.2 M176,41.3c7,0,12.6-5.4,12.6-12.7c0-6.4-4.2-12.5-12.6-12.5c-7.5,0-13,5.6-13,12.9
	C163,35.5,167.9,41.3,176,41.3 M151.6,19.3c0-1.4,0-1.5,1.1-1.5h2.2c1.5,0,2.7,0,3.5,0.2c1.8,0.5,2.3,1.8,2.6,3.5
	c0.3,0.2,0.8,0.1,0.9-0.1c-0.1-1.4-0.1-3.1-0.1-4.8c-0.5,0.1-2.6,0.1-4.9,0.1h-6.7c-0.7,0-1.4,0-2.1,0c-0.7,0-1.4,0-2.1-0.1
	c-0.2,0.1-0.3,0.8-0.1,0.9l0.6,0.1c2.1,0.3,2.2,0.8,2.2,4.6v13.1c0,3.8-0.1,4.3-2.2,4.6l-0.9,0.1c-0.2,0.2-0.1,0.8,0.1,0.9
	c1.7-0.1,3-0.1,4.6-0.1c1.5,0,2.7,0,4.8,0.1c0.2-0.1,0.3-0.8,0.1-0.9l-1.2-0.1c-2.1-0.2-2.2-0.7-2.2-4.6v-5.1c0-0.9,0.1-1,1.2-1h2.5
	c1.4,0,2.3,0,2.8,0.2c0.7,0.2,1,0.7,1.2,1.4l0.4,1.4c0.3,0.2,0.8,0.2,0.9,0c0-0.8-0.1-2.2-0.1-3.5c0-1.3,0.1-2.8,0.1-3.7
	c-0.1-0.2-0.8-0.2-0.9,0l-0.3,1.5c-0.2,0.9-0.5,1.1-0.9,1.3c-0.4,0.1-1.6,0.2-3.1,0.2h-2.5c-1.1,0-1.2,0-1.2-1V19.3z M133.9,19.3
	c0-1.4,0-1.5,1.1-1.5h2.2c1.5,0,2.7,0,3.5,0.2c1.8,0.5,2.3,1.8,2.6,3.5c0.3,0.2,0.8,0.1,0.9-0.1c-0.1-1.4-0.1-3.1-0.1-4.8
	c-0.5,0.1-2.6,0.1-4.9,0.1h-6.7c-0.7,0-1.4,0-2.1,0c-0.7,0-1.4,0-2.1-0.1c-0.2,0.1-0.3,0.8-0.1,0.9l0.6,0.1c2.1,0.3,2.2,0.8,2.2,4.6
	v13.1c0,3.8-0.1,4.3-2.2,4.6l-0.9,0.1c-0.2,0.2-0.1,0.8,0.1,0.9c1.7-0.1,3-0.1,4.6-0.1c1.5,0,2.7,0,4.8,0.1c0.2-0.1,0.3-0.8,0.1-0.9
	l-1.2-0.1c-2.1-0.2-2.2-0.7-2.2-4.6v-5.1c0-0.9,0.1-1,1.2-1h2.5c1.4,0,2.3,0,2.8,0.2c0.7,0.2,1,0.7,1.2,1.4l0.4,1.4
	c0.3,0.2,0.8,0.2,0.9,0c0-0.8-0.1-2.2-0.1-3.5c0-1.3,0.1-2.8,0.1-3.7c-0.1-0.2-0.8-0.2-0.9,0l-0.3,1.5c-0.2,0.9-0.5,1.1-0.9,1.3
	c-0.4,0.1-1.6,0.2-3.1,0.2h-2.5c-1.1,0-1.2,0-1.2-1V19.3z M121.7,30c0,5.5-2,9.7-7.3,9.7c-5.6,0-7.4-3.9-7.4-9.7v-7.9
	c0-3.8,0.1-4.4,2.2-4.6l0.9-0.1c0.2-0.1,0.1-0.8-0.1-0.9c-1.8,0.1-3,0.1-4.5,0.1c-1.5,0-2.7,0-4.5-0.1c-0.2,0.1-0.3,0.7-0.1,0.9
	l0.9,0.1c2.1,0.2,2.2,0.8,2.2,4.6v8.6c0,4.3,0.9,7,2.8,8.6c1.8,1.5,4.3,2,6.8,2c2.7,0,5.4-0.9,7-2.7c2-2.2,2.6-5.5,2.6-8.7v-4.1
	c0-2,0-6.2,0.5-7.4c0.2-0.5,0.9-0.8,1.8-0.9l0.9-0.1c0.2-0.2,0.2-0.7-0.1-0.9c-1.3,0.1-2.3,0.1-3.8,0.1c-1.4,0-2.8,0-4.2-0.1
	c-0.2,0.1-0.3,0.6-0.1,0.9l0.9,0.1c0.9,0.1,1.6,0.3,1.8,0.8c0.6,1.1,0.7,5.3,0.7,7.5V30z"/>
<path style="fill:#FFFFFF;" d="M99.8,32.9c0-4.4-2.9-7.1-5.8-8.9l-3.7-2.3c-1.7-1.1-3.9-3-3.9-5.7c0-2.1,1-5.2,5.5-5.2
	c4.5,0,5.7,3,6.3,5.2c0.2,0.3,1,0.1,1.2-0.1c0-2-0.4-4.6-0.8-5.7c-0.4,0-1-0.1-1.6-0.3c-1.2-0.4-2.9-0.6-4.3-0.6c-6,0-9.5,3.6-9.5,8
	c0,3.8,2.7,6.5,5,8l4.4,2.9c3.4,2.2,3.8,4.5,3.8,6.5c0,2.8-1.9,5.3-5.8,5.3c-5.4,0-7.3-4.6-8-6.9c-0.2-0.3-0.9-0.2-1.1,0.1
	c0.1,2.2,0.7,5.5,1.3,6.5c0.9,0.5,3.3,1.7,7.2,1.7C95.9,41.5,99.8,38,99.8,32.9"/>
<path style="fill:#FFFFFF;" d="M188.3,48.6h2.5v-0.1c-0.2,0-0.3,0-0.5-0.1c-0.2-0.1-0.3-0.3-0.3-0.6v-3.4c0.1-0.2,0.5-0.8,1.3-0.8
	c0.5,0,0.9,0.4,0.9,1.2v3.1c0,0.3-0.1,0.5-0.3,0.5c-0.1,0-0.3,0.1-0.4,0.1v0.1h2.5v-0.1c-0.2,0-0.3,0-0.5-0.1
	c-0.2-0.1-0.3-0.3-0.3-0.5v-3.5c0.1-0.2,0.5-0.7,1.3-0.7c0.5,0,0.9,0.5,0.9,1.3v3c0,0.3-0.1,0.5-0.3,0.5c-0.1,0-0.3,0.1-0.5,0.1v0.1
	h2.5v-0.1c-0.2,0-0.3,0-0.5-0.1c-0.2-0.1-0.3-0.3-0.3-0.5V45c0-1.1-0.4-1.9-1.4-1.9c-0.8,0-1.3,0.5-1.7,1h0c-0.2-0.6-0.7-1-1.4-1
	c-0.9,0-1.3,0.5-1.7,0.9h0v-0.8l0,0l-1.7,0.1v0.1c0.2,0,0.4,0.1,0.5,0.2c0.2,0.1,0.3,0.4,0.3,0.6v3.7c0,0.3-0.1,0.5-0.3,0.5
	C188.6,48.5,188.5,48.5,188.3,48.6L188.3,48.6z"/>
<path style="fill:#FFFFFF;stroke:#FFFFFF;stroke-width:9.400000e-02;stroke-miterlimit:4.212;" d="M188.3,48.6h2.5v-0.1
	c-0.2,0-0.3,0-0.5-0.1c-0.2-0.1-0.3-0.3-0.3-0.6v-3.4c0.1-0.2,0.5-0.8,1.3-0.8c0.5,0,0.9,0.4,0.9,1.2v3.1c0,0.3-0.1,0.5-0.3,0.5
	c-0.1,0-0.3,0.1-0.4,0.1v0.1h2.5v-0.1c-0.2,0-0.3,0-0.5-0.1c-0.2-0.1-0.3-0.3-0.3-0.5v-3.5c0.1-0.2,0.5-0.7,1.3-0.7
	c0.5,0,0.9,0.5,0.9,1.3v3c0,0.3-0.1,0.5-0.3,0.5c-0.1,0-0.3,0.1-0.5,0.1v0.1h2.5v-0.1c-0.2,0-0.3,0-0.5-0.1
	c-0.2-0.1-0.3-0.3-0.3-0.5V45c0-1.1-0.4-1.9-1.4-1.9c-0.8,0-1.3,0.5-1.7,1h0c-0.2-0.6-0.7-1-1.4-1c-0.9,0-1.3,0.5-1.7,0.9h0v-0.8
	l0,0l-1.7,0.1v0.1c0.2,0,0.4,0.1,0.5,0.2c0.2,0.1,0.3,0.4,0.3,0.6v3.7c0,0.3-0.1,0.5-0.3,0.5C188.6,48.5,188.5,48.5,188.3,48.6
	L188.3,48.6z"/>
<path style="fill:#FFFFFF;" d="M200.2,45.5l0,2.3c-0.3,0.3-0.6,0.6-1,0.6c-0.5,0-0.7-0.4-0.7-1C198.4,46.3,199.2,45.8,200.2,45.5
	 M202.3,47.2h-0.1c0,0.4-0.2,1-0.5,1s-0.5-0.4-0.5-0.6c0-0.4,0.1-1.7,0.1-2.7c0-1.5-0.8-1.7-1.8-1.7c-0.8,0-1.7,0.5-1.7,1.2
	c0,0.3,0.1,0.6,0.5,0.6c0.4,0,0.6-0.3,0.6-0.5c0-0.3-0.1-0.6-0.1-0.9c0.1-0.1,0.3-0.3,0.7-0.3c0.9,0,0.9,1,0.9,1.2v0.8
	c-0.4,0.3-1.2,0.5-1.8,0.7c-0.5,0.2-1,0.5-1,1.5c0,0.7,0.5,1.2,1.2,1.2c0.6,0,1.2-0.3,1.6-0.8h0c0.2,0.5,0.4,0.8,0.9,0.8
	C201.8,48.7,202.2,48.3,202.3,47.2"/>
<path style="fill:#FFFFFF;stroke:#FFFFFF;stroke-width:9.400000e-02;stroke-miterlimit:4.212;" d="M200.2,45.5l0,2.3
	c-0.3,0.3-0.6,0.6-1,0.6c-0.5,0-0.7-0.4-0.7-1C198.4,46.3,199.2,45.8,200.2,45.5z M202.3,47.2h-0.1c0,0.4-0.2,1-0.5,1
	s-0.5-0.4-0.5-0.6c0-0.4,0.1-1.7,0.1-2.7c0-1.5-0.8-1.7-1.8-1.7c-0.8,0-1.7,0.5-1.7,1.2c0,0.3,0.1,0.6,0.5,0.6
	c0.4,0,0.6-0.3,0.6-0.5c0-0.3-0.1-0.6-0.1-0.9c0.1-0.1,0.3-0.3,0.7-0.3c0.9,0,0.9,1,0.9,1.2v0.8c-0.4,0.3-1.2,0.5-1.8,0.7
	c-0.5,0.2-1,0.5-1,1.5c0,0.7,0.5,1.2,1.2,1.2c0.6,0,1.2-0.3,1.6-0.8h0c0.2,0.5,0.4,0.8,0.9,0.8C201.8,48.7,202.2,48.3,202.3,47.2z"
	/>
<path style="fill:#FFFFFF;" d="M205.3,44.9c0,0.8-0.3,1.6-0.9,1.6c-0.6,0-0.9-0.8-0.9-1.6c0-0.8,0.2-1.6,0.9-1.6
	C205.1,43.3,205.3,44.2,205.3,44.9 M204.2,48.6c1,0,1.4,0,1.7,0.1c0.5,0.2,0.6,0.6,0.6,0.9c0,0.9-0.7,1.5-1.7,1.5
	c-1.3,0-1.7-0.8-1.7-1.2C203,49.1,203.4,48.8,204.2,48.6 M207.5,43.7c0-0.3-0.2-0.6-0.5-0.6c-0.5,0-0.7,0.1-1.1,0.3
	c-0.1,0-0.7-0.3-1.5-0.3c-1.1,0-1.9,0.6-1.9,1.7c0,0.7,0.5,1.2,1.2,1.5v0.1c-0.4,0.2-0.9,0.4-0.9,0.9c0,0.7,0.7,0.9,1.2,1.1v0.1
	c-1.1,0-1.8,0.5-1.8,1.2c0,0.9,0.6,1.4,2.3,1.4c1.8,0,2.7-0.8,2.7-1.9c0-1-0.7-1.5-1.4-1.6c-0.2,0-0.9-0.1-1.2-0.1
	c-0.5,0-1.2,0-1.2-0.6c0-0.3,0.2-0.4,0.4-0.5h0.7c0.9,0,1.8-0.6,1.8-1.6c0-0.6-0.2-0.9-0.4-1.2v-0.1c0.2-0.1,0.3-0.2,0.7-0.2
	c0,0.6,0.1,0.9,0.5,0.9C207.3,44.3,207.5,44.1,207.5,43.7"/>
<path style="fill:#FFFFFF;stroke:#FFFFFF;stroke-width:9.400000e-02;stroke-miterlimit:4.212;" d="M205.3,44.9
	c0,0.8-0.3,1.6-0.9,1.6c-0.6,0-0.9-0.8-0.9-1.6c0-0.8,0.2-1.6,0.9-1.6C205.1,43.3,205.3,44.2,205.3,44.9z M204.2,48.6
	c1,0,1.4,0,1.7,0.1c0.5,0.2,0.6,0.6,0.6,0.9c0,0.9-0.7,1.5-1.7,1.5c-1.3,0-1.7-0.8-1.7-1.2C203,49.1,203.4,48.8,204.2,48.6z
	 M207.5,43.7c0-0.3-0.2-0.6-0.5-0.6c-0.5,0-0.7,0.1-1.1,0.3c-0.1,0-0.7-0.3-1.5-0.3c-1.1,0-1.9,0.6-1.9,1.7c0,0.7,0.5,1.2,1.2,1.5
	v0.1c-0.4,0.2-0.9,0.4-0.9,0.9c0,0.7,0.7,0.9,1.2,1.1v0.1c-1.1,0-1.8,0.5-1.8,1.2c0,0.9,0.6,1.4,2.3,1.4c1.8,0,2.7-0.8,2.7-1.9
	c0-1-0.7-1.5-1.4-1.6c-0.2,0-0.9-0.1-1.2-0.1c-0.5,0-1.2,0-1.2-0.6c0-0.3,0.2-0.4,0.4-0.5h0.7c0.9,0,1.8-0.6,1.8-1.6
	c0-0.6-0.2-0.9-0.4-1.2v-0.1c0.2-0.1,0.3-0.2,0.7-0.2c0,0.6,0.1,0.9,0.5,0.9C207.3,44.3,207.5,44.1,207.5,43.7z"/>
<path style="fill:#FFFFFF;" d="M210.7,45.5l0,2.3c-0.3,0.3-0.6,0.6-1,0.6c-0.5,0-0.7-0.4-0.7-1C208.9,46.3,209.6,45.8,210.7,45.5
	 M212.7,47.2h-0.1c0,0.4-0.2,1-0.5,1c-0.4,0-0.5-0.4-0.5-0.6c0-0.4,0.1-1.7,0.1-2.7c0-1.5-0.8-1.7-1.8-1.7c-0.8,0-1.7,0.5-1.7,1.2
	c0,0.3,0.1,0.6,0.5,0.6c0.4,0,0.6-0.3,0.6-0.5c0-0.3-0.1-0.6-0.1-0.9c0.1-0.1,0.3-0.3,0.7-0.3c0.9,0,0.9,1,0.9,1.2v0.8
	c-0.4,0.3-1.2,0.5-1.8,0.7c-0.5,0.2-1,0.5-1,1.5c0,0.7,0.5,1.2,1.2,1.2c0.6,0,1.2-0.3,1.6-0.8h0c0.2,0.5,0.4,0.8,0.9,0.8
	C212.3,48.7,212.7,48.3,212.7,47.2"/>
<path style="fill:#FFFFFF;stroke:#FFFFFF;stroke-width:9.400000e-02;stroke-miterlimit:4.212;" d="M210.7,45.5l0,2.3
	c-0.3,0.3-0.6,0.6-1,0.6c-0.5,0-0.7-0.4-0.7-1C208.9,46.3,209.6,45.8,210.7,45.5z M212.7,47.2h-0.1c0,0.4-0.2,1-0.5,1
	c-0.4,0-0.5-0.4-0.5-0.6c0-0.4,0.1-1.7,0.1-2.7c0-1.5-0.8-1.7-1.8-1.7c-0.8,0-1.7,0.5-1.7,1.2c0,0.3,0.1,0.6,0.5,0.6
	c0.4,0,0.6-0.3,0.6-0.5c0-0.3-0.1-0.6-0.1-0.9c0.1-0.1,0.3-0.3,0.7-0.3c0.9,0,0.9,1,0.9,1.2v0.8c-0.4,0.3-1.2,0.5-1.8,0.7
	c-0.5,0.2-1,0.5-1,1.5c0,0.7,0.5,1.2,1.2,1.2c0.6,0,1.2-0.3,1.6-0.8h0c0.2,0.5,0.4,0.8,0.9,0.8C212.3,48.7,212.7,48.3,212.7,47.2z"
	/>
<path style="fill:#FFFFFF;" d="M213.1,48.6h4.1v-1.7h-0.1c-0.1,0.3-0.3,0.7-0.4,1c-0.1,0.2-0.3,0.6-0.6,0.6c-0.4,0-0.7,0-1,0
	c-0.3,0-0.6,0-1,0l3-5v-0.1h-3.9v1.5h0.1c0.2-0.4,0.6-1.2,0.8-1.3c0.1-0.1,0.6-0.1,1.1-0.1h0.9l-3,5V48.6z"/>
<path style="fill:#FFFFFF;stroke:#FFFFFF;stroke-width:9.400000e-02;stroke-miterlimit:4.212;" d="M213.1,48.6h4.1v-1.7h-0.1
	c-0.1,0.3-0.3,0.7-0.4,1c-0.1,0.2-0.3,0.6-0.6,0.6c-0.4,0-0.7,0-1,0c-0.3,0-0.6,0-1,0l3-5v-0.1h-3.9v1.5h0.1
	c0.2-0.4,0.6-1.2,0.8-1.3c0.1-0.1,0.6-0.1,1.1-0.1h0.9l-3,5V48.6z"/>
<path style="fill:#FFFFFF;" d="M218.1,48.6h2.5v-0.1c-0.2,0-0.3,0-0.5-0.1c-0.2-0.1-0.3-0.3-0.3-0.6v-4.5l0,0l-1.8,0.1v0.1
	c0.2,0,0.5,0.1,0.6,0.2c0.2,0.1,0.3,0.4,0.3,0.6v3.7c0,0.3-0.1,0.5-0.3,0.5C218.5,48.5,218.3,48.5,218.1,48.6L218.1,48.6z"/>
<path style="fill:#FFFFFF;stroke:#FFFFFF;stroke-width:9.400000e-02;stroke-miterlimit:4.212;" d="M218.1,48.6h2.5v-0.1
	c-0.2,0-0.3,0-0.5-0.1c-0.2-0.1-0.3-0.3-0.3-0.6v-4.5l0,0l-1.8,0.1v0.1c0.2,0,0.5,0.1,0.6,0.2c0.2,0.1,0.3,0.4,0.3,0.6v3.7
	c0,0.3-0.1,0.5-0.3,0.5C218.5,48.5,218.3,48.5,218.1,48.6L218.1,48.6z"/>
<path style="fill:#FFFFFF;" d="M219.3,42.6c0.3,0,0.5-0.3,0.5-0.6c0-0.3-0.2-0.5-0.5-0.5c-0.3,0-0.5,0.3-0.5,0.6
	C218.8,42.4,219,42.6,219.3,42.6"/>
<path style="fill:#FFFFFF;stroke:#FFFFFF;stroke-width:9.400000e-02;stroke-miterlimit:4.212;" d="M219.3,42.6
	c0.3,0,0.5-0.3,0.5-0.6c0-0.3-0.2-0.5-0.5-0.5c-0.3,0-0.5,0.3-0.5,0.6C218.8,42.4,219,42.6,219.3,42.6z"/>
<path style="fill:#FFFFFF;" d="M221.1,48.6h2.5v-0.1c-0.2,0-0.3,0-0.5-0.1c-0.2-0.1-0.3-0.3-0.3-0.6v-3.4c0.1-0.3,0.6-0.8,1.3-0.8
	c0.5,0,0.9,0.4,0.9,1.2v3c0,0.3-0.1,0.5-0.3,0.5c-0.1,0-0.3,0.1-0.5,0.1v0.1h2.5v-0.1c-0.2,0-0.3,0-0.5-0.1
	c-0.2-0.1-0.3-0.3-0.3-0.6V45c0-1.1-0.5-1.8-1.4-1.8c-0.9,0-1.3,0.5-1.7,0.9h0v-0.8l0,0l-1.7,0.1v0.1c0.2,0,0.4,0.1,0.5,0.2
	c0.2,0.1,0.3,0.4,0.3,0.6v3.7c0,0.3-0.1,0.5-0.3,0.5C221.4,48.5,221.3,48.5,221.1,48.6L221.1,48.6z"/>
<path style="fill:#FFFFFF;stroke:#FFFFFF;stroke-width:9.400000e-02;stroke-miterlimit:4.212;" d="M221.1,48.6h2.5v-0.1
	c-0.2,0-0.3,0-0.5-0.1c-0.2-0.1-0.3-0.3-0.3-0.6v-3.4c0.1-0.3,0.6-0.8,1.3-0.8c0.5,0,0.9,0.4,0.9,1.2v3c0,0.3-0.1,0.5-0.3,0.5
	c-0.1,0-0.3,0.1-0.5,0.1v0.1h2.5v-0.1c-0.2,0-0.3,0-0.5-0.1c-0.2-0.1-0.3-0.3-0.3-0.6V45c0-1.1-0.5-1.8-1.4-1.8
	c-0.9,0-1.3,0.5-1.7,0.9h0v-0.8l0,0l-1.7,0.1v0.1c0.2,0,0.4,0.1,0.5,0.2c0.2,0.1,0.3,0.4,0.3,0.6v3.7c0,0.3-0.1,0.5-0.3,0.5
	C221.4,48.5,221.3,48.5,221.1,48.6L221.1,48.6z"/>
<path style="fill:#FFFFFF;" d="M227.9,45.3c0-1.2,0.5-2,1.2-2c0.8,0,1,1.1,1,2L227.9,45.3z M227.9,45.6v-0.2h3.2v-0.1
	c0-1.1-0.5-2.2-2-2.2c-1.4,0-2.2,1.3-2.2,2.7c0,1.5,0.7,2.8,2.4,2.8c0.9,0,1.6-0.6,2-1.4l-0.1-0.1c-0.4,0.7-0.8,1.1-1.6,1.1
	C228.3,48.4,227.9,47.1,227.9,45.6"/>
<path style="fill:#FFFFFF;stroke:#FFFFFF;stroke-width:9.400000e-02;stroke-miterlimit:4.212;" d="M227.9,45.3c0-1.2,0.5-2,1.2-2
	c0.8,0,1,1.1,1,2L227.9,45.3z M227.9,45.6v-0.2h3.2v-0.1c0-1.1-0.5-2.2-2-2.2c-1.4,0-2.2,1.3-2.2,2.7c0,1.5,0.7,2.8,2.4,2.8
	c0.9,0,1.6-0.6,2-1.4l-0.1-0.1c-0.4,0.7-0.8,1.1-1.6,1.1C228.3,48.4,227.9,47.1,227.9,45.6z"/>
</svg>
