<?xml version="1.0" encoding="utf-8"?>
<!-- Generator: Adobe Illustrator 25.0.0, SVG Export Plug-In . SVG Version: 6.00 Build 0)  -->
<svg version="1.1" id="Layer_1" xmlns="http://www.w3.org/2000/svg" xmlns:xlink="http://www.w3.org/1999/xlink" x="0px" y="0px"
	 viewBox="0 0 320 60" style="enable-background:new 0 0 320 60;" xml:space="preserve">
<g>
	<path style="fill:#FFFFFF;" d="M30.3,51.3c-2,0.1-3.9-0.1-5.8-0.6c-1.4-0.4-2.7-0.8-4-1.5c-0.2-0.1-0.2-0.2-0.3-0.4
		c-0.4-0.8-0.4-1.7-0.6-2.6c-0.3-1.9-0.4-3.8-0.9-5.6c-0.1-0.4,0.1-0.5,0.4-0.6c0.7-0.2,1,0,1.2,0.7c0.7,2.1,1.7,4.1,3.3,5.8
		c1.1,1.1,2.4,1.9,3.9,2.4c1.2,0.4,2.5,0.6,3.8,0.5c2.1-0.1,4-0.7,5.5-2.3c0.9-1,1.4-2.1,1.6-3.4c0.3-2,0.1-3.8-0.8-5.6
		c-0.7-1.5-1.8-2.6-3.1-3.6c-1.5-1.1-3.1-2-4.6-3.1c-1.9-1.2-3.8-2.4-5.4-4.1c-1.5-1.6-2.7-3.4-3.2-5.5c-0.9-3.8,0-7.1,2.8-9.8
		c1.6-1.6,3.6-2.5,5.8-2.9c2.3-0.5,4.6-0.4,7-0.1c1,0.1,2,0.4,2.9,0.6c0.5,0.1,1,0.3,1.5,0.2c0.3,0,0.3,0.1,0.4,0.3
		c0.1,0.5,0.1,1,0.1,1.5c-0.2,1.9,0.2,3.7,0.8,5.5c0.2,0.5,0.2,0.6-0.4,0.7c-0.7,0.2-1,0-1.2-0.7c-0.5-1.6-1.2-3.2-2.5-4.4
		c-1.1-1-2.4-1.7-3.9-1.9c-0.8-0.1-1.6-0.3-2.4-0.2c-1.5,0.1-3,0.4-4.3,1.3c-1.3,1-2,2.3-2.3,3.8c-0.2,1.4-0.2,2.7,0.3,4
		c0.7,1.8,2,3.2,3.5,4.4c2.1,1.5,4.4,2.8,6.6,4.2c2.3,1.5,4.3,3.2,5.7,5.6c1,1.8,1.6,3.7,1.6,5.8c0,2.4-0.5,4.5-1.8,6.5
		c-0.9,1.4-2.1,2.4-3.5,3.3c-1.5,0.9-3.2,1.4-4.9,1.7C32,51.3,31.1,51.4,30.3,51.3z"/>
	<path style="fill:#FFFFFF;" d="M179.4,50.4c-1,0.1-1.8,0-2.6,0.1c-0.3,0.1-0.6-0.6-0.4-1c0.1-0.3,0.3-0.4,0.6-0.4
		c0.7,0,1.4-0.1,2.1-0.3c0.7-0.2,0.8-0.4,0.5-1.1c-0.3-0.8-0.9-1.5-1.4-2.2c-1.7-2.5-3.5-4.9-5.2-7.4c-0.4-0.6-0.8-1.1-1.2-1.7
		c-0.2-0.3-0.4-0.2-0.6,0c-1.1,1.5-2.1,3-3.2,4.6c-1.2,1.7-2.3,3.5-3.4,5.3c-0.3,0.5-0.6,1-0.8,1.5c-0.2,0.5,0,0.7,0.4,0.8
		c0.6,0.2,1.2,0.2,1.8,0.3c0.3,0,0.5,0,0.7,0.4c0.1,0.3,0,0.6-0.1,0.9c0,0.1-0.1,0.1-0.3,0.1c-1-0.2-2-0.1-3-0.1
		c-0.9,0-1.8-0.2-2.6-0.1c-1.5,0.2-3,0-4.5,0.2c-0.4,0-0.5-0.2-0.6-0.6c-0.1-0.5,0.1-0.7,0.5-0.8c0.6,0,1.1-0.1,1.7-0.2
		c1.3-0.3,2.4-1.1,3.3-2c1.5-1.6,2.8-3.4,4.1-5.1c1.6-2.1,3.2-4.2,4.6-6.4c0.6-0.9,0.6-1,0-1.7c-1.5-2.2-3-4.3-4.5-6.5
		c-1.2-1.8-2.4-3.5-3.7-5.3c-0.7-1-1.5-2-2.6-2.6c-0.7-0.4-1.5-0.5-2.3-0.7c-0.6-0.1-0.8-0.5-0.6-1c0.1-0.3,0.3-0.4,0.5-0.4
		c1.6,0,3.1,0.1,4.7,0.1c2,0,4,0,6-0.1c0.3,0,0.5,0,0.6,0.3c0.1,0.3,0.1,0.6-0.1,0.9c-0.1,0.1-0.2,0.1-0.3,0.1
		c-0.6,0.1-1.3,0.1-1.9,0.2c-0.7,0.2-0.8,0.4-0.5,1.1c0.4,0.9,1.1,1.7,1.6,2.6c0.9,1.4,1.9,2.8,2.9,4.2c1,1.4,1.9,2.8,3,4.2
		c0.2,0.3,0.3,0.2,0.5,0c2-2.9,3.9-5.8,5.8-8.8c0.5-0.7,1-1.4,1.2-2.3c0.1-0.4,0-0.6-0.3-0.7c-0.5-0.2-1-0.3-1.5-0.3
		c-0.3,0-0.6,0-0.9-0.1c-0.4-0.1-0.3-0.5-0.3-0.7c0-0.3,0.1-0.5,0.5-0.5c1,0,2,0.1,3,0.1c1.8,0.1,3.6,0.1,5.4-0.1c0.4,0,0.9,0,1.3,0
		c0.4,0,0.5,0.3,0.5,0.6c0,0.3,0,0.6-0.5,0.6c-2.1,0-3.5,1.2-4.8,2.6c-1.5,1.6-2.8,3.5-4.2,5.3c-1.3,1.8-2.6,3.7-4,5.5
		c-0.4,0.6-0.4,0.9,0,1.5c1.6,2.2,3.2,4.5,4.8,6.7c1.3,1.9,2.6,3.8,4,5.6c0.8,1.1,1.7,2.2,3,2.8c0.9,0.4,1.8,0.5,2.8,0.5
		c0.7,0,1,0.6,0.6,1.2c-0.1,0.1-0.2,0.2-0.4,0.2c-1.3-0.2-2.5-0.1-3.8-0.1c-1,0-1.9-0.1-2.9-0.1C181.4,50.4,180.3,50.5,179.4,50.4z"
		/>
	<path style="fill:#FFFFFF;" d="M216.6,48.4c0.9,0,1.7,0,2.6,0c1.1-0.1,2.1-0.2,3.2-0.4c1.1-0.2,1.9-1,2.5-1.8
		c1.1-1.3,1.8-2.8,2.5-4.4c0.2-0.4,0.6-0.6,1.1-0.4c0.5,0.1,0.6,0.4,0.5,0.9c-0.6,2.6-1.3,5.2-2.3,7.7c-0.2,0.4-0.4,0.6-0.8,0.5
		c-3.6-0.2-7.2,0-10.8-0.1c-3.5-0.1-7-0.1-10.6,0c-1.6,0-3.3,0-4.9,0.1c-0.5,0-0.9,0.1-1.4,0.1c-0.2,0-0.3,0-0.4-0.1
		c-0.3-0.4-0.3-0.8-0.1-1.2c0.1-0.3,0.4-0.3,0.7-0.3c1-0.1,1.9-0.1,2.9-0.4c1-0.3,1.5-0.9,1.8-1.9c0.3-1.3,0.3-2.7,0.3-4
		c0-6.2,0-12.5,0-18.7c0-3,0-6,0-9.1c0-0.5-0.1-1.1-0.3-1.6c-0.3-1.2-1.2-1.8-2.4-2c-0.9-0.1-1.7-0.2-2.6-0.3
		c-0.2,0-0.4-0.1-0.4-0.3c-0.1-0.3-0.1-0.6,0-0.9c0.1-0.2,0.2-0.4,0.5-0.4c1.6,0.1,3.2,0.1,4.8,0.3c1.5,0.1,3.1,0.1,4.6,0.1
		c1.7-0.1,3.4-0.2,5.2-0.3c0.4,0,0.6,0.2,0.6,0.8c0,0.3,0.1,0.8-0.4,0.8c-0.5,0.1-1,0.1-1.5,0.1c-0.6,0-1.2,0.1-1.8,0.3
		c-1.1,0.3-1.4,1.2-1.6,2.2c-0.2,1.2-0.1,2.4-0.2,3.6c-0.2,7,0,14-0.1,21.1c0,0.4,0,0.8,0,1.2c0,1.4,0,2.8,0.1,4.2
		c0.1,1,0.2,1.9,0.8,2.8c0.5,0.7,1.2,1.2,2,1.4c0.8,0.2,1.7,0.3,2.5,0.4C214.4,48.5,215.5,48.4,216.6,48.4z"/>
	<path style="fill:#FFFFFF;" d="M136.4,38.7c0,2,0,4.1,0.1,6.1c0,0.8,0.2,1.6,0.5,2.3c0.4,0.8,1.1,1.2,2,1.3
		c1.8,0.4,3.7,0.4,5.6,0.4c0.8,0,1.7,0,2.5-0.1c1.1-0.1,2.3-0.2,3.2-1c0.8-0.7,1.4-1.6,1.9-2.5c0.4-0.6,0.7-1.2,1-1.8
		c0.2-0.4,0.6-0.3,0.9-0.2c0.4,0.1,0.5,0.4,0.4,0.8c-0.3,1-0.6,2-0.9,3c-0.3,1.1-0.7,2.2-1.2,3.2c-0.1,0.3-0.3,0.4-0.6,0.4
		c-1.4-0.2-2.8-0.1-4.2-0.1c-1.8,0-3.6,0.1-5.4,0c-2.8-0.1-5.7-0.1-8.5-0.1c-1.8,0-3.7,0.1-5.5,0.1c-0.3,0-0.5,0.2-0.8,0
		c-0.2-0.2-0.2-0.5-0.2-0.7c0-0.3,0.2-0.5,0.6-0.5c0.8,0,1.6-0.1,2.4-0.2c1-0.2,1.6-0.8,1.8-1.9c0.2-1.4,0.3-2.8,0.3-4.2
		c0-6.6,0-13.3,0-19.9c0-0.8-0.1-1.7-0.3-2.5c-0.3-1-0.8-1.4-1.9-1.6c-0.5-0.1-1-0.2-1.5-0.2c-0.5,0-0.4-0.4-0.4-0.7
		c0-0.3,0-0.6,0.5-0.6c2.1,0.1,4.2,0.2,6.3,0.1c2.9,0,5.7,0,8.6,0c1.8,0,3.6,0,5.5,0c0.4,0,0.7,0,1.1-0.1c0.3,0,0.4,0,0.5,0.3
		c0.2,0.9,0.2,1.8,0.4,2.7c0.2,1.1,0.1,2.2,0.3,3.3c0,0.2,0,0.3-0.1,0.4c-0.4,0.4-1.1,0.2-1.3-0.4c-0.3-1-0.7-2.1-1.3-3
		c-0.6-0.8-1.4-1.2-2.4-1.4c-1.7-0.4-3.4-0.3-5.1-0.3c-1.3,0-2.5,0-3.8,0c-0.7,0-0.9,0.2-0.9,0.9c-0.1,2.8,0,5.6,0,8.4
		c0,0.3,0,0.5,0,0.8c0,0.6,0.3,0.8,0.9,0.8c1.3,0,2.7,0.1,4,0c0.8-0.1,1.6,0,2.3-0.2c0.9-0.2,1.2-0.7,1.4-1.5
		c0.1-0.7,0.3-1.4,0.4-2.1c0-0.3,0.4-0.5,0.9-0.5c0.4,0,0.5,0.2,0.5,0.6c0,1.8-0.2,3.5-0.2,5.3c0,1.3,0.2,2.5,0.2,3.8
		c0,0.3,0,0.6-0.4,0.6c-0.6,0.1-0.9,0-1-0.4c-0.1-0.6-0.3-1.1-0.4-1.7c-0.2-1.2-0.9-1.8-2.1-2c-1.9-0.2-3.8-0.1-5.8-0.1
		c-0.5,0-0.8,0.2-0.8,0.8c0,1,0,2.1,0,3.1C136.3,36.7,136.4,37.7,136.4,38.7z"/>
	<path style="fill:#FFFFFF;" d="M283.2,38.4c0,1.9,0,3.7,0,5.6c0,1,0.1,2.1,0.5,3.1c0.4,0.8,1.1,1.2,1.9,1.4
		c2.3,0.5,4.6,0.4,6.9,0.3c0.9,0,1.8-0.1,2.7-0.3c1-0.2,1.8-0.7,2.4-1.5c0.8-1,1.5-2.2,2.1-3.3c0.2-0.4,0.4-0.6,0.9-0.5
		c0.5,0.1,0.6,0.4,0.5,0.8c-0.4,1.6-0.9,3.2-1.4,4.7c-0.2,0.5-0.4,1-0.6,1.6c-0.1,0.3-0.2,0.4-0.5,0.3c-1.5-0.2-3.1-0.1-4.6-0.1
		c-1.7,0-3.3,0.1-5,0c-2.9-0.2-5.9-0.1-8.8,0c-1.7,0-3.4,0-5.2,0.1c-0.1,0-0.1,0-0.2,0c-0.6,0.1-0.8,0-0.8-0.6
		c0-0.4,0.2-0.7,0.7-0.7c0.7,0,1.4-0.1,2.2-0.2c1.4-0.2,1.8-1.2,1.9-2.4c0.3-3.8,0.1-7.7,0.1-11.5c0-4.1,0-8.2,0-12.3
		c0-0.7-0.1-1.4-0.2-2.1c-0.2-1-0.8-1.6-1.9-1.8c-0.5-0.1-1-0.2-1.5-0.2c-0.2,0-0.3-0.1-0.4-0.3c-0.2-0.6,0.1-1,0.7-1
		c4,0.2,8,0.1,12,0.1c2.8,0,5.7,0,8.5,0c0.2,0,0.5,0,0.7-0.1c0.4-0.1,0.5,0.2,0.6,0.4c0.1,0.5,0.2,1.1,0.2,1.6
		c0.1,1.1,0.2,2.3,0.3,3.4c0,0.2,0,0.5,0.1,0.7c0.1,0.4-0.1,0.7-0.5,0.7c-0.5,0.1-0.8-0.1-0.9-0.6c-0.1-0.6-0.4-1.1-0.6-1.7
		c-0.7-1.8-2.1-2.6-4-2.8c-1.9-0.2-3.7-0.1-5.6-0.1c-0.8,0-1.6,0-2.4,0c-0.7,0-0.9,0.3-0.9,1c0,1.7,0,3.3,0,5c0,1.3,0,2.7,0,4
		c0,0.8,0.2,1,1,1c1.2,0,2.5,0.1,3.7,0c0.9-0.1,1.7,0,2.6-0.2c0.9-0.2,1.2-0.7,1.3-1.4c0.2-0.8,0.3-1.5,0.5-2.3
		c0.1-0.3,0.4-0.5,0.9-0.4c0.4,0.1,0.7,0.3,0.6,0.7c-0.2,0.4-0.1,0.8-0.1,1.2c-0.1,1.6-0.2,3.3-0.1,4.9c0.1,1,0,1.9,0.2,2.9
		c0.1,0.3-0.1,0.6-0.4,0.6c-0.5,0.1-0.9,0-1-0.4c-0.2-0.7-0.3-1.4-0.5-2.1c-0.3-1-0.7-1.5-2-1.7c-1.9-0.2-3.9-0.1-5.8-0.1
		c-0.6,0-0.8,0.3-0.8,0.9C283.2,34.6,283.2,36.5,283.2,38.4C283.2,38.4,283.2,38.4,283.2,38.4z"/>
	<path style="fill:#FFFFFF;" d="M73.2,32.8c0-2.5,0.1-5.1-0.1-7.6c-0.1-1.6-0.2-3.2-0.6-4.8c-0.2-0.8-0.7-1.3-1.5-1.5
		c-0.6-0.2-1.3-0.3-1.9-0.3c-0.5,0-0.6-0.2-0.6-0.7c0-0.4,0.1-0.6,0.6-0.6c2.2,0.1,4.5,0.2,6.7,0.1c1.1,0,2.2-0.1,3.3-0.1
		c0.4,0,0.6,0.2,0.6,0.6c0,0.4-0.2,0.6-0.6,0.6c-0.6,0-1.3,0.1-1.9,0.3c-0.9,0.2-1.4,0.8-1.5,1.8c-0.1,1-0.2,2-0.3,2.9
		c-0.2,3-0.1,6.1-0.1,9.1c0,1.2,0,2.4,0,3.5c0,1.5-0.1,3-0.4,4.5c-0.3,1.6-0.7,3.1-1.4,4.5c-1.2,2.4-3.1,4.1-5.7,5
		c-2.1,0.8-4.3,1.1-6.6,0.9c-2.2-0.2-4.4-0.6-6.3-1.8c-1.8-1.1-3.1-2.7-3.9-4.7c-0.9-2.3-1.1-4.6-1.2-7c-0.1-2.2,0-4.4-0.1-6.6
		c0-1.9,0-3.7,0-5.6c0-1.4,0-2.7-0.1-4.1c0-0.5-0.1-1.1-0.3-1.6c-0.2-0.6-0.7-0.9-1.2-1c-0.7-0.2-1.4-0.3-2.1-0.3
		c-0.4,0-0.6-0.2-0.6-0.6c0-0.5,0.1-0.7,0.6-0.7c2,0,4.1,0.2,6.1,0.1c1.7,0,3.4-0.1,5.2-0.1c0.2,0,0.5,0,0.6,0.2
		c0.1,0.3,0.1,0.6,0,0.9c-0.1,0.2-0.3,0.1-0.4,0.1c-0.7,0-1.3,0.1-1.9,0.2c-0.9,0.2-1.4,0.8-1.6,1.8c-0.2,1.3-0.2,2.6-0.2,3.8
		c0,2.4,0,4.8,0,7.2c0,2.2-0.1,4.4,0.1,6.6c0.2,2.1,0.5,4.3,1.5,6.2c1.1,2.1,2.8,3.5,5.1,4.1c1.7,0.4,3.4,0.5,5,0.2
		c2.4-0.4,4.3-1.7,5.6-3.8c0.8-1.4,1.3-2.9,1.6-4.5c0.5-2.4,0.4-4.7,0.4-7.1C73.2,33.1,73.2,32.9,73.2,32.8z"/>
	<path style="fill:#FFFFFF;" d="M256.4,38.3c0,2.1,0,4.2,0,6.4c0,0.8,0,1.6,0.2,2.5c0.3,1.4,1,1.7,2.4,1.9c0.6,0.1,1.2,0.1,1.8,0.1
		c0.5,0,0.6,0.2,0.5,0.7c-0.1,0.6-0.2,0.7-0.7,0.6c-0.5-0.1-1,0-1.5,0c-0.9,0-1.9,0-2.8,0c-0.9,0-1.8-0.2-2.7-0.1
		c-1.6,0.1-3.3,0.1-4.9,0.1c-0.8,0-0.8,0-0.8-0.7c0-0.4,0.2-0.5,0.5-0.5c0.6-0.1,1.2-0.1,1.8-0.2c1.5-0.3,1.9-1.2,2-2.5
		c0.2-2.2,0.1-4.4,0.1-6.6c0-5.5,0-11.1,0-16.6c0-1,0-2.1-0.3-3.1c-0.2-0.7-0.7-1-1.4-1.2c-0.6-0.2-1.2-0.2-1.8-0.3
		c-0.4-0.1-0.4-0.3-0.4-0.6c0-0.3,0-0.7,0.5-0.7c1.1,0,2.1,0,3.2,0.1c1.4,0.1,2.7,0,4.1,0c2.5,0,4.9,0,7.4,0c1.9,0,3.7,0,5.6,0
		c0.1,0,0.2,0,0.3,0c1-0.1,1-0.1,1,0.9c0,1.2,0,2.4,0,3.7c0,0.5,0.1,1.1,0.1,1.6c0,0.4-0.2,0.6-0.6,0.7c-0.4,0-0.6-0.1-0.7-0.5
		c-0.2-1.1-0.5-2.2-1.2-3c-0.8-0.9-1.8-1.3-3-1.5c-2.4-0.3-4.8-0.1-7.2-0.1c-1.2,0-1.4,0.1-1.4,1.4c0,3,0,6,0,8.9c0,0.9,0,1,1.1,1.1
		c1.6,0,3.2,0,4.8,0c0.7,0,1.3,0,2-0.2c0.8-0.2,1.2-0.7,1.4-1.5c0.2-0.7,0.3-1.4,0.5-2.1c0.1-0.4,0.4-0.6,0.9-0.5
		c0.4,0,0.5,0.3,0.5,0.6c-0.1,1.9-0.3,3.7-0.2,5.6c0,1,0,2,0.2,3c0,0.1,0,0.2,0,0.2c0,0.7-0.5,1-1.2,0.7c-0.1-0.1-0.2-0.1-0.2-0.3
		c-0.2-0.7-0.4-1.5-0.6-2.2c-0.3-1-1.2-1.5-2.2-1.6c-1.9-0.2-3.9-0.1-5.8-0.1c-0.9,0-1.1,0.2-1.1,1.1
		C256.4,35,256.4,36.7,256.4,38.3C256.4,38.3,256.4,38.3,256.4,38.3z"/>
	<path style="fill:#FFFFFF;" d="M112.6,51.2c-1.4,0-2.8-0.2-4.2-0.5c-1.1-0.3-2.3-0.7-3.3-1.2c-0.2-0.1-0.3-0.3-0.4-0.5
		c-0.3-1-0.4-2.1-0.5-3.1c-0.1-1.1-0.3-2.1-0.6-3.1c-0.1-0.3-0.2-0.6,0.3-0.7c0.4-0.1,0.8,0,0.9,0.4c0.3,0.8,0.6,1.7,1,2.5
		c1.2,2.3,2.9,4,5.5,4.5c1.8,0.4,3.5,0.4,5.2-0.4c1.7-0.8,2.7-2.2,3-4.1c0.3-1.9,0-3.7-1.1-5.3c-0.7-1.1-1.8-1.9-2.9-2.6
		c-1.9-1.3-3.9-2.4-5.8-3.8c-2-1.5-3.5-3.3-4.1-5.8c-0.6-2.4-0.2-4.6,1.2-6.7c1.2-1.8,2.9-2.8,4.9-3.4c2.4-0.7,4.7-0.6,7.1-0.2
		c1,0.2,1.9,0.6,3,0.6c0.2,0,0.2,0.1,0.3,0.3c0.2,0.5,0.1,1,0.1,1.5c0,1.4,0.1,2.9,0.7,4.2c0.1,0.2,0,0.3-0.1,0.4
		c-0.4,0.3-1.1,0.1-1.3-0.4c-0.2-0.9-0.6-1.7-1.1-2.5c-0.9-1.4-2.1-2.2-3.7-2.6c-1.5-0.3-3-0.3-4.4,0.2c-1.4,0.5-2.4,1.4-3,2.9
		c-0.4,1.2-0.5,2.4-0.2,3.5c0.2,1,0.7,1.8,1.4,2.6c1,1.2,2.2,2,3.5,2.8c1.7,1.1,3.5,2,5.1,3.3c1.8,1.4,3.3,3.1,3.9,5.4
		c0.5,1.6,0.6,3.2,0.2,4.9c-0.4,1.9-1.3,3.5-2.8,4.8c-1.4,1.2-3.1,1.9-5,2.3C114.4,51.1,113.5,51.2,112.6,51.2z"/>
	<path style="fill:#FFFFFF;" d="M88.4,51.2c-2.8-0.1-5.3-0.5-7.6-1.6c-0.6-0.3-0.6-0.9-0.7-1.4c-0.4-1.9-0.4-3.9-1-5.7
		c-0.1-0.2,0-0.4,0.2-0.4c0.5-0.2,0.9-0.1,1,0.5c0.6,1.6,1.3,3.2,2.5,4.5c1.5,1.7,3.4,2.5,5.7,2.6c1.1,0,2.1-0.1,3.1-0.5
		c1.3-0.5,2.3-1.4,2.9-2.6c0.7-1.4,0.7-2.8,0.4-4.3c-0.4-2.5-2-4-3.9-5.3c-1.8-1.2-3.7-2.3-5.4-3.6c-1.9-1.4-3.4-3.1-4.2-5.3
		c-0.7-1.9-0.7-3.8,0-5.7c1-2.7,3.1-4.3,5.7-5.1c2.2-0.7,4.4-0.7,6.7-0.3c1.2,0.2,2.3,0.6,3.5,0.7c0.2,0,0.2,0.2,0.3,0.4
		c0.1,0.4,0.1,0.9,0.1,1.3c0,1.4,0.1,2.9,0.6,4.2c0.1,0.3,0.1,0.5-0.3,0.5c-0.7,0.1-0.9,0-1.1-0.7c-0.4-1.3-1-2.6-2-3.5
		c-1-0.9-2.2-1.4-3.6-1.5c-0.8-0.1-1.5-0.1-2.3,0c-1.8,0.2-3.6,1.2-4.3,3.2c-0.9,2.6-0.1,4.8,1.8,6.7c1,1,2.2,1.6,3.3,2.4
		c1.6,1.1,3.3,2,4.8,3.2c1.9,1.6,3.4,3.5,3.9,6c0.5,2.6,0.2,5.1-1.3,7.3c-1,1.4-2.3,2.4-4,3.1C91.7,50.9,89.9,51.1,88.4,51.2z"/>
	<path style="fill:#FFFFFF;" d="M231.8,17.3c2.4,0.1,4.9,0.2,7.3,0.1c1.4,0,2.8-0.1,4.2-0.1c0.2,0,0.5-0.1,0.6,0.2
		c0.1,0.3,0.2,0.6,0,0.9c-0.1,0.2-0.3,0.1-0.4,0.2c-0.8,0.1-1.5,0.1-2.3,0.3c-0.9,0.2-1.3,0.9-1.5,1.8c-0.3,1.7-0.2,3.4-0.2,5
		c0,6.3,0,12.6,0,19c0,0.9,0,1.8,0.3,2.7c0.2,0.7,0.6,1.1,1.3,1.4c0.7,0.2,1.5,0.3,2.2,0.4c0.3,0,0.5,0.1,0.6,0.4
		c0.1,0.3,0,0.7-0.2,0.9c-0.1,0.1-0.2,0.1-0.3,0.1c-1.3-0.2-2.6-0.1-3.9-0.1c-0.6,0-1.2-0.1-1.8-0.1c-2,0.1-3.9,0.1-5.9,0.1
		c-0.1,0-0.1,0-0.2,0c-0.7,0.1-0.9-0.1-0.8-0.8c0-0.3,0.2-0.5,0.5-0.5c0.7,0,1.4-0.1,2.1-0.3c1-0.2,1.5-0.9,1.7-1.9
		c0.1-0.9,0.1-1.7,0.1-2.6c0.2-5,0-10,0.1-15c0-1.7,0.1-3.4,0-5.1c-0.1-1.1,0-2.3-0.2-3.4c-0.2-1.3-0.8-1.8-2-2.1
		c-0.6-0.1-1.2-0.2-1.9-0.2c-0.3,0-0.4-0.2-0.4-0.5c0-0.3,0-0.7,0.4-0.7C231.5,17.3,231.6,17.3,231.8,17.3z"/>
</g>
</svg>
