<?xml version="1.0" encoding="utf-8"?>
<!-- Generator: Adobe Illustrator 25.0.0, SVG Export Plug-In . SVG Version: 6.00 Build 0)  -->
<svg version="1.1" id="Layer_1" xmlns="http://www.w3.org/2000/svg" xmlns:xlink="http://www.w3.org/1999/xlink" x="0px" y="0px"
	 viewBox="0 0 320 60" style="enable-background:new 0 0 320 60;" xml:space="preserve">
<g>
	<path style="fill:#FFFFFF;" d="M50.1,18.9c-1.7,2.5-6.1,9.4-7.7,11.8c0,4.5,0,7.9,0,10.1c0,1.9,0.1,4.1,0.6,4.8
		c1,1.5,2.8,1.8,4.3,2v0.5H31.7v-0.5c1.8-0.2,2.9-0.4,4.4-2.1c0.7-0.7,0.7-3.3,0.7-5.5c0.1-1.9,0.1-4.4,0.1-8
		c-0.4-0.6-6.1-10-8-12.9c-2.5-3.9-4.1-6.4-6.8-6.6V12h15.3v0.5c-2,0.2-4.4,0.4-4.4,2.1c0,0.9,1.2,2.9,2.3,4.7
		c1.4,2.4,4.3,7.1,6.5,10.7c1.7-2.5,5.5-8.5,6.7-10.6c0.6-1,1.8-3,1.8-4.3c0-2.1-2.4-2.3-4.3-2.6V12h11.6v0.5
		C54,13.1,52.6,15.2,50.1,18.9z"/>
	<path style="fill:#FFFFFF;" d="M60.9,48.4c-5.2,0-12-3.9-12-12.5c0-6.1,4.8-11.9,12.1-11.9c5.3,0,11.6,4,11.6,11.9
		C72.7,42.7,67.3,48.4,60.9,48.4z M60.7,24.7c-4.4,0-7.1,5.9-7.1,11.4c0,6.1,2.1,11.4,7.4,11.4c5.2,0,7-7.1,7-11.8
		C68,31.2,66.2,24.7,60.7,24.7z"/>
	<path style="fill:#FFFFFF;" d="M88.9,29.1c-2.2,0-2.1-1.8-4-1.8c-1.7,0-3.1,2.5-3.9,4.6v14.4c0.5,1.3,2.9,1.1,4.3,1.3v0.5H74.1
		v-0.5c1.6-0.2,2.8-0.6,2.8-1.6c0-6.3,0-10.7,0-17c0-0.5-0.1-0.8-0.5-1.1c-0.6-0.4-1.5-0.9-2.3-1.3v-0.3l6.6-2.6H81l-0.1,7H81
		c0.7-1.6,2.8-7,7-7c1.7,0,3,1.1,3,2.7C91,28,90,29.1,88.9,29.1z"/>
	<path style="fill:#FFFFFF;" d="M103.9,48.1v-0.5c1.3-0.1,2.4-0.2,2.4-1.1c0-0.8-4.1-6.5-6-9.2c-0.6-0.8-1-1.1-1.5-1.1
		c-0.3,0-0.6,0-0.8,0.1c0,4.3,0,8,0,9.8c0,1.3,1.5,1.2,2.8,1.4v0.5h-10v-0.5c1.6-0.2,3-0.4,3-1.6c0-6.3,0-22.1,0-28.3
		c0-0.5,0-0.8-0.5-1.1c-0.5-0.4-1.6-0.9-2.5-1.4v-0.3l6.7-3.1H98v24c3.9-3.2,9.7-8.7,9.7-9.6c0-0.9-2.4-1.3-4-1.3v-0.5h12.3v0.5
		c-0.5,0.1-4.7,0.3-7.4,2.6c-2.1,1.8-4.3,3.8-6.1,5.5c2.9,4.5,5.7,8.6,7.6,11.1c1.2,1.6,2.2,2.7,3,3.2c0.5,0.2,1.8,0.3,3.1,0.3v0.5
		H103.9z"/>
	<path style="fill:#FFFFFF;" d="M124.8,48.3c-2.9,0-5.6-0.7-7.8-1.7v-6.6h0.4c1.1,3.2,3,7.6,7.4,7.6c3.2,0,5.3-1.8,5.3-5.6
		c0-2.1-1.4-3.5-3.7-4c-1.8-0.4-3.5-0.8-4.9-1.2c-2.5-0.9-4.3-3.2-4.3-6.1c0-4.1,3.7-6.8,8.1-6.8c2.8,0,4.9,0.6,6.8,1.3l0.6,6.2
		l-0.4,0.1c-1.9-4.1-3.6-6.9-7.4-6.9c-2.3,0-4.6,1.6-4.6,4.7c0,2.5,1.6,3.4,3.7,3.9c1.5,0.4,3.4,0.8,4.7,1.1c3,0.7,5.4,3.3,5.4,6.6
		C134.2,46,129.8,48.3,124.8,48.3z"/>
	<path style="fill:#FFFFFF;" d="M148.8,48.1v-0.6c1.8-0.1,3.2-0.3,3.2-1.4c0-4.6,0-7.9,0-12.5c0-3.9-1-6.8-4.7-6.8
		c-2.4,0-4.1,1-5.1,2.4c-0.2,0.2-0.5,1-0.5,1.5c0,6,0,8.9,0,15.4c0,1.3,1.5,1.2,2.8,1.4v0.5h-10v-0.5c1.6-0.2,3-0.4,3-1.6
		c0-6.3,0-22.2,0-28.5c0-0.5-0.1-0.7-0.5-1.1c-0.6-0.5-1.6-0.9-2.4-1.4v-0.3l6.7-3.1h0.4l-0.2,17.4l0.1,0.1c1-1.8,4-5.3,8.6-5.3
		c4.4,0,5.8,3.3,5.8,7.7c0,5.6,0,10.5,0,14.8c0,1,1.8,1.2,3,1.3v0.5H148.8z"/>
	<path style="fill:#FFFFFF;" d="M160.3,48.1v-0.5c1.6-0.2,3.4-0.4,3.4-1.6c0-6.3,0-10.9,0-17.2c0-0.5-0.1-1-0.5-1.3
		c-0.6-0.4-1.5-0.9-2.4-1.2v-0.3l6.8-2.2h0.3v22.4c0.3,1.3,1.9,1.1,3.2,1.3v0.5H160.3z M165.6,18.7c-1.5,0-2.7-1.3-2.7-2.7
		c0-1.5,1.2-2.7,2.7-2.7c1.5,0,2.7,1.2,2.7,2.7C168.3,17.5,167.1,18.7,165.6,18.7z"/>
	<path style="fill:#FFFFFF;" d="M187.5,29.1c-2.2,0-2.1-1.8-4-1.8c-1.7,0-3.1,2.5-3.9,4.6v14.4c0.5,1.3,2.9,1.1,4.3,1.3v0.5h-11.2
		v-0.5c1.6-0.2,2.8-0.6,2.8-1.6c0-6.3,0-10.7,0-17c0-0.5-0.1-0.8-0.5-1.1c-0.6-0.4-1.5-0.9-2.3-1.3v-0.3l6.6-2.6h0.3l-0.1,7h0.1
		c0.7-1.6,2.8-7,7-7c1.7,0,3,1.1,3,2.7C189.7,28,188.7,29.1,187.5,29.1z"/>
	<path style="fill:#FFFFFF;" d="M201,48.3c-6.9,0-11.3-5.8-11.3-12.7c0-5.7,4.2-11.6,10.6-11.6c5.3,0,9.3,2.7,9.7,8.3H194
		c0,0.5-0.1,1.3-0.1,2c0,5.7,3.2,10.6,9.3,10.6c3.3,0,6.1-2,6.9-4.4l0.4,0.1C210,43.5,206.5,48.3,201,48.3z M200.4,24.8
		c-3.8,0-6.1,5.1-6.3,6.7c3,0,4.7-0.1,7.8-0.1c1,0,1.9,0,2.6-0.3c0.5-0.5,0.7-0.9,0.7-1.8C205.1,26.8,203.2,24.8,200.4,24.8z"/>
	<path style="fill:#FFFFFF;" d="M248,48.1h-32.2v-0.5c1.7-0.3,3.5-0.9,4.4-1.9c0.7-0.8,0.9-3.3,1-5.4c0.1-1.9,0.1-6.7,0.1-10.4
		c0-4,0-5.7,0-9.7c0-2.4,0-4.9-0.8-5.8c-1-1.1-2.6-1.7-4.4-1.9V12h16v0.5c-1.8,0.3-5.2,0.8-5.3,4.4c-0.2,4.7-0.2,7.4-0.2,12.3
		c0,4.6,0,7,0.1,11.5c0.1,2.2,0.1,4.3,0.7,5.2c0.5,0.7,3.5,1.4,6.1,1.4c1.1,0,5-0.1,7.3-0.8c5.3-1.5,6.8-5,8.5-9l0.5,0.2L248,48.1z"
		/>
	<path style="fill:#FFFFFF;" d="M249.5,48.1v-0.5c1.6-0.2,3.4-0.4,3.4-1.6c0-6.3,0-10.9,0-17.2c0-0.5-0.1-1-0.5-1.3
		c-0.6-0.4-1.5-0.9-2.4-1.2v-0.3l6.8-2.2h0.3v22.4c0.3,1.3,1.9,1.1,3.2,1.3v0.5H249.5z M254.7,18.7c-1.5,0-2.7-1.3-2.7-2.7
		c0-1.5,1.2-2.7,2.7-2.7c1.5,0,2.7,1.2,2.7,2.7C257.5,17.5,256.3,18.7,254.7,18.7z"/>
	<path style="fill:#FFFFFF;" d="M278.2,16.7c-2.4,0-3.2-3.1-4.8-3.6c-0.8,0-3.3,0.5-3.5,4.7c-0.2,2.7-0.2,4.3-0.2,6.7h5.9l-0.7,2.2
		h-5.3v19.6c0.2,1.2,2.3,1.3,4.3,1.5v0.5h-12.8v-0.5c1.6-0.2,4.3-0.6,4.3-1.6c0-6.3,0-13.1,0-19.4H262l0.6-2.2h3.1
		c0-2.8,0.1-5.8,0.8-7.3c1.5-3.1,5.5-5.4,9.8-5.4c2,0,4.1,0.7,4.1,2.6C280.3,15.5,279.5,16.7,278.2,16.7z"/>
	<path style="fill:#FFFFFF;" d="M287.2,48.3c-6.9,0-11.3-5.8-11.3-12.7c0-5.7,4.2-11.6,10.6-11.6c5.3,0,9.3,2.7,9.7,8.3h-16.1
		c0,0.5-0.1,1.3-0.1,2c0,5.7,3.2,10.6,9.3,10.6c3.3,0,6.1-2,6.9-4.4l0.4,0.1C296.1,43.5,292.7,48.3,287.2,48.3z M286.5,24.8
		c-3.8,0-6.1,5.1-6.3,6.7c3,0,4.7-0.1,7.8-0.1c1,0,1.9,0,2.6-0.3c0.5-0.5,0.7-0.9,0.7-1.8C291.2,26.8,289.4,24.8,286.5,24.8z"/>
</g>
</svg>
